<?xml version="1.0" standalone="no"?>
<!DOCTYPE svg PUBLIC "-//W3C//DTD SVG 1.1//EN" "http://www.w3.org/Graphics/SVG/1.1/DTD/svg11.dtd" >
<svg xmlns="http://www.w3.org/2000/svg" xmlns:xlink="http://www.w3.org/1999/xlink" version="1.1">
<metadata>
Created by FontForge 20170731 at Thu Jul  7 15:46:26 2016
 By Aleksey,,,
(c)2014-15 Ilya Ruderman and Yury Ostromentsky, under exclusive license to CSTM Fonts. All rights reserved.
</metadata>
<defs>
<font id="KazimirText-Light" horiz-adv-x="640" >
  <font-face 
    font-family="KazimirText-Light"
    font-weight="400"
    font-stretch="normal"
    units-per-em="1000"
    panose-1="2 7 5 3 7 7 6 4 3 3"
    ascent="745"
    descent="-255"
    x-height="491"
    cap-height="690"
    bbox="-143 -260 2636 1083"
    underline-thickness="50"
    underline-position="-150"
    unicode-range="U+0020-FEFF"
  />
<missing-glyph horiz-adv-x="886" 
d="M112 0v650h663v-650h-663zM132 630v-610h623v610h-623zM564 196l-120 120l-119 -119l-23 23l119 118l-116 116l22 22l116 -116l119 119l22 -22l-118 -119l120 -120z" />
    <glyph glyph-name="fi" unicode="fi" horiz-adv-x="557" 
d="M242 0h-207v29h82v433h-82v29h82v50q0 112 51.5 165.5t130.5 53.5q73 0 111.5 -33t38.5 -78q0 -41 -37 -41q-35 0 -35 33q0 16 10.5 27t24.5 11q-26 52 -103 52q-139 0 -139 -178v-62h132q77 0 99.5 1.5t32.5 8.5l12 -7v-465h82v-29h-214v29h79v433h-223v-433h72v-29z
" />
    <glyph glyph-name="fl" unicode="fl" horiz-adv-x="557" 
d="M446 29h82v-29h-214v29h79v694q-34 8 -74 8q-70 0 -109.5 -41t-39.5 -145v-54h125v-29h-125v-433h72v-29h-207v29h82v433h-82v29h82v33q0 127 54.5 181.5t143.5 54.5q18 0 49.5 -4t38.5 -4q19 0 32 8l11 -7v-724z" />
    <glyph glyph-name=".notdef" horiz-adv-x="886" 
d="M112 0v650h663v-650h-663zM132 630v-610h623v610h-623zM564 196l-120 120l-119 -119l-23 23l119 118l-116 116l22 22l116 -116l119 119l22 -22l-118 -119l120 -120z" />
    <glyph glyph-name=".null" horiz-adv-x="0" 
 />
    <glyph glyph-name="nonmarkingreturn" horiz-adv-x="333" 
 />
    <glyph glyph-name="space" unicode=" " horiz-adv-x="249" 
 />
    <glyph glyph-name="exclam" unicode="!" horiz-adv-x="253" 
d="M140 194h-26q0 145 -8 248.5t-16 152t-8 59.5q0 17 11.5 32t32.5 15q20 0 32.5 -15t12.5 -32q0 -12 -7.5 -60t-15.5 -151.5t-8 -248.5zM168 31q0 -14 -11 -27.5t-32 -13.5t-31.5 13.5t-10.5 27.5q0 15 10.5 28.5t31.5 13.5q22 0 32.5 -13.5t10.5 -28.5z" />
    <glyph glyph-name="quotedbl" unicode="&#x22;" horiz-adv-x="326" 
d="M244 466h-26l-18 219q0 9 5.5 12t25.5 3t26.5 -3.5t6.5 -12.5zM107 466h-26l-18 219q0 9 5.5 12t25.5 3t26.5 -3.5t6.5 -12.5z" />
    <glyph glyph-name="numbersign" unicode="#" horiz-adv-x="634" 
d="M387 235l54 203h-196l-53 -203h195zM324 0l54 200h-195l-54 -200h-37l54 200h-106v35h115l53 203h-129v34h138l58 218h37l-58 -218h196l57 218h37l-57 -218h107v-34h-116l-54 -203h131v-35h-140l-54 -200h-37z" />
    <glyph glyph-name="dollar" unicode="$" horiz-adv-x="558" 
d="M301 365q16 -4 23 -7v308q-28 2 -41 2q-25 0 -46 -3v-280q37 -13 64 -20zM109 533q0 -52 25.5 -84t75.5 -54v264q-49 -14 -75 -47t-26 -79zM288 22q14 0 36 2v279q-21 8 -52 16q-24 6 -35 10v-304q25 -3 51 -3zM456 149q0 50 -23.5 84.5t-82.5 59.5v-264q52 12 79 44
t27 76zM288 -10q-27 0 -51 3v-103h-27v108q-71 14 -115 53.5t-44 90.5q0 47 40 47q37 0 37 -36q0 -33 -38 -42q27 -62 120 -81v308q-75 26 -112.5 66.5t-37.5 113.5q0 65 38.5 111.5t111.5 62.5v108h27v-103q23 3 47 3q14 0 40 -2v102h26v-106q65 -13 104.5 -48t39.5 -81
q0 -47 -40 -47q-18 0 -28 10.5t-10 27.5q0 16 11 27.5t25 13.5q-23 49 -102 65v-312q81 -28 118.5 -69.5t37.5 -116.5q0 -61 -38.5 -108t-117.5 -61v-105h-26v102q-22 -2 -36 -2z" />
    <glyph glyph-name="percent" unicode="%" horiz-adv-x="829" 
d="M377 523q0 -77 -50 -127t-122 -50t-122 50t-50 127t50 127t122 50t122 -50t50 -127zM194 0h-35l459 690h35zM83 523q0 -64 32 -108.5t90 -44.5t90 44.5t32 108.5t-32 108.5t-90 44.5t-90 -45t-32 -108zM795 166q0 -76 -50 -126t-122 -50t-122 50t-50 126q0 77 50 127.5
t122 50.5t122 -50t50 -128zM501 166q0 -63 32 -107.5t90 -44.5t90 44.5t32 107.5q0 64 -32 109t-90 45t-90 -45t-32 -109z" />
    <glyph glyph-name="ampersand" unicode="&#x26;" horiz-adv-x="746" 
d="M583 -10q-67 0 -137 63q-78 -63 -185 -63q-109 0 -160 44t-51 117q0 62 38.5 106t109.5 88q-57 76 -77 115.5t-20 83.5q0 71 47.5 113.5t121.5 42.5q73 0 120.5 -40t47.5 -109q0 -59 -44 -107t-132 -99l63 -78q83 -106 136 -162q76 85 101 233h-83v29h200v-29h-84
q-32 -164 -114 -254q38 -40 62.5 -52.5t51.5 -12.5q82 0 82 137h29q0 -80 -28 -123t-95 -43zM156 551q0 -32 14.5 -67t28.5 -55t47 -63q136 85 136 187q0 50 -28 84t-84 34q-54 0 -84 -35t-30 -85zM270 19q90 0 155 53q-54 54 -138 159q-36 43 -71 91q-110 -67 -110 -166
q0 -71 45.5 -104t118.5 -33z" />
    <glyph glyph-name="quotesingle" unicode="'" horiz-adv-x="189" 
d="M107 466h-26l-18 219q0 9 5.5 12t25.5 3t26.5 -3.5t6.5 -12.5z" />
    <glyph glyph-name="parenleft" unicode="(" horiz-adv-x="358" 
d="M343 -236l-16 -24q-125 64 -201.5 199t-76.5 297q0 164 77.5 307.5t200.5 216.5l17 -24q-28 -17 -54.5 -39t-61.5 -65t-60.5 -95t-43 -131t-17.5 -170q0 -82 16 -153.5t40 -120.5t57 -90.5t62 -65.5t61 -42z" />
    <glyph glyph-name="parenright" unicode=")" horiz-adv-x="358" 
d="M15 -236q32 18 61 42t62 65.5t57 90.5t40 120.5t16 153.5q0 91 -17.5 170t-43 131t-60 95t-61 65t-54.5 39l16 24q123 -73 201 -216.5t78 -307.5q0 -162 -77 -297t-202 -199z" />
    <glyph glyph-name="asterisk" unicode="*" horiz-adv-x="396" 
d="M208 566h-15l-20 88q-8 22 1.5 34t25.5 12t26 -11.5t2 -34.5zM304 581l-86 -29l-7 13l64 64q18 17 32 15t22 -15q9 -12 3.5 -27.5t-28.5 -20.5zM191 565l-8 -13l-86 29q-22 4 -28 20t3 27q8 13 22 15.5t32 -14.5zM191 536l-66 -64q-17 -16 -31 -13.5t-21 15.5
q-9 12 -3.5 26.5t27.5 20.5l85 29zM305 520q21 -5 27 -20.5t-3 -26.5q-9 -13 -22.5 -15t-30.5 14l-66 64l8 13zM229 445q6 -21 -4 -32.5t-25 -10.5q-15 0 -24.5 11.5t-3.5 32.5l21 89h15z" />
    <glyph glyph-name="plus" unicode="+" horiz-adv-x="503" 
d="M458 319h-188v-206h-37v206h-188v34h188v197h37v-197h188v-34z" />
    <glyph glyph-name="comma" unicode="," horiz-adv-x="209" 
d="M57 -120v27q47 27 52 80q-48 9 -48 46q0 14 11 27t31 13q22 0 33.5 -14.5t11.5 -37.5q0 -101 -91 -141z" />
    <glyph glyph-name="hyphen" unicode="-" horiz-adv-x="437" 
d="M70 288v35h298v-35h-298z" />
    <glyph glyph-name="period" unicode="." horiz-adv-x="198" 
d="M142 31q0 -14 -11 -27.5t-32 -13.5t-31.5 13.5t-10.5 27.5q0 15 10.5 28.5t31.5 13.5q22 0 32.5 -13.5t10.5 -28.5z" />
    <glyph glyph-name="slash" unicode="/" horiz-adv-x="529" 
d="M504 760l-440 -860h-40l440 860h40z" />
    <glyph glyph-name="zero" unicode="0" horiz-adv-x="607" 
d="M551 346q0 -88 -27 -167.5t-85 -134t-136 -54.5t-136 55t-84.5 134.5t-26.5 166.5q0 88 27 167t84.5 133t135.5 54t136 -54t85 -133t27 -167zM115 346q0 -157 52 -240.5t136 -83.5q86 0 137.5 82.5t51.5 241.5q0 160 -51.5 241t-137.5 81q-85 0 -136.5 -81.5
t-51.5 -240.5z" />
    <glyph glyph-name="one" unicode="1" horiz-adv-x="369" 
d="M341 0h-294v29h119v589h-119v29q56 0 86.5 6t42.5 16t22 31h24v-671h119v-29z" />
    <glyph glyph-name="two" unicode="2" horiz-adv-x="531" 
d="M362 42q50 0 63 14.5t13 58.5v81h34v-196h-420v28l189 205q83 89 114 151.5t31 133.5q0 74 -38.5 112t-112.5 38q-49 0 -89.5 -20t-55.5 -60q34 -5 34 -40q0 -16 -10.5 -27t-27.5 -11q-18 0 -29 11t-11 31q0 58 55 103t149 45t144.5 -44.5t50.5 -127.5
q0 -63 -29.5 -125.5t-110.5 -148.5l-197 -212h254z" />
    <glyph glyph-name="three" unicode="3" horiz-adv-x="531" 
d="M256 22q79 0 121 41t42 120q-1 82 -53 123t-128 41h-65v28h65q74 0 111.5 44.5t37.5 109.5q0 64 -36.5 101.5t-106.5 37.5q-48 0 -88 -19.5t-54 -59.5q36 -7 36 -41q0 -17 -10.5 -27.5t-27.5 -10.5q-18 0 -29.5 11t-11.5 31q0 59 55 103.5t145 44.5q91 0 139 -44.5
t48 -116.5q0 -62 -36 -108t-105 -66q85 -17 128.5 -66t43.5 -116q0 -83 -55 -138t-164 -55q-89 0 -147 44.5t-58 105.5q0 47 40 47q38 0 38 -37q0 -32 -37 -41q16 -42 61 -64.5t101 -22.5z" />
    <glyph glyph-name="four" unicode="4" horiz-adv-x="558" 
d="M511 0h-245v29h100v185h-344v21l357 460h43v-452h89v-29h-89v-185h89v-29zM366 243v387l-300 -387h300z" />
    <glyph glyph-name="five" unicode="5" horiz-adv-x="525" 
d="M249 22q83 0 126.5 52t43.5 144q0 86 -45.5 135t-121.5 49q-102 0 -144 -72h-33l38 360h330v-48h-300l-30 -270q47 62 150 62q101 0 158 -61.5t57 -153.5q0 -96 -57.5 -162.5t-165.5 -66.5q-91 0 -149.5 43t-58.5 105q0 19 10.5 31t29.5 12q38 0 38 -38q0 -32 -35 -41
q18 -40 61.5 -60t97.5 -20z" />
    <glyph glyph-name="six" unicode="6" horiz-adv-x="569" 
d="M329 668q-215 0 -215 -358q18 59 69 91.5t119 32.5q96 0 156 -61.5t60 -158.5q0 -93 -62.5 -158.5t-164.5 -65.5q-98 0 -165 76t-67 234q0 193 69 296.5t196 103.5q78 0 120.5 -30t42.5 -77q0 -42 -39 -42q-17 0 -28 10.5t-11 26.5q0 14 9.5 24.5t24.5 13.5
q-11 20 -43 31t-71 11zM119 214q0 -83 47.5 -137.5t122.5 -54.5q77 0 124 54.5t47 137.5q0 84 -46.5 136t-123.5 52q-75 0 -123 -52t-48 -136z" />
    <glyph glyph-name="seven" unicode="7" horiz-adv-x="490" 
d="M214 -10q-16 0 -27 10.5t-11 32.5q0 30 4 55.5t21.5 85.5t64.5 161.5t121 238.5l40 74h-266q-57 0 -72 -13.5t-15 -68.5v-87h-34v211h433v-28l-51 -94q-52 -96 -88 -175t-54 -126.5t-26 -91t-8.5 -61.5t1.5 -45.5t2 -36.5q0 -42 -35 -42z" />
    <glyph glyph-name="eight" unicode="8" horiz-adv-x="569" 
d="M285 -10q-111 0 -171 57.5t-60 136.5q0 67 42.5 116.5t127.5 66.5q-70 18 -105.5 62.5t-35.5 98.5q0 72 55.5 122t145.5 50q93 0 147.5 -50t54.5 -122q0 -54 -35.5 -99t-104.5 -62q83 -16 126.5 -66.5t43.5 -116.5q0 -78 -61.5 -136t-169.5 -58zM285 381q66 0 104 41.5
t38 105.5q0 62 -37.5 102.5t-105.5 40.5q-69 0 -105.5 -40.5t-36.5 -103.5q0 -64 37.5 -105t105.5 -41zM285 19q80 0 126 46.5t46 118.5q0 76 -49.5 121.5t-122.5 45.5q-75 0 -123.5 -45.5t-48.5 -121.5q-1 -72 45.5 -118.5t126.5 -46.5z" />
    <glyph glyph-name="nine" unicode="9" horiz-adv-x="571" 
d="M451 476q0 84 -47.5 138t-122.5 54q-77 0 -124 -54.5t-47 -137.5q0 -84 46.5 -136t123.5 -52q75 0 123 52t48 136zM256 22q67 0 109.5 31t66.5 111.5t24 215.5q-20 -61 -72.5 -92.5t-115.5 -31.5q-97 0 -156.5 61.5t-59.5 158.5q0 93 62.5 158.5t163.5 65.5
q99 0 166 -73.5t67 -230.5q0 -204 -60.5 -305t-192.5 -101q-78 0 -127 36.5t-49 79.5t39 43t39 -38q0 -24 -26 -39q12 -22 46.5 -36t75.5 -14z" />
    <glyph glyph-name="colon" unicode=":" horiz-adv-x="224" 
d="M155 339q0 -14 -11 -27.5t-32 -13.5t-31.5 13.5t-10.5 27.5q0 15 10.5 28.5t31.5 13.5q22 0 32.5 -13.5t10.5 -28.5zM155 31q0 -14 -11 -27.5t-32 -13.5t-31.5 13.5t-10.5 27.5q0 15 10.5 28.5t31.5 13.5q22 0 32.5 -13.5t10.5 -28.5z" />
    <glyph glyph-name="semicolon" unicode=";" horiz-adv-x="241" 
d="M164 339q0 -14 -11 -27.5t-32 -13.5t-31.5 13.5t-10.5 27.5q0 15 10.5 28.5t31.5 13.5q22 0 32.5 -13.5t10.5 -28.5zM75 -120v27q47 27 52 80q-48 9 -48 46q0 14 11 27t31 13q22 0 33.5 -14.5t11.5 -37.5q0 -101 -91 -141z" />
    <glyph glyph-name="less" unicode="&#x3c;" horiz-adv-x="448" 
d="M371 120l-326 209v22l326 209v-42l-280 -177l280 -178v-43z" />
    <glyph glyph-name="equal" unicode="=" horiz-adv-x="541" 
d="M73 402v35h396v-35h-396zM73 242v35h396v-35h-396z" />
    <glyph glyph-name="greater" unicode="&#x3e;" horiz-adv-x="448" 
d="M77 120v42l280 179l-280 176v43l326 -209v-22z" />
    <glyph glyph-name="question" unicode="?" horiz-adv-x="432" 
d="M198 668q-37 0 -71.5 -14.5t-48.5 -47.5q34 -8 34 -40q0 -16 -10.5 -27t-27.5 -11q-40 0 -40 43q0 53 47.5 91.5t127.5 38.5q85 0 130 -44t45 -114q0 -40 -19.5 -75.5t-47 -62t-55 -51t-47 -51.5t-19.5 -55t13 -54h-28q-19 27 -19 69q0 34 17.5 63.5t42.5 52t49.5 45.5
t42 55.5t17.5 71.5q0 117 -133 117zM239 31q0 -14 -11 -27.5t-32 -13.5t-31.5 13.5t-10.5 27.5q0 15 10.5 28.5t31.5 13.5q22 0 32.5 -13.5t10.5 -28.5z" />
    <glyph glyph-name="at" unicode="@" horiz-adv-x="912" 
d="M459 -213q-191 0 -298.5 105t-107.5 304q0 187 119.5 314t311.5 127q99 0 173 -30.5t115.5 -83.5t61.5 -117.5t20 -141.5q0 -53 -9 -99t-28 -87t-54.5 -64.5t-82.5 -23.5q-56 0 -87.5 30t-33.5 83q-48 -113 -158 -113q-80 0 -120 61.5t-29 165.5q11 95 63 155.5t138 60.5
q50 0 84 -26.5t42 -75.5l35 102h21l-32 -262q-19 -152 81 -152q63 0 99 65.5t36 178.5q0 73 -17.5 132.5t-55.5 108.5t-104.5 76.5t-157.5 27.5q-179 0 -288 -117.5t-109 -294.5q0 -189 98 -284.5t274 -95.5q160 0 251 67l13 -24q-92 -72 -264 -72zM410 19q63 0 100.5 53.5
t46.5 133.5q23 198 -101 198q-67 0 -106 -53.5t-48 -132.5q-10 -84 17 -141.5t91 -57.5z" />
    <glyph glyph-name="A" unicode="A" horiz-adv-x="644" 
d="M443 251l-131 376l-131 -376h262zM182 0h-182v29h68l231 661h46l231 -661h71v-29h-202v29h76l-68 193h-282l-68 -193h79v-29z" />
    <glyph glyph-name="B" unicode="B" horiz-adv-x="632" 
d="M52 0v29h90v632h-90v29h251q119 0 181.5 -45t62.5 -129q0 -67 -42 -106.5t-103 -52.5q76 -12 128 -53t52 -115q0 -95 -62.5 -142t-194.5 -47h-273zM302 661h-104v-295h116q86 0 130.5 40t44.5 106q0 67 -46 108t-141 41zM328 340h-130v-311h126q199 0 199 158
q0 73 -53 113t-142 40z" />
    <glyph glyph-name="C" unicode="C" horiz-adv-x="624" 
d="M513 66q-32 -40 -80.5 -58t-95.5 -18q-71 0 -126.5 30t-89 81t-50.5 113.5t-17 131.5q0 93 31 172t96 130.5t153 51.5q112 0 176 -71l21 70h28v-217h-35q0 91 -51 138.5t-136 47.5q-98 0 -161 -83t-63 -239q0 -155 62 -239.5t168 -84.5q78 0 131.5 48.5t53.5 141.5h34
v-222h-27z" />
    <glyph glyph-name="D" unicode="D" horiz-adv-x="682" 
d="M296 0h-244v29h90v632h-90v29h244q106 0 184 -50.5t114 -127t36 -166.5t-36 -167t-113.5 -128t-184.5 -51zM198 661v-632h91q124 0 203 83t79 234q0 149 -79.5 232t-202.5 83h-91z" />
    <glyph glyph-name="E" unicode="E" horiz-adv-x="605" 
d="M52 0v29h90v632h-90v29h483v-186h-35v71q0 52 -21.5 69t-77.5 17h-203v-295l227 6v-39l-227 5v-309h222q52 0 70 20t18 71v71h35v-191h-491z" />
    <glyph glyph-name="F" unicode="F" horiz-adv-x="553" 
d="M312 0h-260v29h90v632h-90v29h468v-186h-35v71q0 52 -22 69t-77 17h-188v-295l223 6v-39l-223 5v-309h114v-29z" />
    <glyph glyph-name="G" unicode="G" horiz-adv-x="689" 
d="M552 -10l-20 59q-50 -59 -162 -59q-67 0 -121 19t-90 52t-60 78.5t-34.5 97t-10.5 109.5q0 93 32.5 172.5t99.5 130.5t157 51q129 0 182 -70l22 70h27v-223h-34q0 94 -52 142.5t-143 48.5q-100 0 -166 -83t-66 -239t68.5 -240t187.5 -84q106 0 153 59v188h-115v29h253
v-29h-82v-279h-26z" />
    <glyph glyph-name="H" unicode="H" horiz-adv-x="758" 
d="M52 0v29h90v632h-90v29h230v-29h-84v-293h362v293h-85v29h230v-29h-89v-632h89v-29h-230v29h85v310h-362v-310h84v-29h-230z" />
    <glyph glyph-name="I" unicode="I" horiz-adv-x="339" 
d="M287 0h-235v29h90v632h-90v29h235v-29h-89v-632h89v-29z" />
    <glyph glyph-name="J" unicode="J" horiz-adv-x="488" 
d="M361 221q0 -117 -41 -174t-133 -57q-82 0 -125 44t-43 97q0 22 11 34t30 12q16 0 26.5 -10.5t10.5 -25.5q0 -33 -36 -42q7 -30 39 -53.5t85 -23.5q68 0 94 44.5t26 138.5v456h-94v29h240v-29h-90v-440z" />
    <glyph glyph-name="K" unicode="K" horiz-adv-x="671" 
d="M287 0h-235v29h90v632h-90v29h235v-29h-89v-393l322 393h-79v29h195v-29h-73l-200 -244l239 -388h64v-29h-203v29h73l-211 342l-127 -155v-187h89v-29z" />
    <glyph glyph-name="L" unicode="L" horiz-adv-x="561" 
d="M52 0v29h90v632h-90v29h240v-29h-94v-632h209q53 0 70.5 20.5t17.5 70.5v71h35v-191h-478z" />
    <glyph glyph-name="M" unicode="M" horiz-adv-x="894" 
d="M266 29v-29h-214v29h90v632h-90v29h163l234 -533l234 533h158v-29h-89v-632h89v-29h-230v29h85v609l-240 -547h-34l-241 548v-610h85z" />
    <glyph glyph-name="N" unicode="N" horiz-adv-x="739" 
d="M271 29v-29h-219v29h90v632h-90v29h143l372 -592v563h-90v29h219v-29h-90v-666h-32l-393 625v-591h90z" />
    <glyph glyph-name="O" unicode="O" horiz-adv-x="686" 
d="M632 345q0 -148 -77.5 -251.5t-211.5 -103.5q-90 0 -157.5 50.5t-99.5 130t-32 174.5t32 174.5t99.5 130t157.5 50.5q134 0 211.5 -103.5t77.5 -251.5zM113 345q0 -152 64 -237.5t166 -85.5t166 86t64 237t-64 237t-166 86t-166 -86t-64 -237z" />
    <glyph glyph-name="P" unicode="P" horiz-adv-x="590" 
d="M52 0v29h90v632h-90v29h234q133 0 202.5 -53t69.5 -144q0 -88 -69 -143t-200 -55h-91v-266h96v-29h-242zM290 661h-92v-337h94q208 0 208 169q0 78 -51.5 123t-158.5 45z" />
    <glyph glyph-name="Q" unicode="Q" horiz-adv-x="686" 
d="M517 -111q-43 0 -69 25.5t-43 82.5q-27 -7 -62 -7q-90 0 -157.5 50.5t-99.5 130t-32 174.5t32 174.5t99.5 130t157.5 50.5q134 0 211.5 -103.5t77.5 -251.5q0 -114 -48 -205.5t-134 -128.5q15 -50 29.5 -69t42.5 -19q59 0 59 109h29q0 -143 -93 -143zM440 46
q62 34 97.5 111t35.5 188q0 151 -64 237t-166 86t-166 -86t-64 -237q0 -163 75 -251q26 102 116 102q41 0 67.5 -18.5t46.5 -64.5q13 -29 22 -67zM343 22q29 0 54 7q-10 39 -21 68q-15 36 -35 50.5t-50 14.5q-63 0 -82 -90q56 -50 134 -50z" />
    <glyph glyph-name="R" unicode="R" horiz-adv-x="659" 
d="M565 -10q-53 0 -76.5 36t-47.5 133q-25 102 -54.5 136t-93.5 34h-95v-300h78v-29h-224v29h90v632h-90v29h243q127 0 189.5 -46.5t62.5 -132.5q0 -67 -45 -114.5t-135 -56.5q59 -18 82.5 -51t47.5 -126q23 -87 36.5 -114t41.5 -27q31 0 42.5 30t11.5 92h29
q0 -79 -20 -116.5t-73 -37.5zM297 661h-99v-305h97q105 0 149 44t44 111q0 150 -191 150z" />
    <glyph glyph-name="S" unicode="S" horiz-adv-x="579" 
d="M312 -10q-134 0 -199 85l-22 -85h-27v224h34q0 -87 61.5 -139.5t152.5 -52.5q81 0 121 35.5t40 91.5q0 63 -41.5 103t-147.5 68q-111 30 -163.5 71t-52.5 127q0 80 56 131t155 51q123 0 179 -78l18 78h27v-221h-34q0 99 -55 144t-134 45q-76 0 -119.5 -37.5t-43.5 -97.5
q0 -38 13.5 -65.5t43.5 -46.5t59 -30.5t79 -25.5q110 -30 160 -73t50 -128q0 -74 -50 -124t-160 -50z" />
    <glyph glyph-name="T" unicode="T" horiz-adv-x="619" 
d="M188 0v29h94v632h-127q-52 0 -68.5 -16t-16.5 -70v-85h-35v200h550v-200h-35v85q0 55 -16 70.5t-69 15.5h-127v-632h95v-29h-245z" />
    <glyph glyph-name="U" unicode="U" horiz-adv-x="722" 
d="M596 242q0 -252 -230 -252q-119 0 -180 67.5t-61 185.5v418h-89v29h234v-29h-89v-417q0 -104 48 -162t144 -58q184 0 184 222v415h-90v29h219v-29h-90v-419z" />
    <glyph glyph-name="V" unicode="V" horiz-adv-x="652" 
d="M653 661h-75l-229 -666h-43l-234 666h-77v29h210v-29h-80l209 -596l205 596h-76v29h190v-29z" />
    <glyph glyph-name="W" unicode="W" horiz-adv-x="925" 
d="M632 -5l-166 625l-166 -625h-59l-167 666h-76v29h205v-29h-78l154 -616l172 645h44l171 -646l145 617h-76v29h188v-29h-76l-156 -666h-59z" />
    <glyph glyph-name="X" unicode="X" horiz-adv-x="651" 
d="M193 0h-181v29h74l215 321l-209 311h-70v29h205v-29h-74l181 -269l177 269h-72v29h181v-29h-71l-196 -298l224 -334h68v-29h-201v29h72l-196 293l-196 -293h69v-29z" />
    <glyph glyph-name="Y" unicode="Y" horiz-adv-x="612" 
d="M432 29v-29h-245v29h94v269l-218 363h-68v29h200v-29h-75l196 -327l186 327h-72v29h177v-29h-67l-203 -358v-274h95z" />
    <glyph glyph-name="Z" unicode="Z" horiz-adv-x="567" 
d="M517 0h-470v28l410 633h-274q-54 0 -73.5 -16.5t-19.5 -69.5v-82h-35v197h459v-28l-410 -633h296q51 0 66.5 19.5t15.5 71.5v81h35v-201z" />
    <glyph glyph-name="bracketleft" unicode="[" horiz-adv-x="318" 
d="M293 -250h-195v1000h195v-29h-139v-942h139v-29z" />
    <glyph glyph-name="backslash" unicode="\" horiz-adv-x="529" 
d="M505 -100h-40l-440 860h40z" />
    <glyph glyph-name="bracketright" unicode="]" horiz-adv-x="318" 
d="M25 -250v29h139v942h-139v29h195v-1000h-195z" />
    <glyph glyph-name="asciicircum" unicode="^" horiz-adv-x="413" 
d="M327 384l-121 262l-122 -262h-33l142 306h28l141 -306h-35z" />
    <glyph glyph-name="underscore" unicode="_" horiz-adv-x="456" 
d="M0 -94v34h456v-34h-456z" />
    <glyph glyph-name="grave" unicode="`" horiz-adv-x="365" 
d="M239 601l-71 63q-64 50 -64 69q0 23 27 23q26 0 62 -55l69 -100h-23z" />
    <glyph glyph-name="a" unicode="a" horiz-adv-x="537" 
d="M446 -10q-82 0 -79 112q-39 -112 -170 -112q-65 0 -107 33.5t-42 99.5q0 154 252 154h63v49q0 147 -132 147q-43 0 -79 -17.5t-50 -49.5q34 -4 34 -33q0 -16 -9.5 -25t-25.5 -9q-17 0 -26.5 9.5t-9.5 26.5q0 51 50 88.5t127 37.5q174 0 174 -179v-226q0 -68 45 -68
q46 0 46 95h24q0 -68 -20 -100.5t-65 -32.5zM214 25q64 0 106.5 39t42.5 110v76h-63q-196 0 -196 -120q0 -52 31 -78.5t79 -26.5z" />
    <glyph glyph-name="b" unicode="b" horiz-adv-x="572" 
d="M305 19q76 0 118.5 61t42.5 166q1 104 -41.5 165t-118.5 61q-74 0 -118.5 -59.5t-44.5 -164.5v-15q0 -93 44.5 -153.5t117.5 -60.5zM89 -10v731h-81v29q74 0 93.5 1.5t28.5 8.5l12 -7v-98q0 -231 -3 -292q17 60 60.5 99t115.5 39q91 0 149 -70t58 -184q0 -115 -60.5 -186
t-154.5 -71q-116 0 -168 120l-25 -120h-25z" />
    <glyph glyph-name="c" unicode="c" horiz-adv-x="492" 
d="M268 -10q-95 0 -157 69t-62 185q0 121 64.5 189t158.5 68q73 0 121 -39t48 -97q0 -19 -9.5 -30.5t-25.5 -11.5q-17 0 -27.5 9t-10.5 25t10 27t30 11q-13 35 -48 56t-82 21q-78 0 -125.5 -60.5t-47.5 -167.5q0 -106 47 -165.5t121 -59.5q116 0 157 130l25 -8
q-21 -76 -71 -113.5t-116 -37.5z" />
    <glyph glyph-name="d" unicode="d" horiz-adv-x="591" 
d="M482 753v-720h82v-29q-94 0 -114 -14l-12 7v136q-17 -70 -63.5 -106.5t-108.5 -36.5q-88 0 -152.5 69t-64.5 185q0 118 63.5 187.5t153.5 69.5q62 0 106.5 -32.5t61.5 -91.5q-5 118 -5 248v96h-82v29q74 0 94.5 1.5t29.5 8.5zM272 472q-73 0 -119.5 -62t-47.5 -166
q-1 -107 48 -166t119 -59q68 0 113 61t45 160v17q0 100 -44.5 157.5t-113.5 57.5z" />
    <glyph glyph-name="e" unicode="e" horiz-adv-x="522" 
d="M278 -10q-104 0 -166 70t-62 188q0 112 61 182.5t157 70.5q99 0 153.5 -65t54.5 -162v-22h-370v-10q0 -102 44.5 -162.5t130.5 -60.5q129 0 165 125l24 -8q-17 -71 -67 -108.5t-125 -37.5zM268 475q-75 0 -116.5 -56.5t-45.5 -141.5h314q-2 85 -40 141.5t-112 56.5z" />
    <glyph glyph-name="f" unicode="f" horiz-adv-x="329" 
d="M273 0h-238v29h82v433h-82v29h82v50q0 219 170 219q59 0 94 -29t35 -71q0 -19 -10 -30t-26 -11t-25.5 9.5t-9.5 23.5q0 16 10 25t26 9q-22 45 -88 45q-57 0 -90 -41.5t-33 -146.5v-52h138v-29h-138v-433h103v-29z" />
    <glyph glyph-name="g" unicode="g" horiz-adv-x="502" 
d="M245 187q60 0 97 38t37 106q0 69 -36.5 106.5t-97.5 37.5q-58 -1 -95.5 -38.5t-37.5 -105.5t36.5 -106t96.5 -38zM482 -98q0 -79 -59 -120.5t-169 -41.5q-96 0 -156.5 34.5t-60.5 103.5q0 46 31.5 80t91.5 46q-98 15 -98 90q0 36 28.5 57.5t72.5 26.5q-49 17 -77.5 58
t-28.5 95q0 77 55 123.5t133 46.5q43 0 80 -10h157v-25l-119 1q71 -48 71 -136q0 -71 -50 -120t-139 -49q-74 0 -109 -14t-35 -48q0 -31 32 -47t123 -16q118 0 172 -33.5t54 -101.5zM265 -227q87 0 134.5 30.5t47.5 88.5q0 49 -45 76.5t-156 27.5h-47q-115 -24 -115 -110
q0 -41 27.5 -67t66 -36t87.5 -10z" />
    <glyph glyph-name="h" unicode="h" horiz-adv-x="594" 
d="M241 0h-214v29h82v692h-82v29q73 0 94.5 1.5t29.5 8.5l11 -7v-151q0 -165 -12 -234q17 59 59 96t110 37q172 0 172 -203v-269h82v-29h-214v29h79v269q0 164 -137 164q-65 0 -102 -43t-37 -132v-258h79v-29z" />
    <glyph glyph-name="i" unicode="i" horiz-adv-x="284" 
d="M172 494v-465h82v-29h-216v29h81v433h-81v29q71 0 91.5 1.5t30.5 8.5zM181 656q0 -13 -10 -26.5t-31 -13.5t-30.5 13t-9.5 27t9.5 27.5t30.5 13.5t31 -13.5t10 -27.5z" />
    <glyph glyph-name="j" unicode="j" horiz-adv-x="265" 
d="M185 656q0 -13 -10 -26.5t-31 -13.5t-30.5 13t-9.5 27t9.5 27.5t30.5 13.5t31 -13.5t10 -27.5zM31 -260q-58 0 -92.5 34t-34.5 77q0 41 36 41q17 0 26.5 -9t9.5 -25q0 -32 -32 -42q18 -48 84 -48q53 0 74 41.5t21 137.5v515h-82v29q72 0 91.5 1.5t30.5 8.5l13 -7v-527
q0 -118 -33.5 -172.5t-111.5 -54.5z" />
    <glyph glyph-name="k" unicode="k" horiz-adv-x="562" 
d="M241 0h-214v29h82v692h-82v29q75 0 95.5 1.5t28.5 8.5l11 -7v-556l246 265h-90v29h214v-29h-80l-161 -173l209 -260h61v-29h-207v29h82l-180 223l-94 -101v-122h79v-29z" />
    <glyph glyph-name="l" unicode="l" horiz-adv-x="275" 
d="M30 0v29h81v692h-81v29q74 0 94.5 1.5t29.5 8.5l10 -7v-724h82v-29h-216z" />
    <glyph glyph-name="m" unicode="m" horiz-adv-x="866" 
d="M35 0v29h82v433h-82v29q65 0 81.5 1.5t24.5 8.5l15 -7v-115q37 122 160 122q118 0 137 -120q33 120 159 120q68 0 109 -44t41 -139v-289h81v-29h-208v29h74v279q0 159 -118 159q-58 0 -91.5 -41.5t-33.5 -123.5v-273h74v-29h-201v29h74v279q0 159 -121 159
q-55 0 -88.5 -41.5t-33.5 -123.5v-273h74v-29h-209z" />
    <glyph glyph-name="n" unicode="n" horiz-adv-x="602" 
d="M249 29v-29h-214v29h82v433h-82v29q65 0 82.5 1.5t28.5 8.5l12 -7v-126q14 58 57 95.5t112 37.5q172 0 172 -203v-269h82v-29h-214v29h79v269q0 164 -137 164q-65 0 -102 -43t-37 -132v-258h79z" />
    <glyph glyph-name="o" unicode="o" horiz-adv-x="543" 
d="M272 -10q-97 0 -160 71t-63 184t63 184.5t160 71.5t159.5 -71.5t62.5 -184.5t-62.5 -184t-159.5 -71zM272 472q-78 0 -122.5 -63t-44.5 -164q0 -100 44.5 -163t122.5 -63t122 62.5t44 163.5t-44 164t-122 63z" />
    <glyph glyph-name="p" unicode="p" horiz-adv-x="590" 
d="M324 19q74 0 117.5 62.5t44.5 164.5q0 105 -45 165.5t-116 60.5q-70 0 -116.5 -58t-46.5 -165v-16q0 -98 44.5 -156t117.5 -58zM109 462h-82v29q65 0 82.5 1.5t28.5 8.5l12 -7v-143q17 69 64.5 109.5t119.5 40.5q85 0 146.5 -68t61.5 -186q0 -113 -61.5 -185t-151.5 -72
q-67 0 -109.5 33t-57.5 78v-322h93v-29h-228v29h82v683z" />
    <glyph glyph-name="q" unicode="q" horiz-adv-x="572" 
d="M434 123q-18 -60 -60.5 -96.5t-108.5 -36.5q-89 0 -152.5 69t-63.5 185q0 118 63 187.5t153 69.5q59 0 102 -28t64 -75l27 103h25v-722h82v-29h-231v29h96v105q0 143 4 239zM270 472q-75 0 -119.5 -61.5t-45.5 -166.5q-1 -108 45.5 -166.5t116.5 -58.5t116.5 61t46.5 160
v19q0 101 -44.5 157t-115.5 56z" />
    <glyph glyph-name="r" unicode="r" horiz-adv-x="430" 
d="M261 0h-226v29h82v433h-82v29q64 0 82 1.5t29 8.5l12 -7v-130q26 137 141 137q49 0 78 -26t29 -75q0 -42 -36 -42q-16 0 -26 9.5t-10 23.5q0 15 9.5 25.5t26.5 10.5q3 0 5 -1q-16 49 -77 49q-63 0 -95.5 -57.5t-32.5 -159.5v-229h91v-29z" />
    <glyph glyph-name="s" unicode="s" horiz-adv-x="482" 
d="M97 62l-16 -72h-23v177h29q4 -69 53 -108.5t125 -39.5q118 0 118 93q0 45 -34.5 71.5t-117.5 44.5q-94 19 -130.5 51.5t-36.5 88.5q0 61 45 97t115 36q104 0 149 -61l11 61h23v-161h-29q-4 67 -45.5 99.5t-108.5 32.5q-54 0 -83 -26.5t-29 -65.5q0 -43 31 -69t121 -44
q83 -18 125 -50.5t42 -94.5q0 -61 -40 -96.5t-120 -35.5q-65 0 -109 21.5t-65 50.5z" />
    <glyph glyph-name="t" unicode="t" horiz-adv-x="386" 
d="M238 -10q-61 0 -97.5 36.5t-36.5 116.5v319h-90v23h31q47 0 63 29t16 87v70h32v-180h196v-29h-195v-316q0 -126 91 -126q86 0 86 144h29q0 -88 -29.5 -131t-95.5 -43z" />
    <glyph glyph-name="u" unicode="u" horiz-adv-x="592" 
d="M444 -3v125q-35 -132 -170 -132q-172 0 -172 206v266h-81v29q73 0 93.5 1.5t28.5 8.5l13 -7v-289q0 -177 136 -177q64 0 102 45.5t38 138.5v250h-87v29q74 0 97 1.5t30 8.5l13 -7v-462h82v-29q-60 0 -81 -2t-30 -11z" />
    <glyph glyph-name="v" unicode="v" horiz-adv-x="527" 
d="M517 462h-58l-169 -467h-40l-183 467h-63v29h187v-29h-72l160 -408l148 408h-62v29h152v-29z" />
    <glyph glyph-name="w" unicode="w" horiz-adv-x="755" 
d="M515 -5l-133 439l-135 -439h-46l-131 467h-60v29h178v-29h-66l115 -411l137 444h34l135 -445l112 412h-63v29h150v-29h-57l-126 -467h-44z" />
    <glyph glyph-name="x" unicode="x" horiz-adv-x="524" 
d="M173 0h-154v29h62l156 210l-165 223h-56v29h177v-29h-61l139 -187l137 187h-65v29h157v-29h-57l-155 -211l164 -222h59v-29h-174v29h55l-137 187l-139 -187h57v-29z" />
    <glyph glyph-name="y" unicode="y" horiz-adv-x="538" 
d="M113 -260q-48 0 -75.5 26.5t-27.5 67.5q0 20 11 32t28 12q14 0 24 -9t10 -24q0 -18 -10.5 -28.5t-26.5 -10.5q14 -38 65 -38q46 0 70.5 41t83.5 192l-193 461h-65v29h187v-29h-64l163 -389l146 389h-66v29h160v-29h-63l-179 -476q-57 -152 -88.5 -199t-89.5 -47z" />
    <glyph glyph-name="z" unicode="z" horiz-adv-x="486" 
d="M437 0h-383v32l317 430h-207q-45 0 -62 -17t-17 -56v-64h-31v166h370v-32l-316 -430h221q45 0 61 17t16 57v64h31v-167z" />
    <glyph glyph-name="braceleft" unicode="{" horiz-adv-x="349" 
d="M326 -231v-29q-63 0 -104.5 16.5t-61.5 48t-27.5 65t-7.5 80.5q0 25 3 76t3 74q0 72 -24.5 110.5t-92.5 38.5v29q68 0 92 35.5t24 101.5q0 23 -3.5 73t-3.5 75q0 44 7.5 75.5t28 61t62.5 45t105 15.5v-29q-87 0 -117 -49t-30 -136q0 -21 1.5 -62.5t1.5 -60.5
q0 -74 -21.5 -115.5t-83.5 -44.5q63 -5 84.5 -50t21.5 -125q0 -19 -1 -60t-1 -62q0 -35 2.5 -61t11.5 -53t24.5 -44t42.5 -28t64 -11z" />
    <glyph glyph-name="bar" unicode="|" horiz-adv-x="232" 
d="M135 -250h-37v1090h37v-1090z" />
    <glyph glyph-name="braceright" unicode="}" horiz-adv-x="349" 
d="M24 -231q46 0 76 15t44.5 44.5t19.5 61t5 75.5q0 21 -1.5 62t-1.5 61q0 80 22 125t85 50q-43 2 -67.5 26t-31.5 55.5t-7 79.5q0 19 1.5 60.5t1.5 61.5q0 42 -5 71.5t-19.5 57.5t-45 42t-76.5 14v29q63 0 104.5 -15.5t62 -45t28 -61t7.5 -75.5q0 -25 -3 -74.5t-3 -72.5
q0 -67 24 -102.5t92 -35.5v-29q-68 0 -92.5 -39t-24.5 -111q0 -23 2.5 -73t2.5 -75q0 -47 -7.5 -81t-27.5 -65.5t-61.5 -48t-103.5 -16.5v29z" />
    <glyph glyph-name="asciitilde" unicode="~" horiz-adv-x="564" 
d="M492 370q0 -74 -24 -113t-83 -39q-36 0 -67.5 19t-50.5 42t-43.5 42t-47.5 19q-75 0 -75 -114h-26q0 152 111 152q34 0 64 -19t49 -42t45 -42t52 -19q35 0 52.5 25t17.5 89h26z" />
    <glyph glyph-name="uni00A0" unicode="&#xa0;" horiz-adv-x="249" 
 />
    <glyph glyph-name="exclamdown" unicode="&#xa1;" horiz-adv-x="226" 
d="M100 297h26q0 -145 8 -248.5t16 -152t8 -59.5q0 -17 -11.5 -32t-32.5 -15q-20 0 -32.5 15t-12.5 32q0 12 7.5 60t15.5 151.5t8 248.5zM72 460q0 14 11 27.5t32 13.5t31.5 -13.5t10.5 -27.5q0 -15 -10.5 -28.5t-31.5 -13.5q-22 0 -32.5 13.5t-10.5 28.5z" />
    <glyph glyph-name="cent" unicode="&#xa2;" horiz-adv-x="506" 
d="M109 324q0 -99 41 -157t107 -67v450q-68 -9 -108 -68.5t-40 -157.5zM283 -20h-26v90q-89 6 -146.5 74.5t-57.5 179.5q0 114 58 181.5t146 74.5v93h26v-92q71 -2 116.5 -41t45.5 -95q0 -19 -9.5 -30.5t-25.5 -11.5q-17 0 -27.5 9t-10.5 25t9.5 27t27.5 11h3
q-13 35 -47.5 56t-81.5 21v-453q112 3 151 130l25 -8q-20 -73 -67 -110.5t-109 -40.5v-90z" />
    <glyph glyph-name="sterling" unicode="&#xa3;" horiz-adv-x="531" 
d="M483 163q0 -86 -22 -129.5t-81 -43.5q-37 0 -96.5 23.5t-98.5 23.5q-54 0 -112 -47l-18 24q108 80 108 200q0 42 -14 87h-96v29h86q-6 15 -18.5 42.5t-19.5 44.5t-13 42t-6 48q0 97 56 145t143 48q76 0 126.5 -37t50.5 -99q0 -46 -40 -46q-18 0 -28 10.5t-10 27.5
q0 34 38 41q-34 71 -138 71q-64 0 -106.5 -35.5t-42.5 -108.5q0 -36 9.5 -67t27 -67.5t24.5 -59.5h177v-29h-169q7 -33 7 -64q0 -106 -65 -172q34 19 69 19q42 0 93 -21t80 -21q70 0 70 121h29z" />
    <glyph glyph-name="currency" unicode="&#xa4;" horiz-adv-x="511" 
d="M420 100l-69 68q-42 -34 -95 -34q-55 0 -95 34l-71 -68l-26 28l69 68q-33 41 -33 96t33 96l-69 68l26 29l71 -69q41 33 95 33q51 0 94 -33l70 69l26 -29l-68 -67q35 -43 35 -97q0 -53 -34 -97l67 -67zM256 406q-48 0 -79.5 -33.5t-31.5 -82.5q0 -48 31.5 -82t79.5 -34
q46 0 79 34t33 82t-33 82t-79 34z" />
    <glyph glyph-name="yen" unicode="&#xa5;" horiz-adv-x="668" 
d="M465 29v-29h-245v29h94v154h-169v29h169v80h-169v29h155l-204 340h-68v29h200v-29h-75l196 -327l186 327h-72v29h177v-29h-67l-193 -340h159v-29h-169v-80h169v-29h-169v-154h95z" />
    <glyph glyph-name="brokenbar" unicode="&#xa6;" horiz-adv-x="230" 
d="M134 400h-37v440h37v-440zM134 -250h-37v440h37v-440z" />
    <glyph glyph-name="section" unicode="&#xa7;" horiz-adv-x="527" 
d="M87 285q0 -43 31 -77t71 -54t96 -49.5t88 -55.5q31 16 49.5 45.5t18.5 60.5q0 43 -31.5 77t-72 53.5t-96.5 48.5t-88 56q-66 -40 -66 -105zM263 -260q-78 0 -128 35.5t-50 93.5q0 18 10.5 29.5t29.5 11.5q18 0 28 -11.5t10 -28.5q0 -30 -34 -39q32 -62 132 -62
q66 0 103 34t37 97q0 49 -36.5 86.5t-88.5 63t-104 52.5t-88.5 68.5t-36.5 96.5q0 42 22.5 80.5t62.5 63.5q-49 52 -49 124t51.5 118.5t132.5 46.5q78 0 126.5 -35.5t48.5 -93.5q0 -17 -10 -29t-28 -12q-19 0 -29.5 10.5t-10.5 28.5q0 15 10.5 26t24.5 13q-15 32 -52 47.5
t-80 15.5q-63 0 -101.5 -36.5t-38.5 -94.5q0 -37 19.5 -67.5t50.5 -51t68.5 -39.5t75.5 -38.5t69 -42t50.5 -55t19.5 -73.5q0 -43 -23.5 -83t-62.5 -62q51 -53 51 -123q0 -76 -51.5 -120.5t-130.5 -44.5z" />
    <glyph glyph-name="dieresis" unicode="&#xa8;" horiz-adv-x="502" 
d="M203 656q0 -13 -10 -26.5t-31 -13.5t-30.5 13t-9.5 27t9.5 27.5t30.5 13.5t31 -13.5t10 -27.5zM380 656q0 -13 -10 -26.5t-31 -13.5t-30.5 13t-9.5 27t9.5 27.5t30.5 13.5t31 -13.5t10 -27.5z" />
    <glyph glyph-name="copyright" unicode="&#xa9;" horiz-adv-x="800" 
d="M400 -10q-149 0 -247.5 104.5t-98.5 256.5q0 150 99 249.5t247 99.5q149 0 248 -99.5t99 -249.5q0 -151 -99.5 -256t-247.5 -105zM400 17q135 0 226.5 95t91.5 239q0 142 -91 232t-227 90t-226.5 -90t-90.5 -232q0 -145 90 -239.5t227 -94.5zM498 188q-30 -50 -104 -50
q-83 0 -125.5 62.5t-42.5 148.5q0 84 44.5 146t122.5 62q77 0 104 -47l11 47h20v-130h-28q-2 51 -29.5 78t-73.5 27q-54 0 -89 -48.5t-35 -134.5q0 -87 35 -136.5t94 -49.5q41 0 69 27.5t30 80.5h29v-133h-20z" />
    <glyph glyph-name="ordfeminine" unicode="&#xaa;" horiz-adv-x="331" 
d="M241 539q-42 0 -43 46q-22 -46 -82 -46q-24 0 -41 12.5t-17 37.5q0 52 104 76l34 8v15q0 61 -54 61q-45 0 -56 -30q9 0 15 -6t6 -13q0 -22 -22 -22q-23 0 -23 22q0 24 22 45t64 21q81 0 81 -72v-101q0 -35 20 -35t20 52h13q0 -37 -9 -54t-32 -17zM127 560q32 0 50.5 20
t18.5 48v30l-31 -7q-74 -15 -74 -58q0 -16 11.5 -24.5t24.5 -8.5z" />
    <glyph glyph-name="guillemotleft" unicode="&#xab;" horiz-adv-x="468" 
d="M270 60v-26l-229 213v23l229 191v-26l-163 -177zM408 101v-26l-194 172v22l194 153v-27l-132 -137z" />
    <glyph glyph-name="logicalnot" unicode="&#xac;" horiz-adv-x="579" 
d="M505 185h-34v133h-391v35h425v-168z" />
    <glyph glyph-name="uni00AD" unicode="&#xad;" horiz-adv-x="437" 
d="M70 288v35h298v-35h-298z" />
    <glyph glyph-name="registered" unicode="&#xae;" horiz-adv-x="607" 
d="M304 199q-105 0 -175 74t-70 182q0 105 70.5 175.5t174.5 70.5t174.5 -70.5t70.5 -175.5q0 -107 -70.5 -181.5t-174.5 -74.5zM304 226q90 0 153 66.5t63 162.5t-62.5 157.5t-153.5 61.5t-153.5 -61.5t-62.5 -157.5t62.5 -162.5t153.5 -66.5zM398 331q-38 0 -53 64
q-7 32 -19.5 42.5t-35.5 10.5h-33v-95h34v-18h-102v18h36v212h-36v18h111q97 0 97 -64q0 -25 -18.5 -43t-54.5 -19q24 -6 35 -18.5t18 -42.5q10 -45 27 -45q18 0 18 40h14q0 -60 -38 -60zM300 565h-43v-99h43q64 0 64 51q0 48 -64 48z" />
    <glyph glyph-name="macron" unicode="&#xaf;" horiz-adv-x="374" 
d="M70 638v32h234v-32h-234z" />
    <glyph glyph-name="degree" unicode="&#xb0;" horiz-adv-x="382" 
d="M192 433q-64 0 -102 38.5t-38 94.5q0 57 38.5 96t101.5 39q62 0 100.5 -39t38.5 -96q0 -56 -38.5 -94.5t-100.5 -38.5zM192 463q48 0 77.5 29.5t28.5 73.5q-1 45 -30.5 75t-75.5 30q-48 0 -77.5 -29.5t-29.5 -75.5q0 -43 30 -73t77 -30z" />
    <glyph glyph-name="plusminus" unicode="&#xb1;" horiz-adv-x="533" 
d="M453 409h-168v-180h-37v180h-168v35h168v180h37v-180h168v-35zM80 126v34h373v-34h-373z" />
    <glyph glyph-name="acute" unicode="&#xb4;" horiz-adv-x="365" 
d="M126 601h-23l68 100q38 55 62 55q28 0 28 -23q0 -19 -65 -69z" />
    <glyph glyph-name="mu" unicode="&#xb5;" horiz-adv-x="599" 
d="M168 -161q0 -15 -9 -26t-28 -11t-28.5 11t-9.5 26q0 16 7.5 168t7.5 189v266h-81v29q73 0 93.5 1.5t28.5 8.5l13 -7v-289q0 -177 136 -177q64 0 102 45.5t38 138.5v250h-87v29q74 0 97 1.5t30 8.5l13 -7v-462h82v-29q-60 0 -81 -2t-30 -11l-12 7v125q-35 -132 -170 -132
q-106 0 -147 81q2 -86 10.5 -136.5t16.5 -68.5t8 -27z" />
    <glyph glyph-name="paragraph" unicode="&#xb6;" horiz-adv-x="602" 
d="M546 -250h-352v29h89v490q-127 0 -191 64t-64 146q0 36 14 71.5t42.5 67.5t79 52t115.5 20h267v-29h-90v-882h90v-29zM419 661h-99v-882h99v882z" />
    <glyph glyph-name="periodcentered" unicode="&#xb7;" horiz-adv-x="223" 
d="M154 268q0 -14 -11 -27.5t-32 -13.5t-31.5 13.5t-10.5 27.5q0 15 10.5 28.5t31.5 13.5q22 0 32.5 -13.5t10.5 -28.5z" />
    <glyph glyph-name="cedilla" unicode="&#xb8;" horiz-adv-x="367" 
d="M175 -189q-41 0 -66 19v28q22 -19 55 -19q51 0 51 38q0 51 -78 51v12l21 60h32l-16 -45q83 -10 83 -74q0 -33 -21.5 -51.5t-60.5 -18.5z" />
    <glyph glyph-name="ordmasculine" unicode="&#xba;" horiz-adv-x="310" 
d="M258 652q0 -51 -30.5 -82t-73.5 -31t-72.5 30.5t-29.5 82.5t29.5 83t72.5 31t73.5 -31.5t30.5 -82.5zM86 652q0 -94 68 -94q70 0 70 94q0 45 -18 70t-52 25q-68 0 -68 -95z" />
    <glyph glyph-name="guillemotright" unicode="&#xbb;" horiz-adv-x="468" 
d="M198 60l163 198l-163 177v26l230 -191v-23l-230 -213v26zM60 101l132 157l-132 137v27l194 -153v-22l-194 -172v26z" />
    <glyph glyph-name="onequarter" unicode="&#xbc;" horiz-adv-x="837" 
d="M280 249h-229v24h90v341h-90v24q50 0 73.5 6.5t31 16.5t16.5 39h20v-427h88v-24zM203 0h-35l459 690h35zM801 0h-219v24h89v101h-229v21l243 295h37v-292h79v-24h-79v-101h79v-24zM476 149h195v236z" />
    <glyph glyph-name="onehalf" unicode="&#xbd;" horiz-adv-x="905" 
d="M280 249h-229v24h90v341h-90v24q50 0 73.5 6.5t31 16.5t16.5 39h20v-427h88v-24zM203 0h-35l459 690h35zM861 0h-330v28l92 73q94 74 127 119.5t33 101.5q0 105 -113 105q-32 0 -62.5 -16t-45.5 -49q19 -2 29 -12.5t10 -25.5t-9 -25.5t-26 -10.5q-37 0 -37 40
q0 48 44.5 85.5t116.5 37.5q77 0 111.5 -35.5t34.5 -85.5q0 -59 -33.5 -100.5t-131.5 -119.5l-92 -73h193q39 0 52 10t13 41v45h24v-133z" />
    <glyph glyph-name="threequarters" unicode="&#xbe;" horiz-adv-x="915" 
d="M279 0h-35l459 690h35zM878 0h-219v24h89v101h-229v21l243 304h37v-301h79v-24h-79v-101h79v-24zM553 149h195v245zM202 239q-75 0 -116 32.5t-41 75.5q0 44 38 44q34 0 34 -34q0 -29 -37 -39q13 -27 46 -41t71 -14q53 0 84.5 24.5t31.5 73.5q0 46 -33.5 72.5t-91.5 26.5
h-52v24h41q113 0 113 102q0 40 -26.5 65t-73.5 25q-35 0 -65 -14.5t-40 -39.5q41 -4 41 -37q0 -35 -36 -35q-37 0 -37 39q0 45 41.5 78t109.5 33q65 0 102 -30t37 -77q0 -94 -99 -117q62 -9 92.5 -39.5t30.5 -75.5q0 -49 -41.5 -85.5t-123.5 -36.5z" />
    <glyph glyph-name="questiondown" unicode="&#xbf;" horiz-adv-x="424" 
d="M234 -177q37 0 71.5 14.5t48.5 47.5q-34 9 -34 40q0 16 10.5 27t27.5 11q40 0 40 -43q0 -53 -47.5 -91.5t-127.5 -38.5q-85 0 -130 44t-45 114q0 40 19.5 75.5t47 62t55 51t47 51.5t19.5 55t-13 54h28q19 -27 19 -69q0 -34 -17.5 -63.5t-42.5 -52t-49.5 -45.5t-42 -55.5
t-17.5 -71.5q0 -117 133 -117zM193 460q0 14 11 27.5t32 13.5t31.5 -13.5t10.5 -27.5q0 -15 -10.5 -28.5t-31.5 -13.5q-22 0 -32.5 13.5t-10.5 28.5z" />
    <glyph glyph-name="Agrave" unicode="&#xc0;" horiz-adv-x="644" 
d="M443 251l-131 376l-131 -376h262zM182 0h-182v29h68l231 661h46l231 -661h71v-29h-202v29h76l-68 193h-282l-68 -193h79v-29zM305 740l-90 68q-47 34 -47 52q0 10 7.5 17t20.5 7t25.5 -10.5t35.5 -37.5l78 -96h-30z" />
    <glyph glyph-name="Aacute" unicode="&#xc1;" horiz-adv-x="644" 
d="M334 740l90 68q47 34 47 52q0 10 -7.5 17t-20.5 7q-21 0 -61 -48l-78 -96h30zM443 251l-131 376l-131 -376h262zM182 0h-182v29h68l231 661h46l231 -661h71v-29h-202v29h76l-68 193h-282l-68 -193h79v-29z" />
    <glyph glyph-name="Acircumflex" unicode="&#xc2;" horiz-adv-x="644" 
d="M443 251l-131 376l-131 -376h262zM182 0h-182v29h68l231 661h46l231 -661h71v-29h-202v29h76l-68 193h-282l-68 -193h79v-29zM219 740h-28l123 132h23l118 -132h-28l-102 86z" />
    <glyph glyph-name="Atilde" unicode="&#xc3;" horiz-adv-x="644" 
d="M443 251l-131 376l-131 -376h262zM182 0h-182v29h68l231 661h46l231 -661h71v-29h-202v29h76l-68 193h-282l-68 -193h79v-29zM255 820q-46 0 -46 -68h-23q0 49 18.5 76.5t54.5 27.5q31 0 69.5 -33.5t61.5 -33.5q45 0 45 67h23q0 -104 -73 -104q-33 0 -72 34t-58 34z" />
    <glyph glyph-name="Adieresis" unicode="&#xc4;" horiz-adv-x="644" 
d="M443 251l-131 376l-131 -376h262zM182 0h-182v29h68l231 661h46l231 -661h71v-29h-202v29h76l-68 193h-282l-68 -193h79v-29zM269 802q0 -13 -9 -25t-29 -12q-19 0 -27.5 12t-8.5 25t8.5 25.5t27.5 12.5q20 0 29 -12.5t9 -25.5zM449 802q0 -13 -9 -25t-29 -12
q-19 0 -27.5 12t-8.5 25t8.5 25.5t27.5 12.5q20 0 29 -12.5t9 -25.5z" />
    <glyph glyph-name="Aring" unicode="&#xc5;" horiz-adv-x="644" 
d="M443 251l-131 376l-131 -376h262zM182 0h-182v29h68l231 661h46l231 -661h71v-29h-202v29h76l-68 193h-282l-68 -193h79v-29zM322 733q-37 0 -63 22.5t-26 58.5t26 58.5t63 22.5t63 -22.5t26 -58.5t-26 -58.5t-63 -22.5zM322 759q24 0 42 15t18 40t-17.5 40t-42.5 15
t-42.5 -15t-17.5 -40t17.5 -40t42.5 -15z" />
    <glyph glyph-name="AE" unicode="&#xc6;" horiz-adv-x="891" 
d="M427 661h-35l-189 -412h224v412zM182 29v-29h-189v29h73l290 632h-80v29h544v-186h-35v71q0 52 -22 69t-77 17h-203v-295l227 6v-39l-227 5v-309h222q53 0 71 20t18 71v71h35v-191h-491v29h89v192h-237l-88 -192h80z" />
    <glyph glyph-name="Ccedilla" unicode="&#xc7;" horiz-adv-x="624" 
d="M348 -189q-41 0 -66 19v28q22 -19 55 -19q51 0 51 38q0 51 -78 51v12l18 50q-91 3 -154.5 56t-91.5 130.5t-28 169.5q0 93 31 172t96 130.5t153 51.5q112 0 176 -71l21 70h28v-217h-35q0 91 -51 138.5t-136 47.5q-98 0 -161 -83t-63 -239q0 -155 62 -239.5t168 -84.5
q78 0 131.5 48.5t53.5 141.5h34v-222h-27l-22 76q-53 -65 -153 -75l-13 -36q83 -10 83 -74q0 -33 -21.5 -51.5t-60.5 -18.5z" />
    <glyph glyph-name="Egrave" unicode="&#xc8;" horiz-adv-x="605" 
d="M52 0v29h90v632h-90v29h483v-186h-35v71q0 52 -21.5 69t-77.5 17h-203v-295l227 6v-39l-227 5v-309h222q52 0 70 20t18 71v71h35v-191h-491zM330 740l-90 68q-47 34 -47 52q0 10 7.5 17t20.5 7q21 0 61 -48l78 -96h-30z" />
    <glyph glyph-name="Eacute" unicode="&#xc9;" horiz-adv-x="605" 
d="M52 0v29h90v632h-90v29h483v-186h-35v71q0 52 -21.5 69t-77.5 17h-203v-295l227 6v-39l-227 5v-309h222q52 0 70 20t18 71v71h35v-191h-491zM325 740l90 68q47 34 47 52q0 10 -7.5 17t-20.5 7t-25.5 -10.5t-35.5 -37.5l-78 -96h30z" />
    <glyph glyph-name="Ecircumflex" unicode="&#xca;" horiz-adv-x="605" 
d="M52 0v29h90v632h-90v29h483v-186h-35v71q0 52 -21.5 69t-77.5 17h-203v-295l227 6v-39l-227 5v-309h222q52 0 70 20t18 71v71h35v-191h-491zM220 740h-28l123 132h23l118 -132h-28l-102 86z" />
    <glyph glyph-name="Edieresis" unicode="&#xcb;" horiz-adv-x="605" 
d="M52 0v29h90v632h-90v29h483v-186h-35v71q0 52 -21.5 69t-77.5 17h-203v-295l227 6v-39l-227 5v-309h222q52 0 70 20t18 71v71h35v-191h-491zM269 802q0 -13 -9 -25t-29 -12q-19 0 -27.5 12t-8.5 25t8.5 25.5t27.5 12.5q20 0 29 -12.5t9 -25.5zM449 802q0 -13 -9 -25
t-29 -12q-19 0 -27.5 12t-8.5 25t8.5 25.5t27.5 12.5q20 0 29 -12.5t9 -25.5z" />
    <glyph glyph-name="Igrave" unicode="&#xcc;" horiz-adv-x="339" 
d="M287 0h-235v29h90v632h-90v29h235v-29h-89v-632h89v-29zM170 740l-90 68q-47 34 -47 52q0 10 7.5 17t20.5 7q21 0 61 -48l78 -96h-30z" />
    <glyph glyph-name="Iacute" unicode="&#xcd;" horiz-adv-x="339" 
d="M173 740l90 68q47 34 47 52q0 10 -7.5 17t-20.5 7t-25.5 -10.5t-35.5 -37.5l-78 -96h30zM287 0h-235v29h90v632h-90v29h235v-29h-89v-632h89v-29z" />
    <glyph glyph-name="Icircumflex" unicode="&#xce;" horiz-adv-x="339" 
d="M64 740h-28l123 132h23l118 -132h-28l-102 86zM287 0h-235v29h90v632h-90v29h235v-29h-89v-632h89v-29z" />
    <glyph glyph-name="Idieresis" unicode="&#xcf;" horiz-adv-x="339" 
d="M117 802q0 -13 -9 -25t-29 -12q-19 0 -27.5 12t-8.5 25t8.5 25.5t27.5 12.5q20 0 29 -12.5t9 -25.5zM297 802q0 -13 -9 -25t-29 -12q-19 0 -27.5 12t-8.5 25t8.5 25.5t27.5 12.5q20 0 29 -12.5t9 -25.5zM287 0h-235v29h90v632h-90v29h235v-29h-89v-632h89v-29z" />
    <glyph glyph-name="Eth" unicode="&#xd0;" horiz-adv-x="682" 
d="M296 0h-244v29h90v309h-98v29h98v294h-90v29h244q106 0 184 -50.5t114 -127t36 -166.5t-36 -167t-113.5 -128t-184.5 -51zM198 29h91q124 0 203 83t79 234q0 149 -79.5 232t-202.5 83h-91v-294h177v-29h-177v-309z" />
    <glyph glyph-name="Ntilde" unicode="&#xd1;" horiz-adv-x="739" 
d="M271 29v-29h-219v29h90v632h-90v29h143l372 -592v563h-90v29h219v-29h-90v-666h-32l-393 625v-591h90zM304 820q-46 0 -46 -68h-23q0 49 18.5 76.5t54.5 27.5q31 0 69.5 -33.5t61.5 -33.5q45 0 45 67h23q0 -104 -73 -104q-33 0 -72 34t-58 34z" />
    <glyph glyph-name="Ograve" unicode="&#xd2;" horiz-adv-x="686" 
d="M632 345q0 -148 -77.5 -251.5t-211.5 -103.5q-90 0 -157.5 50.5t-99.5 130t-32 174.5t32 174.5t99.5 130t157.5 50.5q134 0 211.5 -103.5t77.5 -251.5zM113 345q0 -152 64 -237.5t166 -85.5t166 86t64 237t-64 237t-166 86t-166 -86t-64 -237zM341 740l-90 68
q-47 34 -47 52q0 10 7.5 17t20.5 7t25.5 -10.5t35.5 -37.5l78 -96h-30z" />
    <glyph glyph-name="Oacute" unicode="&#xd3;" horiz-adv-x="686" 
d="M632 345q0 -148 -77.5 -251.5t-211.5 -103.5q-90 0 -157.5 50.5t-99.5 130t-32 174.5t32 174.5t99.5 130t157.5 50.5q134 0 211.5 -103.5t77.5 -251.5zM113 345q0 -152 64 -237.5t166 -85.5t166 86t64 237t-64 237t-166 86t-166 -86t-64 -237zM351 740l90 68q47 34 47 52
q0 10 -7.5 17t-20.5 7t-25.5 -10.5t-35.5 -37.5l-78 -96h30z" />
    <glyph glyph-name="Ocircumflex" unicode="&#xd4;" horiz-adv-x="686" 
d="M632 345q0 -148 -77.5 -251.5t-211.5 -103.5q-90 0 -157.5 50.5t-99.5 130t-32 174.5t32 174.5t99.5 130t157.5 50.5q134 0 211.5 -103.5t77.5 -251.5zM113 345q0 -152 64 -237.5t166 -85.5t166 86t64 237t-64 237t-166 86t-166 -86t-64 -237zM237 740h-28l123 132h23
l118 -132h-28l-102 86z" />
    <glyph glyph-name="Otilde" unicode="&#xd5;" horiz-adv-x="686" 
d="M632 345q0 -148 -77.5 -251.5t-211.5 -103.5q-90 0 -157.5 50.5t-99.5 130t-32 174.5t32 174.5t99.5 130t157.5 50.5q134 0 211.5 -103.5t77.5 -251.5zM113 345q0 -152 64 -237.5t166 -85.5t166 86t64 237t-64 237t-166 86t-166 -86t-64 -237zM277 820q-46 0 -46 -68h-23
q0 49 18.5 76.5t54.5 27.5q31 0 69.5 -33.5t61.5 -33.5q45 0 45 67h23q0 -104 -73 -104q-33 0 -72 34t-58 34z" />
    <glyph glyph-name="Odieresis" unicode="&#xd6;" horiz-adv-x="686" 
d="M632 345q0 -148 -77.5 -251.5t-211.5 -103.5q-90 0 -157.5 50.5t-99.5 130t-32 174.5t32 174.5t99.5 130t157.5 50.5q134 0 211.5 -103.5t77.5 -251.5zM113 345q0 -152 64 -237.5t166 -85.5t166 86t64 237t-64 237t-166 86t-166 -86t-64 -237zM291 802q0 -13 -9 -25
t-29 -12q-19 0 -27.5 12t-8.5 25t8.5 25.5t27.5 12.5q20 0 29 -12.5t9 -25.5zM471 802q0 -13 -9 -25t-29 -12q-19 0 -27.5 12t-8.5 25t8.5 25.5t27.5 12.5q20 0 29 -12.5t9 -25.5z" />
    <glyph glyph-name="multiply" unicode="&#xd7;" horiz-adv-x="466" 
d="M376 164l-145 144l-145 -144l-22 24l144 143l-144 142l25 25l144 -143l145 143l22 -23l-144 -142l145 -144z" />
    <glyph glyph-name="Oslash" unicode="&#xd8;" horiz-adv-x="697" 
d="M116 345q0 -142 58 -229l334 471q-61 81 -162 81q-102 0 -166 -86t-64 -237zM346 22q102 0 166 86t64 237q0 131 -50 215l-332 -470q60 -68 152 -68zM346 -10q-103 0 -177 66l-66 -94h-38l82 116q-90 102 -90 267q0 95 32 174.5t99.5 130t157.5 50.5q113 0 188 -77
l72 101h37l-88 -124q80 -100 80 -255q0 -148 -77.5 -251.5t-211.5 -103.5z" />
    <glyph glyph-name="Ugrave" unicode="&#xd9;" horiz-adv-x="722" 
d="M596 242q0 -252 -230 -252q-119 0 -180 67.5t-61 185.5v418h-89v29h234v-29h-89v-417q0 -104 48 -162t144 -58q184 0 184 222v415h-90v29h219v-29h-90v-419zM368 740l-90 68q-47 34 -47 52q0 10 7.5 17t20.5 7q21 0 61 -48l78 -96h-30z" />
    <glyph glyph-name="Uacute" unicode="&#xda;" horiz-adv-x="722" 
d="M596 242q0 -252 -230 -252q-119 0 -180 67.5t-61 185.5v418h-89v29h234v-29h-89v-417q0 -104 48 -162t144 -58q184 0 184 222v415h-90v29h219v-29h-90v-419zM380 740l90 68q47 34 47 52q0 10 -7.5 17t-20.5 7q-21 0 -61 -48l-78 -96h30z" />
    <glyph glyph-name="Ucircumflex" unicode="&#xdb;" horiz-adv-x="722" 
d="M596 242q0 -252 -230 -252q-119 0 -180 67.5t-61 185.5v418h-89v29h234v-29h-89v-417q0 -104 48 -162t144 -58q184 0 184 222v415h-90v29h219v-29h-90v-419zM262 740h-28l123 132h23l118 -132h-28l-102 86z" />
    <glyph glyph-name="Udieresis" unicode="&#xdc;" horiz-adv-x="722" 
d="M596 242q0 -252 -230 -252q-119 0 -180 67.5t-61 185.5v418h-89v29h234v-29h-89v-417q0 -104 48 -162t144 -58q184 0 184 222v415h-90v29h219v-29h-90v-419zM319 802q0 -13 -9 -25t-29 -12q-19 0 -27.5 12t-8.5 25t8.5 25.5t27.5 12.5q20 0 29 -12.5t9 -25.5zM499 802
q0 -13 -9 -25t-29 -12q-19 0 -27.5 12t-8.5 25t8.5 25.5t27.5 12.5q20 0 29 -12.5t9 -25.5z" />
    <glyph glyph-name="Yacute" unicode="&#xdd;" horiz-adv-x="612" 
d="M432 29v-29h-245v29h94v269l-218 363h-68v29h200v-29h-75l196 -327l186 327h-72v29h177v-29h-67l-203 -358v-274h95zM323 740l90 68q47 34 47 52q0 10 -7.5 17t-20.5 7t-25.5 -10.5t-35.5 -37.5l-78 -96h30z" />
    <glyph glyph-name="Thorn" unicode="&#xde;" horiz-adv-x="585" 
d="M198 572h51q137 0 217 -50t80 -155q0 -106 -79.5 -161t-216.5 -55h-52v-122h90v-29h-237v29h91v632h-91v29h237v-29h-90v-89zM487 367q0 176 -237 176h-52v-363h51q238 0 238 187z" />
    <glyph glyph-name="germandbls" unicode="&#xdf;" horiz-adv-x="543" 
d="M332 -10q-27 0 -49.5 4t-30.5 8l-9 4v30q27 -18 81 -18q59 0 89 36.5t30 91.5q0 41 -17 71.5t-41 48t-47.5 33.5t-40.5 39t-17 54q0 28 18.5 54t40.5 45.5t40.5 56t18.5 82.5q0 45 -28.5 73t-77.5 28q-127 0 -127 -166v-565h-123v29h70v433h-70v29h70v50q0 99 44.5 159
t138.5 60q77 0 118 -35t41 -95q0 -44 -22 -81t-48 -57.5t-48 -47t-22 -51.5q0 -24 19 -43.5t46 -35t54.5 -34.5t46.5 -53t19 -79q0 -72 -43 -115t-124 -43z" />
    <glyph glyph-name="agrave" unicode="&#xe0;" horiz-adv-x="537" 
d="M446 -10q-82 0 -79 112q-39 -112 -170 -112q-65 0 -107 33.5t-42 99.5q0 154 252 154h63v49q0 147 -132 147q-43 0 -79 -17.5t-50 -49.5q34 -4 34 -33q0 -16 -9.5 -25t-25.5 -9q-17 0 -26.5 9.5t-9.5 26.5q0 51 50 88.5t127 37.5q174 0 174 -179v-226q0 -68 45 -68
q46 0 46 95h24q0 -68 -20 -100.5t-65 -32.5zM214 25q64 0 106.5 39t42.5 110v76h-63q-196 0 -196 -120q0 -52 31 -78.5t79 -26.5zM267 601l-71 63q-64 50 -64 69q0 23 27 23q26 0 62 -55l69 -100h-23z" />
    <glyph glyph-name="aacute" unicode="&#xe1;" horiz-adv-x="537" 
d="M446 -10q-82 0 -79 112q-39 -112 -170 -112q-65 0 -107 33.5t-42 99.5q0 154 252 154h63v49q0 147 -132 147q-43 0 -79 -17.5t-50 -49.5q34 -4 34 -33q0 -16 -9.5 -25t-25.5 -9q-17 0 -26.5 9.5t-9.5 26.5q0 51 50 88.5t127 37.5q174 0 174 -179v-226q0 -68 45 -68
q46 0 46 95h24q0 -68 -20 -100.5t-65 -32.5zM214 25q64 0 106.5 39t42.5 110v76h-63q-196 0 -196 -120q0 -52 31 -78.5t79 -26.5zM256 601h-23l68 100q38 55 62 55q28 0 28 -23q0 -19 -65 -69z" />
    <glyph glyph-name="acircumflex" unicode="&#xe2;" horiz-adv-x="537" 
d="M446 -10q-82 0 -79 112q-39 -112 -170 -112q-65 0 -107 33.5t-42 99.5q0 154 252 154h63v49q0 147 -132 147q-43 0 -79 -17.5t-50 -49.5q34 -4 34 -33q0 -16 -9.5 -25t-25.5 -9q-17 0 -26.5 9.5t-9.5 26.5q0 51 50 88.5t127 37.5q174 0 174 -179v-226q0 -68 45 -68
q46 0 46 95h24q0 -68 -20 -100.5t-65 -32.5zM214 25q64 0 106.5 39t42.5 110v76h-63q-196 0 -196 -120q0 -52 31 -78.5t79 -26.5zM135 601h-28l135 159h16l131 -159h-28l-111 107z" />
    <glyph glyph-name="atilde" unicode="&#xe3;" horiz-adv-x="537" 
d="M446 -10q-82 0 -79 112q-39 -112 -170 -112q-65 0 -107 33.5t-42 99.5q0 154 252 154h63v49q0 147 -132 147q-43 0 -79 -17.5t-50 -49.5q34 -4 34 -33q0 -16 -9.5 -25t-25.5 -9q-17 0 -26.5 9.5t-9.5 26.5q0 51 50 88.5t127 37.5q174 0 174 -179v-226q0 -68 45 -68
q46 0 46 95h24q0 -68 -20 -100.5t-65 -32.5zM214 25q64 0 106.5 39t42.5 110v76h-63q-196 0 -196 -120q0 -52 31 -78.5t79 -26.5zM312 618q-27 0 -50.5 18t-44 35.5t-40.5 17.5q-48 0 -48 -67h-23q0 50 19 79.5t56 29.5q28 0 51.5 -17.5t44 -35.5t40.5 -18q47 0 47 67h23
q0 -55 -17.5 -82t-57.5 -27z" />
    <glyph glyph-name="adieresis" unicode="&#xe4;" horiz-adv-x="537" 
d="M446 -10q-82 0 -79 112q-39 -112 -170 -112q-65 0 -107 33.5t-42 99.5q0 154 252 154h63v49q0 147 -132 147q-43 0 -79 -17.5t-50 -49.5q34 -4 34 -33q0 -16 -9.5 -25t-25.5 -9q-17 0 -26.5 9.5t-9.5 26.5q0 51 50 88.5t127 37.5q174 0 174 -179v-226q0 -68 45 -68
q46 0 46 95h24q0 -68 -20 -100.5t-65 -32.5zM214 25q64 0 106.5 39t42.5 110v76h-63q-196 0 -196 -120q0 -52 31 -78.5t79 -26.5zM189 656q0 -13 -10 -26.5t-31 -13.5t-30.5 13t-9.5 27t9.5 27.5t30.5 13.5t31 -13.5t10 -27.5zM366 656q0 -13 -10 -26.5t-31 -13.5t-30.5 13
t-9.5 27t9.5 27.5t30.5 13.5t31 -13.5t10 -27.5z" />
    <glyph glyph-name="aring" unicode="&#xe5;" horiz-adv-x="537" 
d="M446 -10q-82 0 -79 112q-39 -112 -170 -112q-65 0 -107 33.5t-42 99.5q0 154 252 154h63v49q0 147 -132 147q-43 0 -79 -17.5t-50 -49.5q34 -4 34 -33q0 -16 -9.5 -25t-25.5 -9q-17 0 -26.5 9.5t-9.5 26.5q0 51 50 88.5t127 37.5q174 0 174 -179v-226q0 -68 45 -68
q46 0 46 95h24q0 -68 -20 -100.5t-65 -32.5zM214 25q64 0 106.5 39t42.5 110v76h-63q-196 0 -196 -120q0 -52 31 -78.5t79 -26.5zM247 590q-40 0 -66 25.5t-26 65.5q0 39 26 64.5t66 25.5t66.5 -25.5t26.5 -64.5q0 -40 -26 -65.5t-67 -25.5zM247 620q27 0 44 16.5t17 44.5
q0 27 -17 44t-44 17q-26 0 -43 -17t-17 -44t16.5 -44t43.5 -17z" />
    <glyph glyph-name="ae" unicode="&#xe6;" horiz-adv-x="835" 
d="M591 -10q-75 0 -127.5 38.5t-74.5 108.5q-17 -71 -66.5 -109t-119.5 -38q-69 0 -112 33.5t-43 99.5q0 154 252 154h63v49q0 147 -132 147q-45 0 -82.5 -18.5t-46.5 -50.5q17 0 25.5 -9.5t8.5 -21.5q0 -16 -9.5 -25t-25.5 -9q-17 0 -26.5 9.5t-9.5 26.5q0 51 50 88.5
t127 37.5q135 0 161 -114q26 53 72 83.5t106 30.5q99 0 153.5 -65t54.5 -162v-22h-370v-10q0 -102 44.5 -162.5t130.5 -60.5q129 0 165 125l24 -8q-17 -71 -67 -108.5t-125 -37.5zM581 475q-75 0 -116.5 -56.5t-45.5 -141.5h314q-2 85 -40 141.5t-112 56.5zM214 25
q70 0 109.5 44.5t39.5 127.5v55h-63q-197 3 -197 -122q0 -52 31.5 -78.5t79.5 -26.5z" />
    <glyph glyph-name="ccedilla" unicode="&#xe7;" horiz-adv-x="492" 
d="M270 -189q-41 0 -66 19v28q22 -19 55 -19q51 0 51 38q0 51 -78 51v12l18 51q-88 7 -144.5 75t-56.5 178q0 121 64.5 189t158.5 68q73 0 121 -39t48 -97q0 -19 -9.5 -30.5t-25.5 -11.5q-17 0 -27.5 9t-10.5 25t10 27t30 11q-13 35 -48 56t-82 21q-78 0 -125.5 -60.5
t-47.5 -167.5q0 -106 47 -165.5t121 -59.5q116 0 157 130l25 -8q-19 -72 -65.5 -109.5t-107.5 -41.5l-13 -35q83 -10 83 -74q0 -33 -21.5 -51.5t-60.5 -18.5z" />
    <glyph glyph-name="egrave" unicode="&#xe8;" horiz-adv-x="522" 
d="M278 -10q-104 0 -166 70t-62 188q0 112 61 182.5t157 70.5q99 0 153.5 -65t54.5 -162v-22h-370v-10q0 -102 44.5 -162.5t130.5 -60.5q129 0 165 125l24 -8q-17 -71 -67 -108.5t-125 -37.5zM268 475q-75 0 -116.5 -56.5t-45.5 -141.5h314q-2 85 -40 141.5t-112 56.5z
M265 601l-71 63q-64 50 -64 69q0 23 27 23q26 0 62 -55l69 -100h-23z" />
    <glyph glyph-name="eacute" unicode="&#xe9;" horiz-adv-x="522" 
d="M278 -10q-104 0 -166 70t-62 188q0 112 61 182.5t157 70.5q99 0 153.5 -65t54.5 -162v-22h-370v-10q0 -102 44.5 -162.5t130.5 -60.5q129 0 165 125l24 -8q-17 -71 -67 -108.5t-125 -37.5zM268 475q-75 0 -116.5 -56.5t-45.5 -141.5h314q-2 85 -40 141.5t-112 56.5z
M267 601h-23l68 100q38 55 62 55q28 0 28 -23q0 -19 -65 -69z" />
    <glyph glyph-name="ecircumflex" unicode="&#xea;" horiz-adv-x="522" 
d="M278 -10q-104 0 -166 70t-62 188q0 112 61 182.5t157 70.5q99 0 153.5 -65t54.5 -162v-22h-370v-10q0 -102 44.5 -162.5t130.5 -60.5q129 0 165 125l24 -8q-17 -71 -67 -108.5t-125 -37.5zM268 475q-75 0 -116.5 -56.5t-45.5 -141.5h314q-2 85 -40 141.5t-112 56.5z
M152 601h-28l135 159h16l131 -159h-28l-111 107z" />
    <glyph glyph-name="edieresis" unicode="&#xeb;" horiz-adv-x="522" 
d="M278 -10q-104 0 -166 70t-62 188q0 112 61 182.5t157 70.5q99 0 153.5 -65t54.5 -162v-22h-370v-10q0 -102 44.5 -162.5t130.5 -60.5q129 0 165 125l24 -8q-17 -71 -67 -108.5t-125 -37.5zM268 475q-75 0 -116.5 -56.5t-45.5 -141.5h314q-2 85 -40 141.5t-112 56.5z
M218 656q0 -13 -10 -26.5t-31 -13.5t-30.5 13t-9.5 27t9.5 27.5t30.5 13.5t31 -13.5t10 -27.5zM395 656q0 -13 -10 -26.5t-31 -13.5t-30.5 13t-9.5 27t9.5 27.5t30.5 13.5t31 -13.5t10 -27.5z" />
    <glyph glyph-name="igrave" unicode="&#xec;" horiz-adv-x="284" 
d="M172 494v-465h82v-29h-216v29h81v433h-81v29q71 0 91.5 1.5t30.5 8.5zM133 601l-71 63q-64 50 -64 69q0 23 27 23q26 0 62 -55l69 -100h-23z" />
    <glyph glyph-name="iacute" unicode="&#xed;" horiz-adv-x="284" 
d="M157 601h-23l68 100q38 55 62 55q28 0 28 -23q0 -19 -65 -69zM172 494v-465h82v-29h-216v29h81v433h-81v29q71 0 91.5 1.5t30.5 8.5z" />
    <glyph glyph-name="icircumflex" unicode="&#xee;" horiz-adv-x="284" 
d="M19 601h-28l135 159h16l131 -159h-28l-111 107zM172 494v-465h82v-29h-216v29h81v433h-81v29q71 0 91.5 1.5t30.5 8.5z" />
    <glyph glyph-name="idieresis" unicode="&#xef;" horiz-adv-x="284" 
d="M91 656q0 -13 -10 -26.5t-31 -13.5t-30.5 13t-9.5 27t9.5 27.5t30.5 13.5t31 -13.5t10 -27.5zM268 656q0 -13 -10 -26.5t-31 -13.5t-30.5 13t-9.5 27t9.5 27.5t30.5 13.5t31 -13.5t10 -27.5zM172 494v-465h82v-29h-216v29h81v433h-81v29q71 0 91.5 1.5t30.5 8.5z" />
    <glyph glyph-name="eth" unicode="&#xf0;" horiz-adv-x="559" 
d="M274 -10q-102 0 -164 74.5t-62 181.5q0 105 63 180t166 75q89 0 140 -40q-32 116 -106 190l-96 -81h-40l117 99q-59 51 -132 68v23q86 -14 159 -69l76 64h40l-96 -81q75 -67 115.5 -167.5t40.5 -203.5q0 -152 -57 -232.5t-164 -80.5zM274 19q165 0 165 284q0 53 -9 104
q-44 65 -149 65q-86 0 -131.5 -68t-45.5 -158q0 -92 43.5 -159.5t126.5 -67.5z" />
    <glyph glyph-name="ntilde" unicode="&#xf1;" horiz-adv-x="602" 
d="M249 29v-29h-214v29h82v433h-82v29q65 0 82.5 1.5t28.5 8.5l12 -7v-126q14 58 57 95.5t112 37.5q172 0 172 -203v-269h82v-29h-214v29h79v269q0 164 -137 164q-65 0 -102 -43t-37 -132v-258h79zM375 618q-27 0 -50.5 18t-44 35.5t-40.5 17.5q-48 0 -48 -67h-23
q0 50 19 79.5t56 29.5q28 0 51.5 -17.5t44 -35.5t40.5 -18q47 0 47 67h23q0 -55 -17.5 -82t-57.5 -27z" />
    <glyph glyph-name="ograve" unicode="&#xf2;" horiz-adv-x="543" 
d="M272 -10q-97 0 -160 71t-63 184t63 184.5t160 71.5t159.5 -71.5t62.5 -184.5t-62.5 -184t-159.5 -71zM272 472q-78 0 -122.5 -63t-44.5 -164q0 -100 44.5 -163t122.5 -63t122 62.5t44 163.5t-44 164t-122 63zM289 601l-71 63q-64 50 -64 69q0 23 27 23q26 0 62 -55
l69 -100h-23z" />
    <glyph glyph-name="oacute" unicode="&#xf3;" horiz-adv-x="543" 
d="M272 -10q-97 0 -160 71t-63 184t63 184.5t160 71.5t159.5 -71.5t62.5 -184.5t-62.5 -184t-159.5 -71zM272 472q-78 0 -122.5 -63t-44.5 -164q0 -100 44.5 -163t122.5 -63t122 62.5t44 163.5t-44 164t-122 63zM273 601h-23l68 100q38 55 62 55q28 0 28 -23q0 -19 -65 -69z
" />
    <glyph glyph-name="ocircumflex" unicode="&#xf4;" horiz-adv-x="543" 
d="M157 601h-28l135 159h16l131 -159h-28l-111 107zM272 -10q-97 0 -160 71t-63 184t63 184.5t160 71.5t159.5 -71.5t62.5 -184.5t-62.5 -184t-159.5 -71zM272 472q-78 0 -122.5 -63t-44.5 -164q0 -100 44.5 -163t122.5 -63t122 62.5t44 163.5t-44 164t-122 63z" />
    <glyph glyph-name="otilde" unicode="&#xf5;" horiz-adv-x="543" 
d="M272 -10q-97 0 -160 71t-63 184t63 184.5t160 71.5t159.5 -71.5t62.5 -184.5t-62.5 -184t-159.5 -71zM272 472q-78 0 -122.5 -63t-44.5 -164q0 -100 44.5 -163t122.5 -63t122 62.5t44 163.5t-44 164t-122 63zM337 618q-27 0 -50.5 18t-44 35.5t-40.5 17.5q-48 0 -48 -67
h-23q0 50 19 79.5t56 29.5q28 0 51.5 -17.5t44 -35.5t40.5 -18q47 0 47 67h23q0 -55 -17.5 -82t-57.5 -27z" />
    <glyph glyph-name="odieresis" unicode="&#xf6;" horiz-adv-x="543" 
d="M272 -10q-97 0 -160 71t-63 184t63 184.5t160 71.5t159.5 -71.5t62.5 -184.5t-62.5 -184t-159.5 -71zM272 472q-78 0 -122.5 -63t-44.5 -164q0 -100 44.5 -163t122.5 -63t122 62.5t44 163.5t-44 164t-122 63zM222 656q0 -13 -10 -26.5t-31 -13.5t-30.5 13t-9.5 27
t9.5 27.5t30.5 13.5t31 -13.5t10 -27.5zM399 656q0 -13 -10 -26.5t-31 -13.5t-30.5 13t-9.5 27t9.5 27.5t30.5 13.5t31 -13.5t10 -27.5z" />
    <glyph glyph-name="divide" unicode="&#xf7;" horiz-adv-x="539" 
d="M312 499q0 -14 -11 -27.5t-32 -13.5t-31.5 13.5t-10.5 27.5q0 15 10.5 28.5t31.5 13.5q22 0 32.5 -13.5t10.5 -28.5zM65 344h409v-34h-409v34zM312 151q0 -14 -11 -27.5t-32 -13.5t-31.5 13.5t-10.5 27.5q0 15 10.5 28.5t31.5 13.5q22 0 32.5 -13.5t10.5 -28.5z" />
    <glyph glyph-name="oslash" unicode="&#xf8;" horiz-adv-x="543" 
d="M105 245q0 -101 44 -163l232 342q-42 48 -109 48q-78 0 -122.5 -63t-44.5 -164zM272 19q78 0 122 62.5t44 163.5q0 94 -38 155l-232 -340q43 -41 104 -41zM272 -10q-70 0 -125 39l-51 -75h-34l63 93q-76 73 -76 198q0 113 63 184.5t160 71.5q74 0 131 -44l54 79h35
l-67 -99q69 -72 69 -192q0 -113 -62.5 -184t-159.5 -71z" />
    <glyph glyph-name="ugrave" unicode="&#xf9;" horiz-adv-x="592" 
d="M444 -3v125q-35 -132 -170 -132q-172 0 -172 206v266h-81v29q73 0 93.5 1.5t28.5 8.5l13 -7v-289q0 -177 136 -177q64 0 102 45.5t38 138.5v250h-87v29q74 0 97 1.5t30 8.5l13 -7v-462h82v-29q-60 0 -81 -2t-30 -11zM290 601l-71 63q-64 50 -64 69q0 23 27 23
q26 0 62 -55l69 -100h-23z" />
    <glyph glyph-name="uacute" unicode="&#xfa;" horiz-adv-x="592" 
d="M444 -3v125q-35 -132 -170 -132q-172 0 -172 206v266h-81v29q73 0 93.5 1.5t28.5 8.5l13 -7v-289q0 -177 136 -177q64 0 102 45.5t38 138.5v250h-87v29q74 0 97 1.5t30 8.5l13 -7v-462h82v-29q-60 0 -81 -2t-30 -11zM294 601h-23l68 100q38 55 62 55q28 0 28 -23
q0 -19 -65 -69z" />
    <glyph glyph-name="ucircumflex" unicode="&#xfb;" horiz-adv-x="592" 
d="M444 -3v125q-35 -132 -170 -132q-172 0 -172 206v266h-81v29q73 0 93.5 1.5t28.5 8.5l13 -7v-289q0 -177 136 -177q64 0 102 45.5t38 138.5v250h-87v29q74 0 97 1.5t30 8.5l13 -7v-462h82v-29q-60 0 -81 -2t-30 -11zM172 600h-28l135 159h16l131 -159h-28l-111 107z" />
    <glyph glyph-name="udieresis" unicode="&#xfc;" horiz-adv-x="592" 
d="M444 -3v125q-35 -132 -170 -132q-172 0 -172 206v266h-81v29q73 0 93.5 1.5t28.5 8.5l13 -7v-289q0 -177 136 -177q64 0 102 45.5t38 138.5v250h-87v29q74 0 97 1.5t30 8.5l13 -7v-462h82v-29q-60 0 -81 -2t-30 -11zM232 639q0 -13 -10 -26.5t-31 -13.5t-30.5 13t-9.5 27
t9.5 27.5t30.5 13.5t31 -13.5t10 -27.5zM409 639q0 -13 -10 -26.5t-31 -13.5t-30.5 13t-9.5 27t9.5 27.5t30.5 13.5t31 -13.5t10 -27.5z" />
    <glyph glyph-name="yacute" unicode="&#xfd;" horiz-adv-x="538" 
d="M113 -260q-48 0 -75.5 26.5t-27.5 67.5q0 20 11 32t28 12q14 0 24 -9t10 -24q0 -18 -10.5 -28.5t-26.5 -10.5q14 -38 65 -38q46 0 70.5 41t83.5 192l-193 461h-65v29h187v-29h-64l163 -389l146 389h-66v29h160v-29h-63l-179 -476q-57 -152 -88.5 -199t-89.5 -47zM303 601
h-23l68 100q38 55 62 55q28 0 28 -23q0 -19 -65 -69z" />
    <glyph glyph-name="thorn" unicode="&#xfe;" horiz-adv-x="566" 
d="M300 19q74 0 117.5 62.5t43.5 164.5q1 105 -44 165.5t-116 60.5t-117 -58t-46 -165v-16q0 -98 44.5 -156t117.5 -58zM84 721h-81v29q73 0 93.5 1.5t29.5 8.5l11 -7v-99q0 -231 -3 -292q16 63 63 101t113 38q85 0 146 -68t61 -186q0 -114 -61.5 -185.5t-153.5 -71.5
q-60 0 -102.5 32t-62.5 81v-324h93v-29h-227v29h81v942z" />
    <glyph glyph-name="ydieresis" unicode="&#xff;" horiz-adv-x="538" 
d="M113 -260q-48 0 -75.5 26.5t-27.5 67.5q0 20 11 32t28 12q14 0 24 -9t10 -24q0 -18 -10.5 -28.5t-26.5 -10.5q14 -38 65 -38q46 0 70.5 41t83.5 192l-193 461h-65v29h187v-29h-64l163 -389l146 389h-66v29h160v-29h-63l-179 -476q-57 -152 -88.5 -199t-89.5 -47zM246 656
q0 -13 -10 -26.5t-31 -13.5t-30.5 13t-9.5 27t9.5 27.5t30.5 13.5t31 -13.5t10 -27.5zM423 656q0 -13 -10 -26.5t-31 -13.5t-30.5 13t-9.5 27t9.5 27.5t30.5 13.5t31 -13.5t10 -27.5z" />
    <glyph glyph-name="uni0100" unicode="&#x100;" horiz-adv-x="644" 
d="M443 251l-131 376l-131 -376h262zM182 0h-182v29h68l231 661h46l231 -661h71v-29h-202v29h76l-68 193h-282l-68 -193h79v-29zM203 776v32h234v-32h-234z" />
    <glyph glyph-name="uni0101" unicode="&#x101;" horiz-adv-x="537" 
d="M446 -10q-82 0 -79 112q-39 -112 -170 -112q-65 0 -107 33.5t-42 99.5q0 154 252 154h63v49q0 147 -132 147q-43 0 -79 -17.5t-50 -49.5q34 -4 34 -33q0 -16 -9.5 -25t-25.5 -9q-17 0 -26.5 9.5t-9.5 26.5q0 51 50 88.5t127 37.5q174 0 174 -179v-226q0 -68 45 -68
q46 0 46 95h24q0 -68 -20 -100.5t-65 -32.5zM214 25q64 0 106.5 39t42.5 110v76h-63q-196 0 -196 -120q0 -52 31 -78.5t79 -26.5zM124 638v32h234v-32h-234z" />
    <glyph glyph-name="uni0102" unicode="&#x102;" horiz-adv-x="644" 
d="M443 251l-131 376l-131 -376h262zM182 0h-182v29h68l231 661h46l231 -661h71v-29h-202v29h76l-68 193h-282l-68 -193h79v-29zM326 787q82 0 96 85h21q-9 -125 -117 -125q-60 0 -91.5 35t-35.5 90h21q18 -85 106 -85z" />
    <glyph glyph-name="uni0103" unicode="&#x103;" horiz-adv-x="537" 
d="M446 -10q-82 0 -79 112q-39 -112 -170 -112q-65 0 -107 33.5t-42 99.5q0 154 252 154h63v49q0 147 -132 147q-43 0 -79 -17.5t-50 -49.5q34 -4 34 -33q0 -16 -9.5 -25t-25.5 -9q-17 0 -26.5 9.5t-9.5 26.5q0 51 50 88.5t127 37.5q174 0 174 -179v-226q0 -68 45 -68
q46 0 46 95h24q0 -68 -20 -100.5t-65 -32.5zM214 25q64 0 106.5 39t42.5 110v76h-63q-196 0 -196 -120q0 -52 31 -78.5t79 -26.5zM246 647q83 0 88 96h21q0 -136 -109 -136q-61 0 -90 39.5t-29 96.5h21q3 -44 28.5 -70t69.5 -26z" />
    <glyph glyph-name="uni0104" unicode="&#x104;" horiz-adv-x="644" 
d="M501 -172q-41 0 -68 21.5t-27 63.5q0 45 31.5 74t85.5 36l-69 199h-283l-67 -193h78v-29h-182v29h68l231 661h46l231 -661h71v-29h-86q-109 0 -109 -83q0 -29 17 -44t46 -15q39 0 64 22v-25q-27 -27 -78 -27zM443 251l-130 375l-131 -375h261z" />
    <glyph glyph-name="uni0105" unicode="&#x105;" horiz-adv-x="537" 
d="M464 -163q-40 0 -66.5 20.5t-26.5 60.5q0 61 63 74q-70 9 -66 115q-39 -117 -171 -117q-65 0 -107 33.5t-42 99.5q0 154 252 154h63v49q0 149 -132 149q-45 0 -83 -19.5t-47 -51.5q16 -1 25.5 -10t9.5 -22q0 -33 -35 -33q-17 0 -26.5 9.5t-9.5 26.5q0 51 50 88.5
t127 37.5q174 0 174 -179v-226q0 -68 45 -68q46 0 46 95h24q0 -56 -12.5 -86.5t-44.5 -42.5q-57 -22 -57 -73q0 -26 16.5 -40t44.5 -14q41 0 66 22v-25q-27 -27 -80 -27zM214 25q64 0 106.5 39t42.5 110v79h-63q-197 0 -197 -123q0 -52 31.5 -78.5t79.5 -26.5z" />
    <glyph glyph-name="uni0106" unicode="&#x106;" horiz-adv-x="624" 
d="M513 66q-32 -40 -80.5 -58t-95.5 -18q-71 0 -126.5 30t-89 81t-50.5 113.5t-17 131.5q0 93 31 172t96 130.5t153 51.5q112 0 176 -71l21 70h28v-217h-35q0 91 -51 138.5t-136 47.5q-98 0 -161 -83t-63 -239q0 -155 62 -239.5t168 -84.5q78 0 131.5 48.5t53.5 141.5h34
v-222h-27zM342 740l90 68q47 34 47 52q0 10 -7.5 17t-20.5 7q-21 0 -61 -48l-78 -96h30z" />
    <glyph glyph-name="uni0107" unicode="&#x107;" horiz-adv-x="492" 
d="M268 -10q-95 0 -157 69t-62 185q0 121 64.5 189t158.5 68q73 0 121 -39t48 -97q0 -19 -9.5 -30.5t-25.5 -11.5q-17 0 -27.5 9t-10.5 25t10 27t30 11q-13 35 -48 56t-82 21q-78 0 -125.5 -60.5t-47.5 -167.5q0 -106 47 -165.5t121 -59.5q116 0 157 130l25 -8
q-21 -76 -71 -113.5t-116 -37.5zM270 601h-23l68 100q38 55 62 55q28 0 28 -23q0 -19 -65 -69z" />
    <glyph glyph-name="uni0108" unicode="&#x108;" horiz-adv-x="624" 
d="M513 66q-32 -40 -80.5 -58t-95.5 -18q-71 0 -126.5 30t-89 81t-50.5 113.5t-17 131.5q0 93 31 172t96 130.5t153 51.5q112 0 176 -71l21 70h28v-217h-35q0 91 -51 138.5t-136 47.5q-98 0 -161 -83t-63 -239q0 -155 62 -239.5t168 -84.5q78 0 131.5 48.5t53.5 141.5h34
v-222h-27zM231 740h-28l123 132h23l118 -132h-28l-102 86z" />
    <glyph glyph-name="uni0109" unicode="&#x109;" horiz-adv-x="492" 
d="M268 -10q-95 0 -157 69t-62 185q0 121 64.5 189t158.5 68q73 0 121 -39t48 -97q0 -19 -9.5 -30.5t-25.5 -11.5q-17 0 -27.5 9t-10.5 25t10 27t30 11q-13 35 -48 56t-82 21q-78 0 -125.5 -60.5t-47.5 -167.5q0 -106 47 -165.5t121 -59.5q116 0 157 130l25 -8
q-21 -76 -71 -113.5t-116 -37.5zM150 601h-28l135 159h16l131 -159h-28l-111 107z" />
    <glyph glyph-name="uni010A" unicode="&#x10a;" horiz-adv-x="624" 
d="M513 66q-32 -40 -80.5 -58t-95.5 -18q-71 0 -126.5 30t-89 81t-50.5 113.5t-17 131.5q0 93 31 172t96 130.5t153 51.5q112 0 176 -71l21 70h28v-217h-35q0 91 -51 138.5t-136 47.5q-98 0 -161 -83t-63 -239q0 -155 62 -239.5t168 -84.5q78 0 131.5 48.5t53.5 141.5h34
v-222h-27zM330 765q-17 0 -28.5 11.5t-11.5 27.5t11.5 27.5t28.5 11.5t28 -11.5t11 -27.5t-11 -27.5t-28 -11.5z" />
    <glyph glyph-name="uni010B" unicode="&#x10b;" horiz-adv-x="492" 
d="M268 -10q-95 0 -157 69t-62 185q0 121 64.5 189t158.5 68q73 0 121 -39t48 -97q0 -19 -9.5 -30.5t-25.5 -11.5q-17 0 -27.5 9t-10.5 25t10 27t30 11q-13 35 -48 56t-82 21q-78 0 -125.5 -60.5t-47.5 -167.5q0 -106 47 -165.5t121 -59.5q116 0 157 130l25 -8
q-21 -76 -71 -113.5t-116 -37.5zM302 656q0 -13 -10 -26.5t-31 -13.5t-30.5 13t-9.5 27t9.5 27.5t30.5 13.5t31 -13.5t10 -27.5z" />
    <glyph glyph-name="uni010C" unicode="&#x10c;" horiz-adv-x="624" 
d="M513 66q-32 -40 -80.5 -58t-95.5 -18q-71 0 -126.5 30t-89 81t-50.5 113.5t-17 131.5q0 93 31 172t96 130.5t153 51.5q112 0 176 -71l21 70h28v-217h-35q0 91 -51 138.5t-136 47.5q-98 0 -161 -83t-63 -239q0 -155 62 -239.5t168 -84.5q78 0 131.5 48.5t53.5 141.5h34
v-222h-27zM228 872h-28l123 -132h23l118 132h-28l-102 -86z" />
    <glyph glyph-name="uni010D" unicode="&#x10d;" horiz-adv-x="492" 
d="M268 -10q-95 0 -157 69t-62 185q0 121 64.5 189t158.5 68q73 0 121 -39t48 -97q0 -19 -9.5 -30.5t-25.5 -11.5q-17 0 -27.5 9t-10.5 25t10 27t30 11q-13 35 -48 56t-82 21q-78 0 -125.5 -60.5t-47.5 -167.5q0 -106 47 -165.5t121 -59.5q116 0 157 130l25 -8
q-21 -76 -71 -113.5t-116 -37.5zM149 760h-28l135 -159h16l131 159h-28l-111 -107z" />
    <glyph glyph-name="uni010E" unicode="&#x10e;" horiz-adv-x="682" 
d="M296 0h-244v29h90v632h-90v29h244q106 0 184 -50.5t114 -127t36 -166.5t-36 -167t-113.5 -128t-184.5 -51zM198 661v-632h91q124 0 203 83t79 234q0 149 -79.5 232t-202.5 83h-91zM219 872h-28l123 -132h23l118 132h-28l-102 -86z" />
    <glyph glyph-name="uni010F" unicode="&#x10f;" horiz-adv-x="611" 
d="M584 591v23q23 4 37 23t14 43q0 17 -2 22q-7 -5 -21 -5q-16 0 -26.5 9.5t-10.5 25.5q0 17 11 27.5t30 10.5q23 0 35.5 -18t12.5 -48q0 -48 -21 -77.5t-59 -35.5zM482 753v-720h82v-29q-94 0 -114 -14l-12 7v136q-17 -70 -63.5 -106.5t-108.5 -36.5q-88 0 -152.5 69
t-64.5 185q0 118 63.5 187.5t153.5 69.5q62 0 106.5 -32.5t61.5 -91.5q-5 118 -5 248v96h-82v29q74 0 94.5 1.5t29.5 8.5zM272 472q-73 0 -119.5 -62t-47.5 -166q-1 -107 48 -166t119 -59q68 0 113 61t45 160v17q0 100 -44.5 157.5t-113.5 57.5z" />
    <glyph glyph-name="uni0110" unicode="&#x110;" horiz-adv-x="682" 
d="M296 0h-244v29h90v309h-98v29h98v294h-90v29h244q106 0 184 -50.5t114 -127t36 -166.5t-36 -167t-113.5 -128t-184.5 -51zM198 29h91q124 0 203 83t79 234q0 149 -79.5 232t-202.5 83h-91v-294h177v-29h-177v-309z" />
    <glyph glyph-name="uni0111" unicode="&#x111;" horiz-adv-x="591" 
d="M450 -10l-12 7v132q-17 -67 -64 -103t-108 -36q-88 0 -152.5 69t-64.5 185q0 118 63.5 187.5t153.5 69.5q61 0 106 -32.5t62 -88.5q-5 110 -5 231h-142v29h142v110q29 1 42 10l11 -7v-113h82v-29h-82v-578h82v-29q-94 0 -114 -14zM272 472q-73 0 -119.5 -62t-47.5 -166
q-1 -107 48 -166t119 -59q68 0 113 61t45 160v17q0 100 -44.5 157.5t-113.5 57.5z" />
    <glyph glyph-name="uni0112" unicode="&#x112;" horiz-adv-x="605" 
d="M52 0v29h90v632h-90v29h483v-186h-35v71q0 52 -21.5 69t-77.5 17h-203v-295l227 6v-39l-227 5v-309h222q52 0 70 20t18 71v71h35v-191h-491zM205 776v32h234v-32h-234z" />
    <glyph glyph-name="uni0113" unicode="&#x113;" horiz-adv-x="522" 
d="M278 -10q-104 0 -166 70t-62 188q0 112 61 182.5t157 70.5q99 0 153.5 -65t54.5 -162v-22h-370v-10q0 -102 44.5 -162.5t130.5 -60.5q129 0 165 125l24 -8q-17 -71 -67 -108.5t-125 -37.5zM268 475q-75 0 -116.5 -56.5t-45.5 -141.5h314q-2 85 -40 141.5t-112 56.5z
M152 638v32h234v-32h-234z" />
    <glyph glyph-name="uni0114" unicode="&#x114;" horiz-adv-x="605" 
d="M52 0v29h90v632h-90v29h483v-186h-35v71q0 52 -21.5 69t-77.5 17h-203v-295l227 6v-39l-227 5v-309h222q52 0 70 20t18 71v71h35v-191h-491zM327 787q82 0 96 85h21q-9 -125 -117 -125q-60 0 -91.5 35t-35.5 90h21q18 -85 106 -85z" />
    <glyph glyph-name="uni0115" unicode="&#x115;" horiz-adv-x="522" 
d="M278 -10q-104 0 -166 70t-62 188q0 112 61 182.5t157 70.5q99 0 153.5 -65t54.5 -162v-22h-370v-10q0 -102 44.5 -162.5t130.5 -60.5q129 0 165 125l24 -8q-17 -71 -67 -108.5t-125 -37.5zM268 475q-75 0 -116.5 -56.5t-45.5 -141.5h314q-2 85 -40 141.5t-112 56.5z
M269 647q83 0 88 96h21q0 -136 -109 -136q-61 0 -90 39.5t-29 96.5h21q3 -44 28.5 -70t69.5 -26z" />
    <glyph glyph-name="uni0116" unicode="&#x116;" horiz-adv-x="605" 
d="M52 0v29h90v632h-90v29h483v-186h-35v71q0 52 -21.5 69t-77.5 17h-203v-295l227 6v-39l-227 5v-309h222q52 0 70 20t18 71v71h35v-191h-491zM320 765q-17 0 -28.5 11.5t-11.5 27.5t11.5 27.5t28.5 11.5t28 -11.5t11 -27.5t-11 -27.5t-28 -11.5z" />
    <glyph glyph-name="uni0117" unicode="&#x117;" horiz-adv-x="522" 
d="M278 -10q-104 0 -166 70t-62 188q0 112 61 182.5t157 70.5q99 0 153.5 -65t54.5 -162v-22h-370v-10q0 -102 44.5 -162.5t130.5 -60.5q129 0 165 125l24 -8q-17 -71 -67 -108.5t-125 -37.5zM268 475q-75 0 -116.5 -56.5t-45.5 -141.5h314q-2 85 -40 141.5t-112 56.5z
M307 655q0 -13 -10 -26t-31 -13t-30.5 13t-9.5 26q0 14 9.5 27.5t30.5 13.5t31 -13.5t10 -27.5z" />
    <glyph glyph-name="uni0118" unicode="&#x118;" horiz-adv-x="605" 
d="M552 -145q-27 -27 -78 -27q-41 0 -68 21.5t-27 63.5q0 56 52 87h-379v29h90v632h-90v29h483v-186h-35v71q0 52 -21.5 69t-77.5 17h-203v-295l227 6v-39l-227 5v-309h222q52 0 70 20t18 71v71h35v-191h-26q-46 0 -69 -24t-23 -59q0 -29 17 -44t46 -15q39 0 64 22v-25z" />
    <glyph glyph-name="uni0119" unicode="&#x119;" horiz-adv-x="522" 
d="M315 -163q-40 0 -67 20t-27 58q0 54 54 74q-106 2 -165.5 73.5t-59.5 185.5q0 112 61 182.5t157 70.5q99 0 153.5 -65t54.5 -162v-22h-370v-10q0 -102 44.5 -162.5t130.5 -60.5q129 0 165 125l24 -8q-27 -110 -131 -139q-71 -21 -71 -76q0 -26 16.5 -40t44.5 -14
q41 0 66 22v-25q-27 -27 -80 -27zM268 475q-75 0 -116.5 -56.5t-45.5 -141.5h314q-2 85 -40 141.5t-112 56.5z" />
    <glyph glyph-name="uni011A" unicode="&#x11a;" horiz-adv-x="605" 
d="M52 0v29h90v632h-90v29h483v-186h-35v71q0 52 -21.5 69t-77.5 17h-203v-295l227 6v-39l-227 5v-309h222q52 0 70 20t18 71v71h35v-191h-491zM217 872h-28l123 -132h23l118 132h-28l-102 -86z" />
    <glyph glyph-name="uni011B" unicode="&#x11b;" horiz-adv-x="522" 
d="M278 -10q-104 0 -166 70t-62 188q0 112 61 182.5t157 70.5q99 0 153.5 -65t54.5 -162v-22h-370v-10q0 -102 44.5 -162.5t130.5 -60.5q129 0 165 125l24 -8q-17 -71 -67 -108.5t-125 -37.5zM268 475q-75 0 -116.5 -56.5t-45.5 -141.5h314q-2 85 -40 141.5t-112 56.5z
M150 760h-28l135 -159h16l131 159h-28l-111 -107z" />
    <glyph glyph-name="uni011C" unicode="&#x11c;" horiz-adv-x="689" 
d="M552 -10l-20 59q-50 -59 -162 -59q-67 0 -121 19t-90 52t-60 78.5t-34.5 97t-10.5 109.5q0 93 32.5 172.5t99.5 130.5t157 51q129 0 182 -70l22 70h27v-223h-34q0 94 -52 142.5t-143 48.5q-100 0 -166 -83t-66 -239t68.5 -240t187.5 -84q106 0 153 59v188h-115v29h253
v-29h-82v-279h-26zM246 740h-28l123 132h23l118 -132h-28l-102 86z" />
    <glyph glyph-name="uni011D" unicode="&#x11d;" horiz-adv-x="502" 
d="M245 187q60 0 97 38t37 106q0 69 -36.5 106.5t-97.5 37.5q-58 -1 -95.5 -38.5t-37.5 -105.5t36.5 -106t96.5 -38zM482 -98q0 -79 -59 -120.5t-169 -41.5q-96 0 -156.5 34.5t-60.5 103.5q0 46 31.5 80t91.5 46q-98 15 -98 90q0 36 28.5 57.5t72.5 26.5q-49 17 -77.5 58
t-28.5 95q0 77 55 123.5t133 46.5q43 0 80 -10h157v-25l-119 1q71 -48 71 -136q0 -71 -50 -120t-139 -49q-74 0 -109 -14t-35 -48q0 -31 32 -47t123 -16q118 0 172 -33.5t54 -101.5zM265 -227q87 0 134.5 30.5t47.5 88.5q0 49 -45 76.5t-156 27.5h-47q-115 -24 -115 -110
q0 -41 27.5 -67t66 -36t87.5 -10zM138 601h-28l135 159h16l131 -159h-28l-111 107z" />
    <glyph glyph-name="uni011E" unicode="&#x11e;" horiz-adv-x="689" 
d="M552 -10l-20 59q-50 -59 -162 -59q-67 0 -121 19t-90 52t-60 78.5t-34.5 97t-10.5 109.5q0 93 32.5 172.5t99.5 130.5t157 51q129 0 182 -70l22 70h27v-223h-34q0 94 -52 142.5t-143 48.5q-100 0 -166 -83t-66 -239t68.5 -240t187.5 -84q106 0 153 59v188h-115v29h253
v-29h-82v-279h-26zM345 787q82 0 96 85h21q-9 -125 -117 -125q-60 0 -91.5 35t-35.5 90h21q18 -85 106 -85z" />
    <glyph glyph-name="uni011F" unicode="&#x11f;" horiz-adv-x="502" 
d="M245 187q60 0 97 38t37 106q0 69 -36.5 106.5t-97.5 37.5q-58 -1 -95.5 -38.5t-37.5 -105.5t36.5 -106t96.5 -38zM482 -98q0 -79 -59 -120.5t-169 -41.5q-96 0 -156.5 34.5t-60.5 103.5q0 46 31.5 80t91.5 46q-98 15 -98 90q0 36 28.5 57.5t72.5 26.5q-49 17 -77.5 58
t-28.5 95q0 77 55 123.5t133 46.5q43 0 80 -10h157v-25l-119 1q71 -48 71 -136q0 -71 -50 -120t-139 -49q-74 0 -109 -14t-35 -48q0 -31 32 -47t123 -16q118 0 172 -33.5t54 -101.5zM265 -227q87 0 134.5 30.5t47.5 88.5q0 49 -45 76.5t-156 27.5h-47q-115 -24 -115 -110
q0 -41 27.5 -67t66 -36t87.5 -10zM248 647q83 0 88 96h21q0 -136 -109 -136q-61 0 -90 39.5t-29 96.5h21q3 -44 28.5 -70t69.5 -26z" />
    <glyph glyph-name="uni0120" unicode="&#x120;" horiz-adv-x="689" 
d="M552 -10l-20 59q-50 -59 -162 -59q-67 0 -121 19t-90 52t-60 78.5t-34.5 97t-10.5 109.5q0 93 32.5 172.5t99.5 130.5t157 51q129 0 182 -70l22 70h27v-223h-34q0 94 -52 142.5t-143 48.5q-100 0 -166 -83t-66 -239t68.5 -240t187.5 -84q106 0 153 59v188h-115v29h253
v-29h-82v-279h-26zM346 765q-17 0 -28.5 11.5t-11.5 27.5t11.5 27.5t28.5 11.5t28 -11.5t11 -27.5t-11 -27.5t-28 -11.5z" />
    <glyph glyph-name="uni0121" unicode="&#x121;" horiz-adv-x="502" 
d="M245 187q60 0 97 38t37 106q0 69 -36.5 106.5t-97.5 37.5q-58 -1 -95.5 -38.5t-37.5 -105.5t36.5 -106t96.5 -38zM482 -98q0 -79 -59 -120.5t-169 -41.5q-96 0 -156.5 34.5t-60.5 103.5q0 46 31.5 80t91.5 46q-98 15 -98 90q0 36 28.5 57.5t72.5 26.5q-49 17 -77.5 58
t-28.5 95q0 77 55 123.5t133 46.5q43 0 80 -10h157v-25l-119 1q71 -48 71 -136q0 -71 -50 -120t-139 -49q-74 0 -109 -14t-35 -48q0 -31 32 -47t123 -16q118 0 172 -33.5t54 -101.5zM265 -227q87 0 134.5 30.5t47.5 88.5q0 49 -45 76.5t-156 27.5h-47q-115 -24 -115 -110
q0 -41 27.5 -67t66 -36t87.5 -10zM283 656q0 -13 -10 -26.5t-31 -13.5t-30.5 13t-9.5 27t9.5 27.5t30.5 13.5t31 -13.5t10 -27.5z" />
    <glyph glyph-name="uni0122" unicode="&#x122;" horiz-adv-x="689" 
d="M552 -10l-20 59q-50 -59 -162 -59q-67 0 -121 19t-90 52t-60 78.5t-34.5 97t-10.5 109.5q0 93 32.5 172.5t99.5 130.5t157 51q129 0 182 -70l22 70h27v-223h-34q0 94 -52 142.5t-143 48.5q-100 0 -166 -83t-66 -239t68.5 -240t187.5 -84q106 0 153 59v188h-115v29h253
v-29h-82v-279h-26zM330 -231v23q23 4 37 23t14 43q0 17 -2 22q-8 -5 -21 -5q-16 0 -26.5 9.5t-10.5 25.5q0 17 11 27.5t30 10.5q23 0 35.5 -18t12.5 -48q0 -48 -21 -77.5t-59 -35.5z" />
    <glyph glyph-name="uni0123" unicode="&#x123;" horiz-adv-x="502" 
d="M274 786v-23q-23 -4 -37 -23t-14 -43q0 -17 2 -22q7 5 21 5q16 0 26.5 -9.5t10.5 -25.5q0 -17 -11 -27.5t-30 -10.5q-23 0 -35.5 18t-12.5 48q0 48 21 77.5t59 35.5zM245 187q60 0 97 38t37 106q0 69 -36.5 106.5t-97.5 37.5q-58 -1 -95.5 -38.5t-37.5 -105.5t36.5 -106
t96.5 -38zM482 -98q0 -79 -59 -120.5t-169 -41.5q-96 0 -156.5 34.5t-60.5 103.5q0 46 31.5 80t91.5 46q-98 15 -98 90q0 36 28.5 57.5t72.5 26.5q-49 17 -77.5 58t-28.5 95q0 77 55 123.5t133 46.5q43 0 80 -10h157v-25l-119 1q71 -48 71 -136q0 -71 -50 -120t-139 -49
q-74 0 -109 -14t-35 -48q0 -31 32 -47t123 -16q118 0 172 -33.5t54 -101.5zM265 -227q87 0 134.5 30.5t47.5 88.5q0 49 -45 76.5t-156 27.5h-47q-115 -24 -115 -110q0 -41 27.5 -67t66 -36t87.5 -10z" />
    <glyph glyph-name="uni0124" unicode="&#x124;" horiz-adv-x="758" 
d="M52 0v29h90v632h-90v29h230v-29h-84v-293h362v293h-85v29h230v-29h-89v-632h89v-29h-230v29h85v310h-362v-310h84v-29h-230zM276 740h-28l123 132h23l118 -132h-28l-102 86z" />
    <glyph glyph-name="uni0125" unicode="&#x125;" horiz-adv-x="594" 
d="M241 0h-214v29h82v692h-82v29q73 0 94.5 1.5t29.5 8.5l11 -7v-151q0 -165 -12 -234q17 59 59 96t110 37q172 0 172 -203v-269h82v-29h-214v29h79v269q0 164 -137 164q-65 0 -102 -43t-37 -132v-258h79v-29zM192 790h-28l123 132h23l118 -132h-28l-102 86z" />
    <glyph glyph-name="uni0126" unicode="&#x126;" horiz-adv-x="758" 
d="M198 368h362v138h-362v-138zM282 29v-29h-230v29h90v477h-108v29h108v126h-90v29h230v-29h-84v-126h362v126h-85v29h230v-29h-89v-126h108v-29h-108v-477h89v-29h-230v29h85v310h-362v-310h84z" />
    <glyph glyph-name="uni0127" unicode="&#x127;" horiz-adv-x="594" 
d="M241 29v-29h-214v29h82v582h-82v29h82v110q29 0 42 10l11 -7v-113h142v-29h-142v-2q0 -106 -12 -238q38 130 169 130q172 0 172 -203v-269h82v-29h-214v29h79v269q0 164 -137 164q-65 0 -102 -43t-37 -132v-258h79z" />
    <glyph glyph-name="uni0128" unicode="&#x128;" horiz-adv-x="339" 
d="M101 820q-46 0 -46 -68h-23q0 49 18.5 76.5t54.5 27.5q31 0 69.5 -33.5t61.5 -33.5q45 0 45 67h23q0 -104 -73 -104q-33 0 -72 34t-58 34zM287 0h-235v29h90v632h-90v29h235v-29h-89v-632h89v-29z" />
    <glyph glyph-name="uni0129" unicode="&#x129;" horiz-adv-x="284" 
d="M199 618q-27 0 -50.5 18t-44 35.5t-40.5 17.5q-48 0 -48 -67h-23q0 50 19 79.5t56 29.5q28 0 51.5 -17.5t44 -35.5t40.5 -18q47 0 47 67h23q0 -55 -17.5 -82t-57.5 -27zM172 494v-465h82v-29h-216v29h81v433h-81v29q71 0 91.5 1.5t30.5 8.5z" />
    <glyph glyph-name="uni012A" unicode="&#x12a;" horiz-adv-x="339" 
d="M287 0h-235v29h90v632h-90v29h235v-29h-89v-632h89v-29zM51 776v32h234v-32h-234z" />
    <glyph glyph-name="uni012B" unicode="&#x12b;" horiz-adv-x="284" 
d="M15 638v32h234v-32h-234zM172 494v-465h82v-29h-216v29h81v433h-81v29q71 0 91.5 1.5t30.5 8.5z" />
    <glyph glyph-name="uni012C" unicode="&#x12c;" horiz-adv-x="339" 
d="M173 787q82 0 96 85h21q-9 -125 -117 -125q-60 0 -91.5 35t-35.5 90h21q18 -85 106 -85zM287 0h-235v29h90v632h-90v29h235v-29h-89v-632h89v-29z" />
    <glyph glyph-name="uni012D" unicode="&#x12d;" horiz-adv-x="284" 
d="M139 647q83 0 88 96h21q0 -136 -109 -136q-61 0 -90 39.5t-29 96.5h21q3 -44 28.5 -70t69.5 -26zM172 494v-465h82v-29h-216v29h81v433h-81v29q71 0 91.5 1.5t30.5 8.5z" />
    <glyph glyph-name="uni012E" unicode="&#x12e;" horiz-adv-x="339" 
d="M205 -172q-41 0 -68 21.5t-27 63.5q0 57 55 87h-113v29h90v632h-90v29h235v-29h-89v-632h89v-29h-41q-44 0 -67 -24t-23 -59q0 -29 17 -44t46 -15q39 0 64 22v-25q-27 -27 -78 -27z" />
    <glyph glyph-name="uni012F" unicode="&#x12f;" horiz-adv-x="284" 
d="M181 656q0 -13 -10 -26.5t-31 -13.5t-30.5 13t-9.5 27t9.5 27.5t30.5 13.5t31 -13.5t10 -27.5zM167 -172q-41 0 -68 21.5t-27 63.5q0 56 55 87h-89v29h81v433h-81v29q71 0 91.5 1.5t30.5 8.5l12 -7v-465h82v-29h-40q-48 0 -72 -24t-24 -59q0 -29 17 -44t46 -15
q39 0 64 22v-25q-27 -27 -78 -27z" />
    <glyph glyph-name="uni0130" unicode="&#x130;" horiz-adv-x="339" 
d="M169 765q-17 0 -28.5 11.5t-11.5 27.5t11.5 27.5t28.5 11.5t28 -11.5t11 -27.5t-11 -27.5t-28 -11.5zM287 0h-235v29h90v632h-90v29h235v-29h-89v-632h89v-29z" />
    <glyph glyph-name="dotlessi" unicode="&#x131;" horiz-adv-x="284" 
d="M172 494v-465h82v-29h-216v29h81v433h-81v29q71 0 91.5 1.5t30.5 8.5z" />
    <glyph glyph-name="uni0132" unicode="&#x132;" horiz-adv-x="793" 
d="M287 0h-235v29h90v632h-90v29h235v-29h-89v-632h89v-29zM667 221q0 -117 -41.5 -174t-133.5 -57q-82 0 -125 44t-43 97q0 21 11.5 33.5t29.5 12.5q17 0 27 -10.5t10 -25.5q0 -35 -37 -42q10 -39 46 -58t79 -19q68 0 94.5 44.5t26.5 138.5v456h-95v29h240v-29h-89v-440z
" />
    <glyph glyph-name="uni0133" unicode="&#x133;" horiz-adv-x="554" 
d="M172 494v-465h82v-29h-216v29h81v433h-81v29q71 0 91.5 1.5t30.5 8.5zM181 656q0 -13 -10 -26.5t-31 -13.5t-30.5 13t-9.5 27t9.5 27.5t30.5 13.5t31 -13.5t10 -27.5zM473 656q0 -13 -10 -26.5t-31 -13.5t-30.5 13t-9.5 27t9.5 27.5t30.5 13.5t31 -13.5t10 -27.5z
M319 -260q-58 0 -92.5 34t-34.5 77q0 41 36 41q17 0 26.5 -9t9.5 -25q0 -32 -32 -42q18 -48 84 -48q53 0 74 41.5t21 137.5v515h-82v29q72 0 91.5 1.5t30.5 8.5l13 -7v-527q0 -118 -33.5 -172.5t-111.5 -54.5z" />
    <glyph glyph-name="uni0134" unicode="&#x134;" horiz-adv-x="488" 
d="M224 740h-28l123 132h23l118 -132h-28l-102 86zM361 221q0 -117 -41 -174t-133 -57q-82 0 -125 44t-43 97q0 22 11 34t30 12q16 0 26.5 -10.5t10.5 -25.5q0 -33 -36 -42q7 -30 39 -53.5t85 -23.5q68 0 94 44.5t26 138.5v456h-94v29h240v-29h-90v-440z" />
    <glyph glyph-name="uni0135" unicode="&#x135;" horiz-adv-x="265" 
d="M12 601h-28l135 159h16l131 -159h-28l-111 107zM31 -260q-58 0 -92.5 34t-34.5 77q0 41 36 41q17 0 26.5 -9t9.5 -25q0 -32 -32 -42q18 -48 84 -48q53 0 74 41.5t21 137.5v515h-82v29q72 0 91.5 1.5t30.5 8.5l13 -7v-527q0 -118 -33.5 -172.5t-111.5 -54.5z" />
    <glyph glyph-name="uni0136" unicode="&#x136;" horiz-adv-x="671" 
d="M287 0h-235v29h90v632h-90v29h235v-29h-89v-393l322 393h-79v29h195v-29h-73l-200 -244l239 -388h64v-29h-203v29h73l-211 342l-127 -155v-187h89v-29zM342 -231v23q23 4 37 23t14 43q0 17 -2 22q-8 -5 -21 -5q-16 0 -26.5 9.5t-10.5 25.5q0 17 11 27.5t30 10.5
q23 0 35.5 -18t12.5 -48q0 -48 -21 -77.5t-59 -35.5z" />
    <glyph glyph-name="uni0137" unicode="&#x137;" horiz-adv-x="562" 
d="M241 0h-214v29h82v692h-82v29q75 0 95.5 1.5t28.5 8.5l11 -7v-556l246 265h-90v29h214v-29h-80l-161 -173l209 -260h61v-29h-207v29h82l-180 223l-94 -101v-122h79v-29zM271 -231v23q23 4 37 23t14 43q0 17 -2 22q-8 -5 -21 -5q-16 0 -26.5 9.5t-10.5 25.5q0 17 11 27.5
t30 10.5q23 0 35.5 -18t12.5 -48q0 -48 -21 -77.5t-59 -35.5z" />
    <glyph glyph-name="uni0139" unicode="&#x139;" horiz-adv-x="561" 
d="M52 0v29h90v632h-90v29h240v-29h-94v-632h209q53 0 70.5 20.5t17.5 70.5v71h35v-191h-478zM176 740l90 68q47 34 47 52q0 10 -7.5 17t-20.5 7q-21 0 -61 -48l-78 -96h30z" />
    <glyph glyph-name="uni013A" unicode="&#x13a;" horiz-adv-x="275" 
d="M144 810l90 68q47 34 47 52q0 10 -7.5 17t-20.5 7q-21 0 -61 -48l-78 -96h30zM30 0v29h81v692h-81v29q74 0 94.5 1.5t29.5 8.5l10 -7v-724h82v-29h-216z" />
    <glyph glyph-name="uni013B" unicode="&#x13b;" horiz-adv-x="561" 
d="M52 0v29h90v632h-90v29h240v-29h-94v-632h209q53 0 70.5 20.5t17.5 70.5v71h35v-191h-478zM289 -231v23q23 4 37 23t14 43q0 17 -2 22q-8 -5 -21 -5q-16 0 -26.5 9.5t-10.5 25.5q0 17 11 27.5t30 10.5q23 0 35.5 -18t12.5 -48q0 -48 -21 -77.5t-59 -35.5z" />
    <glyph glyph-name="uni013C" unicode="&#x13c;" horiz-adv-x="275" 
d="M30 0v29h81v692h-81v29q74 0 94.5 1.5t29.5 8.5l10 -7v-724h82v-29h-216zM106 -231v23q23 4 37 23t14 43q0 17 -2 22q-8 -5 -21 -5q-16 0 -26.5 9.5t-10.5 25.5q0 17 11 27.5t30 10.5q23 0 35.5 -18t12.5 -48q0 -48 -21 -77.5t-59 -35.5z" />
    <glyph glyph-name="uni013D" unicode="&#x13d;" horiz-adv-x="579" 
d="M466 523v23q23 4 37 23t14 43q0 17 -2 22q-7 -5 -21 -5q-16 0 -26.5 9.5t-10.5 25.5q0 17 11 27.5t30 10.5q23 0 35.5 -18t12.5 -48q0 -48 -21 -77.5t-59 -35.5zM52 0v29h90v632h-90v29h240v-29h-94v-632h209q53 0 70.5 20.5t17.5 70.5v71h35v-191h-478z" />
    <glyph glyph-name="uni013E" unicode="&#x13e;" horiz-adv-x="292" 
d="M266 591v23q23 4 37 23t14 43q0 17 -2 22q-7 -5 -21 -5q-16 0 -26.5 9.5t-10.5 25.5q0 17 11 27.5t30 10.5q23 0 35.5 -18t12.5 -48q0 -48 -21 -77.5t-59 -35.5zM30 0v29h81v692h-81v29q74 0 94.5 1.5t29.5 8.5l10 -7v-724h82v-29h-216z" />
    <glyph glyph-name="uni013F" unicode="&#x13f;" horiz-adv-x="565" 
d="M510 358q0 -14 -11 -27.5t-32 -13.5t-31.5 13.5t-10.5 27.5q0 15 10.5 28.5t31.5 13.5q22 0 32.5 -13.5t10.5 -28.5zM52 0v29h90v632h-90v29h240v-29h-94v-632h209q53 0 70.5 20.5t17.5 70.5v71h35v-191h-478z" />
    <glyph glyph-name="uni0140" unicode="&#x140;" horiz-adv-x="418" 
d="M394 268q0 -14 -11 -27.5t-32 -13.5t-31.5 13.5t-10.5 27.5q0 15 10.5 28.5t31.5 13.5q22 0 32.5 -13.5t10.5 -28.5zM30 0v29h81v692h-81v29q74 0 94.5 1.5t29.5 8.5l10 -7v-724h82v-29h-216z" />
    <glyph glyph-name="uni0141" unicode="&#x141;" horiz-adv-x="561" 
d="M530 0h-478v29h90v232l-98 -89v39l98 89v361h-90v29h240v-29h-94v-310l136 123v-39l-136 -123v-283h209q53 0 70.5 20.5t17.5 70.5v71h35v-191z" />
    <glyph glyph-name="uni0142" unicode="&#x142;" horiz-adv-x="332" 
d="M277 0h-216v29h81v248l-108 -97v40l108 97v404h-81v29q74 0 94.5 1.5t29.5 8.5l10 -7v-389l102 91v-40l-102 -91v-295h82v-29z" />
    <glyph glyph-name="uni0143" unicode="&#x143;" horiz-adv-x="739" 
d="M271 29v-29h-219v29h90v632h-90v29h143l372 -592v563h-90v29h219v-29h-90v-666h-32l-393 625v-591h90zM375 740l90 68q47 34 47 52q0 10 -7.5 17t-20.5 7q-21 0 -61 -48l-78 -96h30z" />
    <glyph glyph-name="uni0144" unicode="&#x144;" horiz-adv-x="602" 
d="M249 29v-29h-214v29h82v433h-82v29q65 0 82.5 1.5t28.5 8.5l12 -7v-126q14 58 57 95.5t112 37.5q172 0 172 -203v-269h82v-29h-214v29h79v269q0 164 -137 164q-65 0 -102 -43t-37 -132v-258h79zM298 601h-23l68 100q38 55 62 55q28 0 28 -23q0 -19 -65 -69z" />
    <glyph glyph-name="uni0145" unicode="&#x145;" horiz-adv-x="739" 
d="M271 29v-29h-219v29h90v632h-90v29h143l372 -592v563h-90v29h219v-29h-90v-666h-32l-393 625v-591h90zM365 -231v23q23 4 37 23t14 43q0 17 -2 22q-8 -5 -21 -5q-16 0 -26.5 9.5t-10.5 25.5q0 17 11 27.5t30 10.5q23 0 35.5 -18t12.5 -48q0 -48 -21 -77.5t-59 -35.5z" />
    <glyph glyph-name="uni0146" unicode="&#x146;" horiz-adv-x="602" 
d="M249 29v-29h-214v29h82v433h-82v29q65 0 82.5 1.5t28.5 8.5l12 -7v-126q14 58 57 95.5t112 37.5q172 0 172 -203v-269h82v-29h-214v29h79v269q0 164 -137 164q-65 0 -102 -43t-37 -132v-258h79zM278 -231v23q23 4 37 23t14 43q0 17 -2 22q-7 -5 -21 -5q-16 0 -26.5 9.5
t-10.5 25.5q0 17 11 27.5t30 10.5q23 0 35.5 -18t12.5 -48q0 -48 -21 -77.5t-59 -35.5z" />
    <glyph glyph-name="uni0147" unicode="&#x147;" horiz-adv-x="739" 
d="M271 29v-29h-219v29h90v632h-90v29h143l372 -592v563h-90v29h219v-29h-90v-666h-32l-393 625v-591h90zM266 872h-28l123 -132h23l118 132h-28l-102 -86z" />
    <glyph glyph-name="uni0148" unicode="&#x148;" horiz-adv-x="602" 
d="M249 29v-29h-214v29h82v433h-82v29q65 0 82.5 1.5t28.5 8.5l12 -7v-126q14 58 57 95.5t112 37.5q172 0 172 -203v-269h82v-29h-214v29h79v269q0 164 -137 164q-65 0 -102 -43t-37 -132v-258h79zM182 761h-28l135 -159h16l131 159h-28l-111 -107z" />
    <glyph glyph-name="uni0149" unicode="&#x149;" horiz-adv-x="602" 
d="M249 29v-29h-214v29h82v433h-82v29q65 0 82.5 1.5t28.5 8.5l12 -7v-126q14 58 57 95.5t112 37.5q172 0 172 -203v-269h82v-29h-214v29h79v269q0 164 -137 164q-65 0 -102 -43t-37 -132v-258h79zM51 584v23q23 4 37 23t14 43q0 17 -2 22q-8 -5 -21 -5q-16 0 -26.5 9.5
t-10.5 25.5q0 17 11 27.5t30 10.5q23 0 35.5 -18t12.5 -48q0 -48 -21 -77.5t-59 -35.5z" />
    <glyph glyph-name="uni014A" unicode="&#x14a;" horiz-adv-x="738" 
d="M450 -149v29q57 0 83 28.5t32 101.5l-384 607v-588h90v-29h-219v29h90v632h-90v29h143l372 -589v560h-90v29h219v-29h-90v-582q0 -132 -33 -180t-123 -48z" />
    <glyph glyph-name="uni014B" unicode="&#x14b;" horiz-adv-x="576" 
d="M499 24q0 -149 -41.5 -211.5t-138.5 -62.5v29q71 0 99 58t28 179v282q0 164 -137 164q-65 0 -102 -43t-37 -132v-258h79v-29h-214v29h82v433h-82v29q65 0 82.5 1.5t28.5 8.5l12 -7v-123q38 130 169 130q172 0 172 -203v-274z" />
    <glyph glyph-name="uni014C" unicode="&#x14c;" horiz-adv-x="686" 
d="M632 345q0 -148 -77.5 -251.5t-211.5 -103.5q-90 0 -157.5 50.5t-99.5 130t-32 174.5t32 174.5t99.5 130t157.5 50.5q134 0 211.5 -103.5t77.5 -251.5zM113 345q0 -152 64 -237.5t166 -85.5t166 86t64 237t-64 237t-166 86t-166 -86t-64 -237zM226 776v32h234v-32h-234z
" />
    <glyph glyph-name="uni014D" unicode="&#x14d;" horiz-adv-x="543" 
d="M272 -10q-97 0 -160 71t-63 184t63 184.5t160 71.5t159.5 -71.5t62.5 -184.5t-62.5 -184t-159.5 -71zM272 472q-78 0 -122.5 -63t-44.5 -164q0 -100 44.5 -163t122.5 -63t122 62.5t44 163.5t-44 164t-122 63zM153 638v32h234v-32h-234z" />
    <glyph glyph-name="uni014E" unicode="&#x14e;" horiz-adv-x="686" 
d="M632 345q0 -148 -77.5 -251.5t-211.5 -103.5q-90 0 -157.5 50.5t-99.5 130t-32 174.5t32 174.5t99.5 130t157.5 50.5q134 0 211.5 -103.5t77.5 -251.5zM113 345q0 -152 64 -237.5t166 -85.5t166 86t64 237t-64 237t-166 86t-166 -86t-64 -237zM348 787q82 0 96 85h21
q-9 -125 -117 -125q-60 0 -91.5 35t-35.5 90h21q18 -85 106 -85z" />
    <glyph glyph-name="uni014F" unicode="&#x14f;" horiz-adv-x="543" 
d="M272 -10q-97 0 -160 71t-63 184t63 184.5t160 71.5t159.5 -71.5t62.5 -184.5t-62.5 -184t-159.5 -71zM272 472q-78 0 -122.5 -63t-44.5 -164q0 -100 44.5 -163t122.5 -63t122 62.5t44 163.5t-44 164t-122 63zM268 647q83 0 88 96h21q0 -136 -109 -136q-61 0 -90 39.5
t-29 96.5h21q3 -44 28.5 -70t69.5 -26z" />
    <glyph glyph-name="uni0150" unicode="&#x150;" horiz-adv-x="686" 
d="M632 345q0 -148 -77.5 -251.5t-211.5 -103.5q-90 0 -157.5 50.5t-99.5 130t-32 174.5t32 174.5t99.5 130t157.5 50.5q134 0 211.5 -103.5t77.5 -251.5zM113 345q0 -152 64 -237.5t166 -85.5t166 86t64 237t-64 237t-166 86t-166 -86t-64 -237zM369 822l-74 -82h-32
l64 109q27 47 47 47q26 0 26 -25q0 -11 -31 -49zM511 814l-87 -74h-32l76 102q33 44 51 44q13 0 20 -8t7 -19q0 -13 -35 -45z" />
    <glyph glyph-name="uni0151" unicode="&#x151;" horiz-adv-x="543" 
d="M221 601h-23l59 106q31 65 56 65q27 0 27 -24q0 -22 -58 -79zM346 601h-23l79 100q22 30 36.5 42.5t28.5 12.5q12 0 19 -6.5t7 -16.5q0 -23 -67 -69zM272 -10q-97 0 -160 71t-63 184t63 184.5t160 71.5t159.5 -71.5t62.5 -184.5t-62.5 -184t-159.5 -71zM272 472
q-78 0 -122.5 -63t-44.5 -164q0 -100 44.5 -163t122.5 -63t122 62.5t44 163.5t-44 164t-122 63z" />
    <glyph glyph-name="uni0152" unicode="&#x152;" horiz-adv-x="955" 
d="M492 658q-54 12 -116 12q-125 0 -194.5 -87.5t-69.5 -237.5t69.5 -236.5t196.5 -86.5q64 0 114 11v625zM495 690h390v-186h-35v71q0 52 -22 69t-77 17h-203v-295l227 6v-39l-227 5v-309h223q52 0 70 20t18 71v71h35v-191h-401q-50 -10 -115 -10q-82 0 -146.5 31
t-102.5 82.5t-57 113t-19 128.5t19 128.5t57 113t102 82.5t146 31q58 0 118 -10z" />
    <glyph glyph-name="uni0153" unicode="&#x153;" horiz-adv-x="911" 
d="M666 -10q-71 0 -122.5 36t-77.5 100q-26 -64 -77 -100t-117 -36q-97 0 -160 71t-63 184t63 184.5t160 71.5q66 0 117 -36.5t77 -99.5q25 64 75.5 100t115.5 36q99 0 153 -65t54 -162v-22h-369v-10q0 -102 44.5 -162.5t130.5 -60.5q129 0 165 125l24 -8
q-17 -71 -67.5 -108.5t-125.5 -37.5zM657 475q-75 0 -116.5 -56.5t-45.5 -141.5h314q-2 85 -40 141.5t-112 56.5zM272 472q-78 0 -122.5 -63t-44.5 -164q0 -100 44.5 -163t122.5 -63t122 62.5t44 163.5t-44 164t-122 63z" />
    <glyph glyph-name="uni0154" unicode="&#x154;" horiz-adv-x="659" 
d="M565 -10q-53 0 -76.5 36t-47.5 133q-25 102 -54.5 136t-93.5 34h-95v-300h78v-29h-224v29h90v632h-90v29h243q127 0 189.5 -46.5t62.5 -132.5q0 -67 -45 -114.5t-135 -56.5q59 -18 82.5 -51t47.5 -126q23 -87 36.5 -114t41.5 -27q31 0 42.5 30t11.5 92h29
q0 -79 -20 -116.5t-73 -37.5zM297 661h-99v-305h97q105 0 149 44t44 111q0 150 -191 150zM332 740l90 68q47 34 47 52q0 10 -7.5 17t-20.5 7q-21 0 -61 -48l-78 -96h30z" />
    <glyph glyph-name="uni0155" unicode="&#x155;" horiz-adv-x="430" 
d="M246 601h-23l68 100q38 55 62 55q28 0 28 -23q0 -19 -65 -69zM261 0h-226v29h82v433h-82v29q64 0 82 1.5t29 8.5l12 -7v-130q26 137 141 137q49 0 78 -26t29 -75q0 -42 -36 -42q-16 0 -26 9.5t-10 23.5q0 15 9.5 25.5t26.5 10.5q3 0 5 -1q-16 49 -77 49
q-63 0 -95.5 -57.5t-32.5 -159.5v-229h91v-29z" />
    <glyph glyph-name="uni0156" unicode="&#x156;" horiz-adv-x="659" 
d="M565 -10q-53 0 -76.5 36t-47.5 133q-25 102 -54.5 136t-93.5 34h-95v-300h78v-29h-224v29h90v632h-90v29h243q127 0 189.5 -46.5t62.5 -132.5q0 -67 -45 -114.5t-135 -56.5q59 -18 82.5 -51t47.5 -126q23 -87 36.5 -114t41.5 -27q31 0 42.5 30t11.5 92h29
q0 -79 -20 -116.5t-73 -37.5zM297 661h-99v-305h97q105 0 149 44t44 111q0 150 -191 150zM336 -231v23q23 4 37 23t14 43q0 17 -2 22q-8 -5 -21 -5q-16 0 -26.5 9.5t-10.5 25.5q0 17 11 27.5t30 10.5q23 0 35.5 -18t12.5 -48q0 -48 -21 -77.5t-59 -35.5z" />
    <glyph glyph-name="uni0157" unicode="&#x157;" horiz-adv-x="430" 
d="M261 0h-226v29h82v433h-82v29q64 0 82 1.5t29 8.5l12 -7v-130q26 137 141 137q49 0 78 -26t29 -75q0 -42 -36 -42q-16 0 -26 9.5t-10 23.5q0 15 9.5 25.5t26.5 10.5q3 0 5 -1q-16 49 -77 49q-63 0 -95.5 -57.5t-32.5 -159.5v-229h91v-29zM112 -231v23q23 4 37 23t14 43
q0 17 -2 22q-8 -5 -21 -5q-16 0 -26.5 9.5t-10.5 25.5q0 17 11 27.5t30 10.5q23 0 35.5 -18t12.5 -48q0 -48 -21 -77.5t-59 -35.5z" />
    <glyph glyph-name="uni0158" unicode="&#x158;" horiz-adv-x="659" 
d="M565 -10q-53 0 -76.5 36t-47.5 133q-25 102 -54.5 136t-93.5 34h-95v-300h78v-29h-224v29h90v632h-90v29h243q127 0 189.5 -46.5t62.5 -132.5q0 -67 -45 -114.5t-135 -56.5q59 -18 82.5 -51t47.5 -126q23 -87 36.5 -114t41.5 -27q31 0 42.5 30t11.5 92h29
q0 -79 -20 -116.5t-73 -37.5zM297 661h-99v-305h97q105 0 149 44t44 111q0 150 -191 150zM205 872h-28l123 -132h23l118 132h-28l-102 -86z" />
    <glyph glyph-name="uni0159" unicode="&#x159;" horiz-adv-x="430" 
d="M261 0h-226v29h82v433h-82v29q64 0 82 1.5t29 8.5l12 -7v-130q26 137 141 137q49 0 78 -26t29 -75q0 -42 -36 -42q-16 0 -26 9.5t-10 23.5q0 15 9.5 25.5t26.5 10.5q3 0 5 -1q-16 49 -77 49q-63 0 -95.5 -57.5t-32.5 -159.5v-229h91v-29zM111 760h-28l135 -159h16
l131 159h-28l-111 -107z" />
    <glyph glyph-name="uni015A" unicode="&#x15a;" horiz-adv-x="579" 
d="M312 -10q-134 0 -199 85l-22 -85h-27v224h34q0 -87 61.5 -139.5t152.5 -52.5q81 0 121 35.5t40 91.5q0 63 -41.5 103t-147.5 68q-111 30 -163.5 71t-52.5 127q0 80 56 131t155 51q123 0 179 -78l18 78h27v-221h-34q0 99 -55 144t-134 45q-76 0 -119.5 -37.5t-43.5 -97.5
q0 -38 13.5 -65.5t43.5 -46.5t59 -30.5t79 -25.5q110 -30 160 -73t50 -128q0 -74 -50 -124t-160 -50zM294 740l90 68q47 34 47 52q0 10 -7.5 17t-20.5 7q-21 0 -61 -48l-78 -96h30z" />
    <glyph glyph-name="uni015B" unicode="&#x15b;" horiz-adv-x="482" 
d="M97 62l-16 -72h-23v177h29q4 -69 53 -108.5t125 -39.5q118 0 118 93q0 45 -34.5 71.5t-117.5 44.5q-94 19 -130.5 51.5t-36.5 88.5q0 61 45 97t115 36q104 0 149 -61l11 61h23v-161h-29q-4 67 -45.5 99.5t-108.5 32.5q-54 0 -83 -26.5t-29 -65.5q0 -43 31 -69t121 -44
q83 -18 125 -50.5t42 -94.5q0 -61 -40 -96.5t-120 -35.5q-65 0 -109 21.5t-65 50.5zM241 601h-23l68 100q38 55 62 55q28 0 28 -23q0 -19 -65 -69z" />
    <glyph glyph-name="uni015C" unicode="&#x15c;" horiz-adv-x="579" 
d="M312 -10q-134 0 -199 85l-22 -85h-27v224h34q0 -87 61.5 -139.5t152.5 -52.5q81 0 121 35.5t40 91.5q0 63 -41.5 103t-147.5 68q-111 30 -163.5 71t-52.5 127q0 80 56 131t155 51q123 0 179 -78l18 78h27v-221h-34q0 99 -55 144t-134 45q-76 0 -119.5 -37.5t-43.5 -97.5
q0 -38 13.5 -65.5t43.5 -46.5t59 -30.5t79 -25.5q110 -30 160 -73t50 -128q0 -74 -50 -124t-160 -50zM190 740h-28l123 132h23l118 -132h-28l-102 86z" />
    <glyph glyph-name="uni015D" unicode="&#x15d;" horiz-adv-x="482" 
d="M97 62l-16 -72h-23v177h29q4 -69 53 -108.5t125 -39.5q118 0 118 93q0 45 -34.5 71.5t-117.5 44.5q-94 19 -130.5 51.5t-36.5 88.5q0 61 45 97t115 36q104 0 149 -61l11 61h23v-161h-29q-4 67 -45.5 99.5t-108.5 32.5q-54 0 -83 -26.5t-29 -65.5q0 -43 31 -69t121 -44
q83 -18 125 -50.5t42 -94.5q0 -61 -40 -96.5t-120 -35.5q-65 0 -109 21.5t-65 50.5zM127 601h-28l135 159h16l131 -159h-28l-111 107z" />
    <glyph glyph-name="uni015E" unicode="&#x15e;" horiz-adv-x="579" 
d="M307 -189q-41 0 -66 19v28q22 -19 55 -19q51 0 51 38q0 51 -78 51v12l18 51q-116 8 -174 84l-22 -85h-27v224h34q0 -87 61.5 -139.5t152.5 -52.5q81 0 121 35.5t40 91.5q0 63 -41.5 103t-147.5 68q-111 30 -163.5 71t-52.5 127q0 80 56 131t155 51q123 0 179 -78l18 78
h27v-221h-34q0 99 -55 144t-134 45q-76 0 -119.5 -37.5t-43.5 -97.5q0 -38 13.5 -65.5t43.5 -46.5t59 -30.5t79 -25.5q110 -30 160 -73t50 -128q0 -73 -49 -123.5t-155 -50.5l-12 -35q83 -10 83 -74q0 -33 -21.5 -51.5t-60.5 -18.5z" />
    <glyph glyph-name="uni015F" unicode="&#x15f;" horiz-adv-x="482" 
d="M250 -189q-41 0 -66 19v28q22 -19 55 -19q51 0 51 38q0 51 -78 51v12l18 53q-91 12 -133 69l-16 -72h-23v177h29q4 -69 53 -108.5t125 -39.5q118 0 118 93q0 45 -34.5 71.5t-117.5 44.5q-94 19 -130.5 51.5t-36.5 88.5q0 61 45 97t115 36q104 0 149 -61l11 61h23v-161
h-29q-4 67 -45.5 99.5t-108.5 32.5q-54 0 -83 -26.5t-29 -65.5q0 -43 31 -69t121 -44q83 -18 125 -50.5t42 -94.5q0 -61 -40 -96.5t-120 -35.5h-11l-11 -35q83 -10 83 -74q0 -33 -21.5 -51.5t-60.5 -18.5z" />
    <glyph glyph-name="uni0160" unicode="&#x160;" horiz-adv-x="579" 
d="M312 -10q-134 0 -199 85l-22 -85h-27v224h34q0 -87 61.5 -139.5t152.5 -52.5q81 0 121 35.5t40 91.5q0 63 -41.5 103t-147.5 68q-111 30 -163.5 71t-52.5 127q0 80 56 131t155 51q123 0 179 -78l18 78h27v-221h-34q0 99 -55 144t-134 45q-76 0 -119.5 -37.5t-43.5 -97.5
q0 -38 13.5 -65.5t43.5 -46.5t59 -30.5t79 -25.5q110 -30 160 -73t50 -128q0 -74 -50 -124t-160 -50zM178 872h-28l123 -132h23l118 132h-28l-102 -86z" />
    <glyph glyph-name="uni0161" unicode="&#x161;" horiz-adv-x="482" 
d="M97 62l-16 -72h-23v177h29q4 -69 53 -108.5t125 -39.5q118 0 118 93q0 45 -34.5 71.5t-117.5 44.5q-94 19 -130.5 51.5t-36.5 88.5q0 61 45 97t115 36q104 0 149 -61l11 61h23v-161h-29q-4 67 -45.5 99.5t-108.5 32.5q-54 0 -83 -26.5t-29 -65.5q0 -43 31 -69t121 -44
q83 -18 125 -50.5t42 -94.5q0 -61 -40 -96.5t-120 -35.5q-65 0 -109 21.5t-65 50.5zM123 760h-28l135 -159h16l131 159h-28l-111 -107z" />
    <glyph glyph-name="uni0162" unicode="&#x162;" horiz-adv-x="619" 
d="M188 0v29h94v632h-127q-52 0 -68.5 -16t-16.5 -70v-85h-35v200h550v-200h-35v85q0 55 -16 70.5t-69 15.5h-127v-632h95v-29h-245zM281 -231v23q23 4 37 23t14 43q0 17 -2 22q-8 -5 -21 -5q-16 0 -26.5 9.5t-10.5 25.5q0 17 11 27.5t30 10.5q23 0 35.5 -18t12.5 -48
q0 -48 -21 -77.5t-59 -35.5z" />
    <glyph glyph-name="uni0163" unicode="&#x163;" horiz-adv-x="386" 
d="M238 -10q-61 0 -97.5 36.5t-36.5 116.5v319h-90v23h31q47 0 63 29t16 87v70h32v-180h196v-29h-195v-316q0 -126 91 -126q86 0 86 144h29q0 -88 -29.5 -131t-95.5 -43zM193 -231v23q23 4 37 23t14 43q0 17 -2 22q-8 -5 -21 -5q-16 0 -26.5 9.5t-10.5 25.5q0 17 11 27.5
t30 10.5q23 0 35.5 -18t12.5 -48q0 -48 -21 -77.5t-59 -35.5z" />
    <glyph glyph-name="uni0164" unicode="&#x164;" horiz-adv-x="619" 
d="M188 0v29h94v632h-127q-52 0 -68.5 -16t-16.5 -70v-85h-35v200h550v-200h-35v85q0 55 -16 70.5t-69 15.5h-127v-632h95v-29h-245zM204 872h-28l123 -132h23l118 132h-28l-102 -86z" />
    <glyph glyph-name="uni0165" unicode="&#x165;" horiz-adv-x="386" 
d="M309 659v23q23 4 37 23t14 43q0 17 -2 22q-8 -5 -21 -5q-16 0 -26.5 9.5t-10.5 25.5q0 17 11 27.5t30 10.5q23 0 35.5 -18t12.5 -48q0 -48 -21 -77.5t-59 -35.5zM238 -10q-61 0 -97.5 36.5t-36.5 116.5v319h-90v23h31q47 0 63 29t16 87v70h32v-180h196v-29h-195v-316
q0 -126 91 -126q86 0 86 144h29q0 -88 -29.5 -131t-95.5 -43z" />
    <glyph glyph-name="uni0166" unicode="&#x166;" horiz-adv-x="624" 
d="M435 29v-29h-245v29h94v303h-167v29h167v300h-127q-52 0 -68.5 -16t-16.5 -70v-85h-35v200h550v-200h-35v85q0 55 -16 70.5t-69 15.5h-127v-300h167v-29h-167v-303h95z" />
    <glyph glyph-name="uni0167" unicode="&#x167;" horiz-adv-x="390" 
d="M366 164q0 -88 -29.5 -131t-95.5 -43q-61 0 -97.5 36.5t-36.5 116.5v159h-90v29h90v131h-90v23h31q47 0 63 29t16 87v70h32v-180h196v-29h-195v-131h195v-29h-195v-148q0 -134 91 -134q86 0 86 144h29z" />
    <glyph glyph-name="uni0168" unicode="&#x168;" horiz-adv-x="722" 
d="M596 242q0 -252 -230 -252q-119 0 -180 67.5t-61 185.5v418h-89v29h234v-29h-89v-417q0 -104 48 -162t144 -58q184 0 184 222v415h-90v29h219v-29h-90v-419zM306 820q-46 0 -46 -68h-23q0 49 18.5 76.5t54.5 27.5q31 0 69.5 -33.5t61.5 -33.5q45 0 45 67h23
q0 -104 -73 -104q-33 0 -72 34t-58 34z" />
    <glyph glyph-name="uni0169" unicode="&#x169;" horiz-adv-x="592" 
d="M444 -3v125q-35 -132 -170 -132q-172 0 -172 206v266h-81v29q73 0 93.5 1.5t28.5 8.5l13 -7v-289q0 -177 136 -177q64 0 102 45.5t38 138.5v250h-87v29q74 0 97 1.5t30 8.5l13 -7v-462h82v-29q-60 0 -81 -2t-30 -11zM355 618q-27 0 -50.5 18t-44 35.5t-40.5 17.5
q-48 0 -48 -67h-23q0 50 19 79.5t56 29.5q28 0 51.5 -17.5t44 -35.5t40.5 -18q47 0 47 67h23q0 -55 -17.5 -82t-57.5 -27z" />
    <glyph glyph-name="uni016A" unicode="&#x16a;" horiz-adv-x="722" 
d="M250 776v32h234v-32h-234zM596 242q0 -252 -230 -252q-119 0 -180 67.5t-61 185.5v418h-89v29h234v-29h-89v-417q0 -104 48 -162t144 -58q184 0 184 222v415h-90v29h219v-29h-90v-419z" />
    <glyph glyph-name="uni016B" unicode="&#x16b;" horiz-adv-x="592" 
d="M444 -3v125q-35 -132 -170 -132q-172 0 -172 206v266h-81v29q73 0 93.5 1.5t28.5 8.5l13 -7v-289q0 -177 136 -177q64 0 102 45.5t38 138.5v250h-87v29q74 0 97 1.5t30 8.5l13 -7v-462h82v-29q-60 0 -81 -2t-30 -11zM166 638v32h234v-32h-234z" />
    <glyph glyph-name="uni016C" unicode="&#x16c;" horiz-adv-x="722" 
d="M596 242q0 -252 -230 -252q-119 0 -180 67.5t-61 185.5v418h-89v29h234v-29h-89v-417q0 -104 48 -162t144 -58q184 0 184 222v415h-90v29h219v-29h-90v-419zM372 787q82 0 96 85h21q-9 -125 -117 -125q-60 0 -91.5 35t-35.5 90h21q18 -85 106 -85z" />
    <glyph glyph-name="uni016D" unicode="&#x16d;" horiz-adv-x="592" 
d="M444 -3v125q-35 -132 -170 -132q-172 0 -172 206v266h-81v29q73 0 93.5 1.5t28.5 8.5l13 -7v-289q0 -177 136 -177q64 0 102 45.5t38 138.5v250h-87v29q74 0 97 1.5t30 8.5l13 -7v-462h82v-29q-60 0 -81 -2t-30 -11zM288 647q83 0 88 96h21q0 -136 -109 -136
q-61 0 -90 39.5t-29 96.5h21q3 -44 28.5 -70t69.5 -26z" />
    <glyph glyph-name="uni016E" unicode="&#x16e;" horiz-adv-x="722" 
d="M596 242q0 -252 -230 -252q-119 0 -180 67.5t-61 185.5v418h-89v29h234v-29h-89v-417q0 -104 48 -162t144 -58q184 0 184 222v415h-90v29h219v-29h-90v-419zM368 733q-37 0 -63 22.5t-26 58.5t26 58.5t63 22.5t63 -22.5t26 -58.5t-26 -58.5t-63 -22.5zM368 759
q24 0 42 15t18 40t-17.5 40t-42.5 15t-42.5 -15t-17.5 -40t17.5 -40t42.5 -15z" />
    <glyph glyph-name="uni016F" unicode="&#x16f;" horiz-adv-x="592" 
d="M444 -3v125q-35 -132 -170 -132q-172 0 -172 206v266h-81v29q73 0 93.5 1.5t28.5 8.5l13 -7v-289q0 -177 136 -177q64 0 102 45.5t38 138.5v250h-87v29q74 0 97 1.5t30 8.5l13 -7v-462h82v-29q-60 0 -81 -2t-30 -11zM290 590q-40 0 -66 25.5t-26 65.5q0 39 26 64.5
t66 25.5t66.5 -25.5t26.5 -64.5q0 -40 -26 -65.5t-67 -25.5zM290 620q27 0 44 16.5t17 44.5q0 27 -17 44t-44 17q-26 0 -43 -17t-17 -44t17 -44t43 -17z" />
    <glyph glyph-name="uni0170" unicode="&#x170;" horiz-adv-x="722" 
d="M596 242q0 -252 -230 -252q-119 0 -180 67.5t-61 185.5v418h-89v29h234v-29h-89v-417q0 -104 48 -162t144 -58q184 0 184 222v415h-90v29h219v-29h-90v-419zM394 822l-74 -82h-32l64 109q27 47 47 47q26 0 26 -25q0 -11 -31 -49zM536 814l-87 -74h-32l76 102q33 44 51 44
q13 0 20 -8t7 -19q0 -13 -35 -45z" />
    <glyph glyph-name="uni0171" unicode="&#x171;" horiz-adv-x="592" 
d="M444 -3v125q-35 -132 -170 -132q-172 0 -172 206v266h-81v29q73 0 93.5 1.5t28.5 8.5l13 -7v-289q0 -177 136 -177q64 0 102 45.5t38 138.5v250h-87v29q74 0 97 1.5t30 8.5l13 -7v-462h82v-29q-60 0 -81 -2t-30 -11zM231 601h-23l59 106q31 65 56 65q27 0 27 -24
q0 -22 -58 -79zM356 601h-23l79 100q22 30 36.5 42.5t28.5 12.5q12 0 19 -6.5t7 -16.5q0 -23 -67 -69z" />
    <glyph glyph-name="uni0172" unicode="&#x172;" horiz-adv-x="722" 
d="M415 -172q-41 0 -68 21.5t-27 63.5q0 53 50 77h-4q-119 0 -180 67.5t-61 185.5v418h-89v29h234v-29h-89v-417q0 -104 48 -162t144 -58q184 0 184 222v415h-90v29h219v-29h-90v-419q0 -209 -157 -244q-73 -17 -73 -81q0 -29 17 -44t46 -15q39 0 64 22v-25q-27 -27 -78 -27
z" />
    <glyph glyph-name="uni0173" unicode="&#x173;" horiz-adv-x="592" 
d="M461 -163q-41 0 -67.5 20.5t-26.5 60.5q0 62 77 82v122q-35 -132 -170 -132q-172 0 -172 206v266h-81v29q73 0 93.5 1.5t28.5 8.5l13 -7v-289q0 -177 136 -177q64 0 102 45.5t38 138.5v250h-87v29q74 0 97 1.5t30 8.5l13 -7v-462h82v-29q-64 0 -88 -8q-65 -18 -65 -74
q0 -26 16.5 -40t43.5 -14q41 0 67 22v-25q-27 -27 -80 -27z" />
    <glyph glyph-name="uni0174" unicode="&#x174;" horiz-adv-x="925" 
d="M632 -5l-166 625l-166 -625h-59l-167 666h-76v29h205v-29h-78l154 -616l172 645h44l171 -646l145 617h-76v29h188v-29h-76l-156 -666h-59zM369 740h-28l123 132h23l118 -132h-28l-102 86z" />
    <glyph glyph-name="uni0175" unicode="&#x175;" horiz-adv-x="755" 
d="M515 -5l-133 439l-135 -439h-46l-131 467h-60v29h178v-29h-66l115 -411l137 444h34l135 -445l112 412h-63v29h150v-29h-57l-126 -467h-44zM277 601h-28l135 159h16l131 -159h-28l-111 107z" />
    <glyph glyph-name="uni0176" unicode="&#x176;" horiz-adv-x="612" 
d="M432 29v-29h-245v29h94v269l-218 363h-68v29h200v-29h-75l196 -327l186 327h-72v29h177v-29h-67l-203 -358v-274h95zM211 740h-28l123 132h23l118 -132h-28l-102 86z" />
    <glyph glyph-name="uni0177" unicode="&#x177;" horiz-adv-x="538" 
d="M113 -260q-48 0 -75.5 26.5t-27.5 67.5q0 20 11 32t28 12q14 0 24 -9t10 -24q0 -18 -10.5 -28.5t-26.5 -10.5q14 -38 65 -38q46 0 70.5 41t83.5 192l-193 461h-65v29h187v-29h-64l163 -389l146 389h-66v29h160v-29h-63l-179 -476q-57 -152 -88.5 -199t-89.5 -47zM178 601
h-28l135 159h16l131 -159h-28l-111 107z" />
    <glyph glyph-name="uni0178" unicode="&#x178;" horiz-adv-x="612" 
d="M432 29v-29h-245v29h94v269l-218 363h-68v29h200v-29h-75l196 -327l186 327h-72v29h177v-29h-67l-203 -358v-274h95zM263 803q0 -13 -9 -25t-29 -12q-19 0 -27.5 12t-8.5 25t8.5 25.5t27.5 12.5q20 0 29 -12.5t9 -25.5zM443 803q0 -13 -9 -25t-29 -12q-19 0 -27.5 12
t-8.5 25t8.5 25.5t27.5 12.5q20 0 29 -12.5t9 -25.5z" />
    <glyph glyph-name="uni0179" unicode="&#x179;" horiz-adv-x="567" 
d="M517 0h-470v28l410 633h-274q-54 0 -73.5 -16.5t-19.5 -69.5v-82h-35v197h459v-28l-410 -633h296q51 0 66.5 19.5t15.5 71.5v81h35v-201zM290 740l90 68q47 34 47 52q0 10 -7.5 17t-20.5 7q-21 0 -61 -48l-78 -96h30z" />
    <glyph glyph-name="uni017A" unicode="&#x17a;" horiz-adv-x="486" 
d="M437 0h-383v32l317 430h-207q-45 0 -62 -17t-17 -56v-64h-31v166h370v-32l-316 -430h221q45 0 61 17t16 57v64h31v-167zM246 601h-23l68 100q38 55 62 55q28 0 28 -23q0 -19 -65 -69z" />
    <glyph glyph-name="uni017B" unicode="&#x17b;" horiz-adv-x="567" 
d="M517 0h-470v28l410 633h-274q-54 0 -73.5 -16.5t-19.5 -69.5v-82h-35v197h459v-28l-410 -633h296q51 0 66.5 19.5t15.5 71.5v81h35v-201zM286 765q-17 0 -28.5 11.5t-11.5 27.5t11.5 27.5t28.5 11.5t28 -11.5t11 -27.5t-11 -27.5t-28 -11.5z" />
    <glyph glyph-name="uni017C" unicode="&#x17c;" horiz-adv-x="486" 
d="M437 0h-383v32l317 430h-207q-45 0 -62 -17t-17 -56v-64h-31v166h370v-32l-316 -430h221q45 0 61 17t16 57v64h31v-167zM285 656q0 -13 -10 -26.5t-31 -13.5t-30.5 13t-9.5 27t9.5 27.5t30.5 13.5t31 -13.5t10 -27.5z" />
    <glyph glyph-name="uni017D" unicode="&#x17d;" horiz-adv-x="567" 
d="M517 0h-470v28l410 633h-274q-54 0 -73.5 -16.5t-19.5 -69.5v-82h-35v197h459v-28l-410 -633h296q51 0 66.5 19.5t15.5 71.5v81h35v-201zM188 872h-28l123 -132h23l118 132h-28l-102 -86z" />
    <glyph glyph-name="uni017E" unicode="&#x17e;" horiz-adv-x="486" 
d="M437 0h-383v32l317 430h-207q-45 0 -62 -17t-17 -56v-64h-31v166h370v-32l-316 -430h221q45 0 61 17t16 57v64h31v-167zM130 760h-28l135 -159h16l131 159h-28l-111 -107z" />
    <glyph glyph-name="uni018F" unicode="&#x18f;" horiz-adv-x="660" 
d="M327 -10q-124 0 -200 97.5t-76 265.5h495q-2 147 -61 231t-168 84q-86 0 -143.5 -45.5t-63.5 -141.5h-35v219h28l22 -84q25 35 74.5 59.5t119.5 24.5q142 0 214 -100t72 -256q0 -95 -29 -173t-94 -129.5t-155 -51.5zM327 22q100 0 157.5 80.5t61.5 221.5h-436
q4 -143 61.5 -222.5t155.5 -79.5z" />
    <glyph glyph-name="uni0192" unicode="&#x192;" horiz-adv-x="327" 
d="M-36 -260q-50 0 -78.5 28t-28.5 68q0 22 11.5 34.5t29.5 12.5q15 0 24.5 -9.5t9.5 -24.5q0 -36 -37 -44q17 -36 67 -36q46 0 68 45.5t35 149.5l61 498h-93l4 29h93l5 40q15 126 60 177.5t116 51.5q51 0 80.5 -25t29.5 -66q0 -46 -39 -46q-15 0 -24.5 8.5t-9.5 22.5
q0 37 38 40q-17 37 -74 37q-49 0 -79.5 -42.5t-43.5 -152.5l-6 -45h138l-4 -29h-137l-57 -462q-16 -135 -50.5 -197.5t-108.5 -62.5z" />
    <glyph glyph-name="uni01C4" unicode="&#x1c4;" horiz-adv-x="1207" 
d="M296 0h-244v29h90v632h-90v29h244q106 0 184 -50.5t114 -127t36 -166.5t-36 -167t-113.5 -128t-184.5 -51zM198 661v-632h91q124 0 203 83t79 234q0 149 -79.5 232t-202.5 83h-91zM1157 0h-470v28l410 633h-274q-54 0 -73.5 -16.5t-19.5 -69.5v-82h-35v197h459v-28
l-410 -633h296q51 0 66.5 19.5t15.5 71.5v81h35v-201zM828 872h-28l123 -132h23l118 132h-28l-102 -86z" />
    <glyph glyph-name="uni01C5" unicode="&#x1c5;" horiz-adv-x="1158" 
d="M296 0h-244v29h90v632h-90v29h244q106 0 184 -50.5t114 -127t36 -166.5t-36 -167t-113.5 -128t-184.5 -51zM198 661v-632h91q124 0 203 83t79 234q0 149 -79.5 232t-202.5 83h-91zM1109 0h-383v32l317 430h-207q-45 0 -62 -17t-17 -56v-64h-31v166h370v-32l-316 -430h221
q45 0 61 17t16 57v64h31v-167zM802 760h-28l135 -159h16l131 159h-28l-111 -107z" />
    <glyph glyph-name="uni01C6" unicode="&#x1c6;" horiz-adv-x="1084" 
d="M482 753v-720h82v-29q-94 0 -114 -14l-12 7v136q-17 -70 -63.5 -106.5t-108.5 -36.5q-88 0 -152.5 69t-64.5 185q0 118 63.5 187.5t153.5 69.5q62 0 106.5 -32.5t61.5 -91.5q-5 118 -5 248v96h-82v29q74 0 94.5 1.5t29.5 8.5zM272 472q-73 0 -119.5 -62t-47.5 -166
q-1 -107 48 -166t119 -59q68 0 113 61t45 160v17q0 100 -44.5 157.5t-113.5 57.5zM1035 0h-383v32l317 430h-207q-45 0 -62 -17t-17 -56v-64h-31v166h370v-32l-316 -430h221q45 0 61 17t16 57v64h31v-167zM726 760h-28l135 -159h16l131 159h-28l-111 -107z" />
    <glyph glyph-name="uni01C7" unicode="&#x1c7;" horiz-adv-x="1010" 
d="M52 0v29h90v632h-90v29h240v-29h-94v-632h178q52 0 67.5 19.5t15.5 71.5v71h35v-191h-442zM884 221q0 -117 -41.5 -174t-133.5 -57q-82 0 -125 44t-43 97q0 21 11.5 33.5t29.5 12.5q17 0 27 -10.5t10 -25.5q0 -16 -11 -27t-25 -15q10 -39 45.5 -58t78.5 -19
q68 0 94.5 44.5t26.5 138.5v456h-95v29h240v-29h-89v-440z" />
    <glyph glyph-name="uni01C8" unicode="&#x1c8;" horiz-adv-x="820" 
d="M52 0v29h90v632h-90v29h240v-29h-94v-632h209q53 0 70.5 20.5t17.5 70.5v71h35v-191h-478zM740 656q0 -13 -10 -26.5t-31 -13.5t-30.5 13t-9.5 27t9.5 27.5t30.5 13.5t31 -13.5t10 -27.5zM586 -260q-58 0 -92.5 34t-34.5 77q0 41 36 41q17 0 26.5 -9t9.5 -25
q0 -32 -32 -42q18 -48 84 -48q53 0 74 41.5t21 137.5v515h-82v29q72 0 91.5 1.5t30.5 8.5l13 -7v-527q0 -118 -33.5 -172.5t-111.5 -54.5z" />
    <glyph glyph-name="uni01C9" unicode="&#x1c9;" horiz-adv-x="552" 
d="M30 0v29h81v692h-81v29q74 0 94.5 1.5t29.5 8.5l10 -7v-724h82v-29h-216zM472 656q0 -13 -10 -26.5t-31 -13.5t-30.5 13t-9.5 27t9.5 27.5t30.5 13.5t31 -13.5t10 -27.5zM318 -260q-58 0 -92.5 34t-34.5 77q0 41 36 41q17 0 26.5 -9t9.5 -25q0 -32 -32 -42q18 -48 84 -48
q53 0 74 41.5t21 137.5v515h-82v29q72 0 91.5 1.5t30.5 8.5l13 -7v-527q0 -118 -33.5 -172.5t-111.5 -54.5z" />
    <glyph glyph-name="uni01CA" unicode="&#x1ca;" horiz-adv-x="1146" 
d="M271 29v-29h-219v29h90v632h-90v29h143l372 -592v563h-90v29h219v-29h-90v-666h-32l-393 625v-591h90zM1019 221q0 -117 -41 -174t-133 -57q-82 0 -125 44t-43 97q0 22 11 34t30 12q16 0 26.5 -10.5t10.5 -25.5q0 -33 -36 -42q7 -30 39 -53.5t85 -23.5q68 0 94 44.5
t26 138.5v456h-94v29h240v-29h-90v-440z" />
    <glyph glyph-name="uni01CB" unicode="&#x1cb;" horiz-adv-x="987" 
d="M271 29v-29h-219v29h90v632h-90v29h143l372 -592v563h-90v29h219v-29h-90v-666h-32l-393 625v-591h90zM907 656q0 -13 -10 -26.5t-31 -13.5t-30.5 13t-9.5 27t9.5 27.5t30.5 13.5t31 -13.5t10 -27.5zM753 -260q-58 0 -92.5 34t-34.5 77q0 41 36 41q17 0 26.5 -9t9.5 -25
q0 -32 -32 -42q18 -48 84 -48q53 0 74 41.5t21 137.5v515h-82v29q72 0 91.5 1.5t30.5 8.5l13 -7v-527q0 -118 -33.5 -172.5t-111.5 -54.5z" />
    <glyph glyph-name="uni01CC" unicode="&#x1cc;" horiz-adv-x="868" 
d="M249 29v-29h-214v29h82v433h-82v29q65 0 82.5 1.5t28.5 8.5l12 -7v-126q14 58 57 95.5t112 37.5q172 0 172 -203v-269h82v-29h-214v29h79v269q0 164 -137 164q-65 0 -102 -43t-37 -132v-258h79zM788 656q0 -13 -10 -26.5t-31 -13.5t-30.5 13t-9.5 27t9.5 27.5t30.5 13.5
t31 -13.5t10 -27.5zM634 -260q-58 0 -92.5 34t-34.5 77q0 41 36 41q17 0 26.5 -9t9.5 -25q0 -32 -32 -42q18 -48 84 -48q53 0 74 41.5t21 137.5v515h-82v29q72 0 91.5 1.5t30.5 8.5l13 -7v-527q0 -118 -33.5 -172.5t-111.5 -54.5z" />
    <glyph glyph-name="uni01D3" unicode="&#x1d3;" horiz-adv-x="722" 
d="M596 242q0 -252 -230 -252q-119 0 -180 67.5t-61 185.5v418h-89v29h234v-29h-89v-417q0 -104 48 -162t144 -58q184 0 184 222v415h-90v29h219v-29h-90v-419zM263 872h-28l123 -132h23l118 132h-28l-102 -86z" />
    <glyph glyph-name="uni01D4" unicode="&#x1d4;" horiz-adv-x="592" 
d="M444 -3v125q-35 -132 -170 -132q-172 0 -172 206v266h-81v29q73 0 93.5 1.5t28.5 8.5l13 -7v-289q0 -177 136 -177q64 0 102 45.5t38 138.5v250h-87v29q74 0 97 1.5t30 8.5l13 -7v-462h82v-29q-60 0 -81 -2t-30 -11zM168 760h-28l135 -159h16l131 159h-28l-111 -107z" />
    <glyph glyph-name="uni01E2" unicode="&#x1e2;" horiz-adv-x="891" 
d="M427 661h-35l-189 -412h224v412zM182 29v-29h-189v29h73l290 632h-80v29h544v-186h-35v71q0 52 -22 69t-77 17h-203v-295l227 6v-39l-227 5v-309h222q53 0 71 20t18 71v71h35v-191h-491v29h89v192h-237l-88 -192h80zM468 776v32h234v-32h-234z" />
    <glyph glyph-name="uni01E3" unicode="&#x1e3;" horiz-adv-x="835" 
d="M591 -10q-75 0 -127.5 38.5t-74.5 108.5q-17 -71 -66.5 -109t-119.5 -38q-69 0 -112 33.5t-43 99.5q0 154 252 154h63v49q0 147 -132 147q-45 0 -82.5 -18.5t-46.5 -50.5q17 0 25.5 -9.5t8.5 -21.5q0 -16 -9.5 -25t-25.5 -9q-17 0 -26.5 9.5t-9.5 26.5q0 51 50 88.5
t127 37.5q135 0 161 -114q26 53 72 83.5t106 30.5q99 0 153.5 -65t54.5 -162v-22h-370v-10q0 -102 44.5 -162.5t130.5 -60.5q129 0 165 125l24 -8q-17 -71 -67 -108.5t-125 -37.5zM581 475q-75 0 -116.5 -56.5t-45.5 -141.5h314q-2 85 -40 141.5t-112 56.5zM214 25
q70 0 109.5 44.5t39.5 127.5v55h-63q-197 3 -197 -122q0 -52 31.5 -78.5t79.5 -26.5zM286 638v32h234v-32h-234z" />
    <glyph glyph-name="uni01F1" unicode="&#x1f1;" horiz-adv-x="1207" 
d="M296 0h-244v29h90v632h-90v29h244q106 0 184 -50.5t114 -127t36 -166.5t-36 -167t-113.5 -128t-184.5 -51zM198 661v-632h91q124 0 203 83t79 234q0 149 -79.5 232t-202.5 83h-91zM1157 0h-470v28l410 633h-274q-54 0 -73.5 -16.5t-19.5 -69.5v-82h-35v197h459v-28
l-410 -633h296q51 0 66.5 19.5t15.5 71.5v81h35v-201z" />
    <glyph glyph-name="uni01F2" unicode="&#x1f2;" horiz-adv-x="1158" 
d="M296 0h-244v29h90v632h-90v29h244q106 0 184 -50.5t114 -127t36 -166.5t-36 -167t-113.5 -128t-184.5 -51zM198 661v-632h91q124 0 203 83t79 234q0 149 -79.5 232t-202.5 83h-91zM1109 0h-383v32l317 430h-207q-45 0 -62 -17t-17 -56v-64h-31v166h370v-32l-316 -430h221
q45 0 61 17t16 57v64h31v-167z" />
    <glyph glyph-name="uni01F3" unicode="&#x1f3;" horiz-adv-x="1084" 
d="M482 753v-720h82v-29q-94 0 -114 -14l-12 7v136q-17 -70 -63.5 -106.5t-108.5 -36.5q-88 0 -152.5 69t-64.5 185q0 118 63.5 187.5t153.5 69.5q62 0 106.5 -32.5t61.5 -91.5q-5 118 -5 248v96h-82v29q74 0 94.5 1.5t29.5 8.5zM272 472q-73 0 -119.5 -62t-47.5 -166
q-1 -107 48 -166t119 -59q68 0 113 61t45 160v17q0 100 -44.5 157.5t-113.5 57.5zM1035 0h-383v32l317 430h-207q-45 0 -62 -17t-17 -56v-64h-31v166h370v-32l-316 -430h221q45 0 61 17t16 57v64h31v-167z" />
    <glyph glyph-name="uni01FA" unicode="&#x1fa;" horiz-adv-x="644" 
d="M443 251l-131 376l-131 -376h262zM182 0h-182v29h68l231 661h46l231 -661h71v-29h-202v29h76l-68 193h-282l-68 -193h79v-29zM322 733q-37 0 -63 22.5t-26 58.5t26 58.5t63 22.5t63 -22.5t26 -58.5t-26 -58.5t-63 -22.5zM322 759q24 0 42 15t18 40t-17.5 40t-42.5 15
t-42.5 -15t-17.5 -40t17.5 -40t42.5 -15zM328 939l90 68q47 34 47 52q0 10 -7.5 17t-20.5 7q-21 0 -61 -48l-78 -96h30z" />
    <glyph glyph-name="uni01FB" unicode="&#x1fb;" horiz-adv-x="537" 
d="M446 -10q-82 0 -79 112q-39 -112 -170 -112q-65 0 -107 33.5t-42 99.5q0 154 252 154h63v49q0 147 -132 147q-43 0 -79 -17.5t-50 -49.5q34 -4 34 -33q0 -16 -9.5 -25t-25.5 -9q-17 0 -26.5 9.5t-9.5 26.5q0 51 50 88.5t127 37.5q174 0 174 -179v-226q0 -68 45 -68
q46 0 46 95h24q0 -68 -20 -100.5t-65 -32.5zM214 25q64 0 106.5 39t42.5 110v76h-63q-196 0 -196 -120q0 -52 31 -78.5t79 -26.5zM247 590q-40 0 -66 25.5t-26 65.5q0 39 26 64.5t66 25.5t66.5 -25.5t26.5 -64.5q0 -40 -26 -65.5t-67 -25.5zM247 620q27 0 44 16.5t17 44.5
q0 27 -17 44t-44 17q-26 0 -43 -17t-17 -44t16.5 -44t43.5 -17zM247 808l90 68q47 34 47 52q0 10 -7.5 17t-20.5 7t-25.5 -10.5t-35.5 -37.5l-78 -96h30z" />
    <glyph glyph-name="uni01FC" unicode="&#x1fc;" horiz-adv-x="891" 
d="M427 661h-35l-189 -412h224v412zM182 29v-29h-189v29h73l290 632h-80v29h544v-186h-35v71q0 52 -22 69t-77 17h-203v-295l227 6v-39l-227 5v-309h222q53 0 71 20t18 71v71h35v-191h-491v29h89v192h-237l-88 -192h80zM578 740l90 68q47 34 47 52q0 10 -7.5 17t-20.5 7
q-21 0 -61 -48l-78 -96h30z" />
    <glyph glyph-name="uni01FD" unicode="&#x1fd;" horiz-adv-x="835" 
d="M591 -10q-75 0 -127.5 38.5t-74.5 108.5q-17 -71 -66.5 -109t-119.5 -38q-69 0 -112 33.5t-43 99.5q0 154 252 154h63v49q0 147 -132 147q-45 0 -82.5 -18.5t-46.5 -50.5q17 0 25.5 -9.5t8.5 -21.5q0 -16 -9.5 -25t-25.5 -9q-17 0 -26.5 9.5t-9.5 26.5q0 51 50 88.5
t127 37.5q135 0 161 -114q26 53 72 83.5t106 30.5q99 0 153.5 -65t54.5 -162v-22h-370v-10q0 -102 44.5 -162.5t130.5 -60.5q129 0 165 125l24 -8q-17 -71 -67 -108.5t-125 -37.5zM581 475q-75 0 -116.5 -56.5t-45.5 -141.5h314q-2 85 -40 141.5t-112 56.5zM214 25
q70 0 109.5 44.5t39.5 127.5v55h-63q-197 3 -197 -122q0 -52 31.5 -78.5t79.5 -26.5zM420 601h-23l68 100q38 55 62 55q28 0 28 -23q0 -19 -65 -69z" />
    <glyph glyph-name="uni01FE" unicode="&#x1fe;" horiz-adv-x="697" 
d="M116 345q0 -142 58 -229l334 471q-61 81 -162 81q-102 0 -166 -86t-64 -237zM346 22q102 0 166 86t64 237q0 131 -50 215l-332 -470q60 -68 152 -68zM346 -10q-103 0 -177 66l-66 -94h-38l82 116q-90 102 -90 267q0 95 32 174.5t99.5 130t157.5 50.5q113 0 188 -77
l72 101h37l-88 -124q80 -100 80 -255q0 -148 -77.5 -251.5t-211.5 -103.5zM354 740l90 68q47 34 47 52q0 10 -7.5 17t-20.5 7q-21 0 -61 -48l-78 -96h30z" />
    <glyph glyph-name="uni01FF" unicode="&#x1ff;" horiz-adv-x="543" 
d="M105 245q0 -101 44 -163l232 342q-42 48 -109 48q-78 0 -122.5 -63t-44.5 -164zM272 19q78 0 122 62.5t44 163.5q0 94 -38 155l-232 -340q43 -41 104 -41zM272 -10q-70 0 -125 39l-51 -75h-34l63 93q-76 73 -76 198q0 113 63 184.5t160 71.5q74 0 131 -44l54 79h35
l-67 -99q69 -72 69 -192q0 -113 -62.5 -184t-159.5 -71zM284 601h-23l68 100q38 55 62 55q28 0 28 -23q0 -19 -65 -69z" />
    <glyph glyph-name="uni0218" unicode="&#x218;" horiz-adv-x="579" 
d="M312 -10q-134 0 -199 85l-22 -85h-27v224h34q0 -87 61.5 -139.5t152.5 -52.5q81 0 121 35.5t40 91.5q0 63 -41.5 103t-147.5 68q-111 30 -163.5 71t-52.5 127q0 80 56 131t155 51q123 0 179 -78l18 78h27v-221h-34q0 99 -55 144t-134 45q-76 0 -119.5 -37.5t-43.5 -97.5
q0 -38 13.5 -65.5t43.5 -46.5t59 -30.5t79 -25.5q110 -30 160 -73t50 -128q0 -74 -50 -124t-160 -50zM279 -231v23q23 4 37 23t14 43q0 17 -2 22q-8 -5 -21 -5q-16 0 -26.5 9.5t-10.5 25.5q0 17 11 27.5t30 10.5q23 0 35.5 -18t12.5 -48q0 -48 -21 -77.5t-59 -35.5z" />
    <glyph glyph-name="uni0219" unicode="&#x219;" horiz-adv-x="482" 
d="M97 62l-16 -72h-23v177h29q4 -69 53 -108.5t125 -39.5q118 0 118 93q0 45 -34.5 71.5t-117.5 44.5q-94 19 -130.5 51.5t-36.5 88.5q0 61 45 97t115 36q104 0 149 -61l11 61h23v-161h-29q-4 67 -45.5 99.5t-108.5 32.5q-54 0 -83 -26.5t-29 -65.5q0 -43 31 -69t121 -44
q83 -18 125 -50.5t42 -94.5q0 -61 -40 -96.5t-120 -35.5q-65 0 -109 21.5t-65 50.5zM228 -231v23q23 4 37 23t14 43q0 17 -2 22q-8 -5 -21 -5q-16 0 -26.5 9.5t-10.5 25.5q0 17 11 27.5t30 10.5q23 0 35.5 -18t12.5 -48q0 -48 -21 -77.5t-59 -35.5z" />
    <glyph glyph-name="uni021A" unicode="&#x21a;" horiz-adv-x="619" 
d="M188 0v29h94v632h-127q-52 0 -68.5 -16t-16.5 -70v-85h-35v200h550v-200h-35v85q0 55 -16 70.5t-69 15.5h-127v-632h95v-29h-245zM281 -231v23q23 4 37 23t14 43q0 17 -2 22q-8 -5 -21 -5q-16 0 -26.5 9.5t-10.5 25.5q0 17 11 27.5t30 10.5q23 0 35.5 -18t12.5 -48
q0 -48 -21 -77.5t-59 -35.5z" />
    <glyph glyph-name="uni021B" unicode="&#x21b;" horiz-adv-x="386" 
d="M238 -10q-61 0 -97.5 36.5t-36.5 116.5v319h-90v23h31q47 0 63 29t16 87v70h32v-180h196v-29h-195v-316q0 -126 91 -126q86 0 86 144h29q0 -88 -29.5 -131t-95.5 -43zM193 -231v23q23 4 37 23t14 43q0 17 -2 22q-8 -5 -21 -5q-16 0 -26.5 9.5t-10.5 25.5q0 17 11 27.5
t30 10.5q23 0 35.5 -18t12.5 -48q0 -48 -21 -77.5t-59 -35.5z" />
    <glyph glyph-name="uni0232" unicode="&#x232;" horiz-adv-x="612" 
d="M432 29v-29h-245v29h94v269l-218 363h-68v29h200v-29h-75l196 -327l186 327h-72v29h177v-29h-67l-203 -358v-274h95zM199 776v32h234v-32h-234z" />
    <glyph glyph-name="uni0233" unicode="&#x233;" horiz-adv-x="538" 
d="M113 -260q-48 0 -75.5 26.5t-27.5 67.5q0 20 11 32t28 12q14 0 24 -9t10 -24q0 -18 -10.5 -28.5t-26.5 -10.5q14 -38 65 -38q46 0 70.5 41t83.5 192l-193 461h-65v29h187v-29h-64l163 -389l146 389h-66v29h160v-29h-63l-179 -476q-57 -152 -88.5 -199t-89.5 -47zM172 638
v32h234v-32h-234z" />
    <glyph glyph-name="uni0237" unicode="&#x237;" horiz-adv-x="265" 
d="M31 -260q-58 0 -92.5 34t-34.5 77q0 41 36 41q17 0 26.5 -9t9.5 -25q0 -32 -32 -42q18 -48 84 -48q53 0 74 41.5t21 137.5v515h-82v29q72 0 91.5 1.5t30.5 8.5l13 -7v-527q0 -118 -33.5 -172.5t-111.5 -54.5z" />
    <glyph glyph-name="uni0259" unicode="&#x259;" horiz-adv-x="521" 
d="M244 501q104 0 166 -70t62 -188q0 -112 -61 -182.5t-157 -70.5q-99 0 -153.5 65t-54.5 162v22h370v10q0 102 -44.5 162.5t-130.5 60.5q-129 0 -165 -125l-24 8q17 71 67 108.5t125 37.5zM254 16q75 0 116.5 56.5t45.5 141.5h-314q2 -85 40 -141.5t112 -56.5z" />
    <glyph glyph-name="uni02BC" unicode="&#x2bc;" horiz-adv-x="211" 
d="M68 505v27q47 27 52 80q-48 9 -48 46q0 14 11 27t31 13q22 0 33.5 -14.5t11.5 -37.5q0 -101 -91 -141z" />
    <glyph glyph-name="circumflex" unicode="&#x2c6;" horiz-adv-x="448" 
d="M111 600h-28l135 159h16l131 -159h-28l-111 107z" />
    <glyph glyph-name="caron" unicode="&#x2c7;" horiz-adv-x="448" 
d="M111 760h-28l135 -159h16l131 159h-28l-111 -107z" />
    <glyph glyph-name="breve" unicode="&#x2d8;" horiz-adv-x="416" 
d="M213 647q83 0 88 96h21q0 -136 -109 -136q-61 0 -90 39.5t-29 96.5h21q3 -44 28.5 -70t69.5 -26z" />
    <glyph glyph-name="dotaccent" unicode="&#x2d9;" horiz-adv-x="287" 
d="M172 656q0 -13 -10 -26.5t-31 -13.5t-30.5 13t-9.5 27t9.5 27.5t30.5 13.5t31 -13.5t10 -27.5z" />
    <glyph glyph-name="ring" unicode="&#x2da;" horiz-adv-x="348" 
d="M180 590q-40 0 -66 25.5t-26 65.5q0 39 26 64.5t66 25.5t66.5 -25.5t26.5 -64.5q0 -40 -26 -65.5t-67 -25.5zM180 620q27 0 44 16.5t17 44.5q0 27 -17 44t-44 17q-26 0 -43 -17t-17 -44t17 -44t43 -17z" />
    <glyph glyph-name="ogonek" unicode="&#x2db;" horiz-adv-x="366" 
d="M184 0h50q-81 -15 -81 -83q0 -29 17 -44t46 -15q39 0 64 22v-25q-27 -27 -78 -27q-41 0 -68 21.5t-27 63.5q0 67 77 87z" />
    <glyph glyph-name="tilde" unicode="&#x2dc;" horiz-adv-x="485" 
d="M308 618q-27 0 -50.5 18t-44 35.5t-40.5 17.5q-48 0 -48 -67h-23q0 50 19 79.5t56 29.5q28 0 51.5 -17.5t44 -35.5t40.5 -18q47 0 47 67h23q0 -55 -17.5 -82t-57.5 -27z" />
    <glyph glyph-name="hungarumlaut" unicode="&#x2dd;" horiz-adv-x="504" 
d="M126 601h-23l59 106q31 65 56 65q27 0 27 -24q0 -22 -58 -79zM251 601h-23l79 100q22 30 36.5 42.5t28.5 12.5q12 0 19 -6.5t7 -16.5q0 -23 -67 -69z" />
    <glyph glyph-name="uni0323" unicode="&#x323;" horiz-adv-x="247" 
d="M124 -131q-17 0 -28.5 11.5t-11.5 27.5t11.5 27.5t28.5 11.5t28 -11.5t11 -27.5t-11 -27.5t-28 -11.5z" />
    <glyph glyph-name="uni0326" unicode="&#x326;" horiz-adv-x="229" 
d="M82 -231v23q23 4 37 23t14 43q0 17 -2 22q-8 -5 -21 -5q-16 0 -26.5 9.5t-10.5 25.5q0 17 11 27.5t30 10.5q23 0 35.5 -18t12.5 -48q0 -48 -21 -77.5t-59 -35.5z" />
    <glyph glyph-name="uni0394" unicode="&#x394;" horiz-adv-x="595" 
d="M15 0v22l262 668h44l256 -668v-22h-562zM53 29h467l-231 602z" />
    <glyph glyph-name="uni03A3" unicode="&#x3a3;" horiz-adv-x="575" 
d="M515 188v-188h-488v29l254 319l-254 313v29h483v-186h-35v71q0 52 -22 69t-77 17h-281l237 -292v-11l-263 -329h322q53 0 71 20t18 71v68h35z" />
    <glyph glyph-name="uni03A9" unicode="&#x3a9;" horiz-adv-x="812" 
d="M357 26v-26h-293v160h29v-62q0 -36 14 -50t53 -14h145q-88 51 -144.5 147t-56.5 203q0 137 82.5 226.5t219.5 89.5t219.5 -89.5t82.5 -226.5q0 -107 -56.5 -203t-144.5 -147h145q39 0 53 14t14 50v62h29v-160h-292v26q75 41 134.5 133.5t59.5 224.5q0 139 -70.5 211.5
t-173.5 72.5q-104 0 -174 -72t-70 -212q0 -132 59.5 -225t135.5 -133z" />
    <glyph glyph-name="uni03C0" unicode="&#x3c0;" horiz-adv-x="601" 
d="M478 -10q-89 0 -89 121v340h-177q0 -254 -29.5 -357.5t-95.5 -103.5q-26 0 -39.5 12.5t-13.5 28.5t10.5 27.5t27.5 11.5q18 0 29.5 -9.5t11.5 -25.5q65 53 65 416h-7q-76 0 -121 -42v30q46 52 155 52h327v-40h-90v-341q0 -82 50 -82q26 0 39 24.5t13 86.5h24
q0 -80 -21.5 -114.5t-68.5 -34.5z" />
    <glyph glyph-name="uni0401" unicode="&#x401;" horiz-adv-x="605" 
d="M52 0v29h90v632h-90v29h483v-186h-35v71q0 52 -21.5 69t-77.5 17h-203v-295l227 6v-39l-227 5v-309h222q52 0 70 20t18 71v71h35v-191h-491zM269 802q0 -13 -9 -25t-29 -12q-19 0 -27.5 12t-8.5 25t8.5 25.5t27.5 12.5q20 0 29 -12.5t9 -25.5zM449 802q0 -13 -9 -25
t-29 -12q-19 0 -27.5 12t-8.5 25t8.5 25.5t27.5 12.5q20 0 29 -12.5t9 -25.5z" />
    <glyph glyph-name="uni0402" unicode="&#x402;" horiz-adv-x="755" 
d="M331 361q63 37 151 37q111 0 173.5 -51t62.5 -150q0 -98 -57 -150t-169 -52v29q85 0 126 47.5t41 125.5q0 82 -49 125.5t-140 43.5q-88 0 -139 -35v-302h76v-29h-227v29h95v632h-123q-51 0 -67.5 -14.5t-16.5 -63.5v-77h-35v184h540v-184h-35v77q0 50 -14 64t-66 14h-127
v-300z" />
    <glyph glyph-name="uni0403" unicode="&#x403;" horiz-adv-x="544" 
d="M52 0v29h90v632h-90v29h461v-181h-35v72q0 51 -21.5 65.5t-77.5 14.5h-181v-632h103v-29h-249zM310 740l90 68q47 34 47 52q0 10 -7.5 17t-20.5 7q-21 0 -61 -48l-78 -96h30z" />
    <glyph glyph-name="uni0404" unicode="&#x404;" horiz-adv-x="624" 
d="M562 212v-222h-27l-22 76q-32 -40 -80.5 -58t-95.5 -18q-71 0 -126.5 30t-89 81t-50.5 113.5t-17 131.5q0 93 31 172t96 130.5t153 51.5q112 0 176 -71l21 70h28v-217h-35q0 91 -51 138.5t-136 47.5q-95 0 -157.5 -77.5t-66.5 -224.5l323 6v-40l-323 6q2 -152 64 -234
t166 -82q78 0 131.5 48.5t53.5 141.5h34z" />
    <glyph glyph-name="uni0405" unicode="&#x405;" horiz-adv-x="579" 
d="M312 -10q-134 0 -199 85l-22 -85h-27v224h34q0 -87 61.5 -139.5t152.5 -52.5q81 0 121 35.5t40 91.5q0 63 -41.5 103t-147.5 68q-111 30 -163.5 71t-52.5 127q0 80 56 131t155 51q123 0 179 -78l18 78h27v-221h-34q0 99 -55 144t-134 45q-76 0 -119.5 -37.5t-43.5 -97.5
q0 -38 13.5 -65.5t43.5 -46.5t59 -30.5t79 -25.5q110 -30 160 -73t50 -128q0 -74 -50 -124t-160 -50z" />
    <glyph glyph-name="uni0406" unicode="&#x406;" horiz-adv-x="339" 
d="M287 0h-235v29h90v632h-90v29h235v-29h-89v-632h89v-29z" />
    <glyph glyph-name="uni0407" unicode="&#x407;" horiz-adv-x="339" 
d="M117 802q0 -13 -9 -25t-29 -12q-19 0 -27.5 12t-8.5 25t8.5 25.5t27.5 12.5q20 0 29 -12.5t9 -25.5zM297 802q0 -13 -9 -25t-29 -12q-19 0 -27.5 12t-8.5 25t8.5 25.5t27.5 12.5q20 0 29 -12.5t9 -25.5zM287 0h-235v29h90v632h-90v29h235v-29h-89v-632h89v-29z" />
    <glyph glyph-name="uni0408" unicode="&#x408;" horiz-adv-x="488" 
d="M361 221q0 -117 -41 -174t-133 -57q-82 0 -125 44t-43 97q0 22 11 34t30 12q16 0 26.5 -10.5t10.5 -25.5q0 -33 -36 -42q7 -30 39 -53.5t85 -23.5q68 0 94 44.5t26 138.5v456h-94v29h240v-29h-90v-440z" />
    <glyph glyph-name="uni0409" unicode="&#x409;" horiz-adv-x="956" 
d="M248 661q0 -188 -8.5 -312t-28.5 -206.5t-51.5 -117.5t-80.5 -35q-68 0 -68 57q0 17 10 29.5t29 12.5t29 -10.5t10 -25.5q0 -18 -8 -27q73 4 101 150.5t28 484.5h-95v29h535v-29h-89v-258h93q133 0 201.5 -52t68.5 -144q0 -91 -69 -149t-204 -58h-230v29h84v632h-257z
M657 374h-96v-345h94q106 0 158 48.5t52 129.5q0 78 -51.5 122.5t-156.5 44.5z" />
    <glyph glyph-name="uni040A" unicode="&#x40a;" horiz-adv-x="985" 
d="M590 29h99q103 0 154 43.5t51 122.5q0 161 -204 161h-100v-327zM277 29v-29h-225v29h90v632h-90v29h225v-29h-79v-276h336v276h-79v29h224v-29h-89v-276h94q130 0 199.5 -50t69.5 -140q0 -91 -69.5 -143t-201.5 -52h-227v29h79v327h-336v-327h79z" />
    <glyph glyph-name="uni040B" unicode="&#x40b;" horiz-adv-x="795" 
d="M331 359q78 39 161 39q99 0 154 -43.5t55 -146.5v-179h89v-29h-229v29h84v175q0 89 -42.5 125.5t-122.5 36.5q-44 0 -87 -13.5t-62 -24.5v-299h82v-29h-233v29h95v632h-123q-51 0 -67.5 -14.5t-16.5 -63.5v-77h-35v184h540v-184h-35v77q0 50 -14 64t-66 14h-127v-302z
" />
    <glyph glyph-name="uni040C" unicode="&#x40c;" horiz-adv-x="691" 
d="M570 -10q-55 0 -81 36.5t-48 115.5q-34 119 -62 157t-94 38h-87v-308h84v-29h-230v29h90v632h-90v29h230v-29h-84v-295h87q43 0 73 34.5t47.5 83.5t34.5 98t44.5 83.5t66.5 34.5q32 0 49 -15.5t17 -40.5q0 -19 -10.5 -30.5t-28.5 -11.5q-16 0 -27.5 9.5t-11.5 24.5
q0 12 7 22.5t18 13.5q-8 2 -13 2q-33 0 -58 -45t-40 -100.5t-44.5 -108t-68.5 -64.5q27 -8 47 -16.5t35.5 -25.5t24 -27t19 -40t14.5 -43.5t17 -58.5q20 -71 35.5 -97t47.5 -26q56 0 56 131h29q0 -79 -21.5 -121t-73.5 -42zM380 740l90 68q47 34 47 52q0 10 -7.5 17t-20.5 7
q-21 0 -61 -48l-78 -96h30z" />
    <glyph glyph-name="uni040E" unicode="&#x40e;" horiz-adv-x="630" 
d="M200 -10q-43 0 -66 21t-23 55q0 18 10.5 30.5t29.5 12.5q37 0 37 -35q0 -14 -8.5 -24.5t-23.5 -12.5q14 -15 44 -15q34 0 58.5 27t47.5 82l11 28l-239 502h-73v29h207v-29h-77l209 -439l177 439h-73v29h181v-29h-72l-190 -472q-46 -114 -80 -156.5t-87 -42.5zM465 835
q0 -45 -37.5 -71.5t-96.5 -26.5t-96.5 26.5t-37.5 71.5q0 40 36 40q33 0 33 -31q0 -14 -10 -24.5t-26 -8.5q26 -49 101 -49t101 49q-17 -1 -26.5 9t-9.5 24t9.5 22.5t24.5 8.5q35 0 35 -40z" />
    <glyph glyph-name="uni040F" unicode="&#x40f;" horiz-adv-x="742" 
d="M371 -187q-17 0 -26.5 11.5t-9.5 24.5q0 8 10.5 53t11.5 98h-305v29h90v632h-90v29h225v-29h-79v-632h347v632h-80v29h225v-29h-89v-632h89v-29h-304q1 -53 11 -97.5t10 -53.5q0 -13 -9.5 -24.5t-26.5 -11.5z" />
    <glyph glyph-name="uni0410" unicode="&#x410;" horiz-adv-x="644" 
d="M443 251l-131 376l-131 -376h262zM182 0h-182v29h68l231 661h46l231 -661h71v-29h-202v29h76l-68 193h-282l-68 -193h79v-29z" />
    <glyph glyph-name="uni0411" unicode="&#x411;" horiz-adv-x="612" 
d="M198 661v-270h96q136 0 203 -49.5t67 -140.5q0 -87 -69 -144t-204 -57h-239v29h90v632h-90v29h474v-181h-35v72q0 51 -21.5 65.5t-77.5 14.5h-194zM297 363h-99v-334h97q106 0 158 47.5t52 124.5q0 76 -51 119t-157 43z" />
    <glyph glyph-name="uni0412" unicode="&#x412;" horiz-adv-x="632" 
d="M52 0v29h90v632h-90v29h251q119 0 181.5 -45t62.5 -129q0 -67 -42 -106.5t-103 -52.5q76 -12 128 -53t52 -115q0 -95 -62.5 -142t-194.5 -47h-273zM302 661h-104v-295h116q86 0 130.5 40t44.5 106q0 67 -46 108t-141 41zM328 340h-130v-311h126q199 0 199 158
q0 73 -53 113t-142 40z" />
    <glyph glyph-name="uni0413" unicode="&#x413;" horiz-adv-x="544" 
d="M52 0v29h90v632h-90v29h461v-181h-35v72q0 51 -21.5 65.5t-77.5 14.5h-181v-632h103v-29h-249z" />
    <glyph glyph-name="uni0414" unicode="&#x414;" horiz-adv-x="701" 
d="M502 661h-283q-1 -464 -87 -632h370v632zM47 -170h-35v199h75q52 96 72.5 239t20.5 393h-95v29h562v-29h-89v-632h104v-199h-35v76q0 55 -20 74.5t-73 19.5h-393q-53 0 -73.5 -19.5t-20.5 -74.5v-76z" />
    <glyph glyph-name="uni0415" unicode="&#x415;" horiz-adv-x="605" 
d="M52 0v29h90v632h-90v29h483v-186h-35v71q0 52 -21.5 69t-77.5 17h-203v-295l227 6v-39l-227 5v-309h222q52 0 70 20t18 71v71h35v-191h-491z" />
    <glyph glyph-name="uni0416" unicode="&#x416;" horiz-adv-x="1008" 
d="M885 -10q-56 0 -83 37t-49 115q-35 123 -59.5 159t-90.5 36h-71v-308h85v-29h-225v29h84v308h-70q-66 0 -91.5 -36.5t-59.5 -158.5q-22 -78 -49 -115t-82 -37q-53 0 -74 42t-21 121h29q0 -131 59 -131q30 0 46 26t37 97q32 111 55.5 148.5t90.5 61.5q-34 12 -60.5 49.5
t-42 82t-30 87.5t-34 71.5t-44.5 28.5q-8 0 -12 -1q25 -6 25 -37q0 -15 -10.5 -24.5t-26.5 -9.5q-18 0 -29.5 11.5t-11.5 30.5q0 24 17.5 40t49.5 16q39 0 66.5 -34.5t44 -84t33.5 -98.5t48.5 -83.5t76.5 -34.5h70v296h-84v29h225v-29h-85v-296h71q45 0 76 34.5t48.5 83.5
t33.5 98.5t43.5 84t66.5 34.5q32 0 49.5 -15.5t17.5 -39.5q0 -20 -10.5 -31.5t-28.5 -11.5q-17 0 -28 9.5t-11 24.5q0 13 7.5 23.5t18.5 12.5q-8 2 -13 2q-28 0 -48.5 -28.5t-35 -71.5t-29.5 -87.5t-40 -82t-57 -49.5q69 -25 93.5 -62.5t55.5 -147.5q21 -72 36 -97.5
t47 -25.5q56 0 56 131h29q0 -79 -21 -121t-74 -42z" />
    <glyph glyph-name="uni0417" unicode="&#x417;" horiz-adv-x="569" 
d="M289 -10q-133 0 -189 78l-22 -78h-22v215h35q0 -93 54 -138t138 -45q89 0 132 43t43 119t-48 115t-133 39q-16 0 -46 -1t-32 -1v34q51 -3 78 -3q73 0 112 42t39 113q0 66 -39 106t-114 40q-79 0 -125 -46t-46 -140h-34v218h21l23 -78q51 78 162 78q102 0 156 -47t54 -126
q0 -141 -142 -172q172 -27 172 -174q0 -90 -60.5 -140.5t-166.5 -50.5z" />
    <glyph glyph-name="uni0418" unicode="&#x418;" horiz-adv-x="777" 
d="M282 0h-230v29h90v632h-90v29h230v-29h-84v-511l381 446v65h-84v29h229v-29h-89v-632h89v-29h-229v29h84v521l-381 -446v-75h84v-29z" />
    <glyph glyph-name="uni0419" unicode="&#x419;" horiz-adv-x="777" 
d="M282 0h-230v29h90v632h-90v29h230v-29h-84v-511l381 446v65h-84v29h229v-29h-89v-632h89v-29h-229v29h84v521l-381 -446v-75h84v-29zM519 835q0 -45 -37.5 -71.5t-96.5 -26.5t-96.5 26.5t-37.5 71.5q0 40 36 40q33 0 33 -31q0 -14 -10 -24.5t-26 -8.5q26 -49 101 -49
t101 49q-17 -1 -26.5 9t-9.5 24t9.5 22.5t24.5 8.5q35 0 35 -40z" />
    <glyph glyph-name="uni041A" unicode="&#x41a;" horiz-adv-x="691" 
d="M570 -10q-55 0 -81 36.5t-48 115.5q-34 119 -62 157t-94 38h-87v-308h84v-29h-230v29h90v632h-90v29h230v-29h-84v-295h87q43 0 73 34.5t47.5 83.5t34.5 98t44.5 83.5t66.5 34.5q32 0 49 -15.5t17 -40.5q0 -19 -10.5 -30.5t-28.5 -11.5q-16 0 -27.5 9.5t-11.5 24.5
q0 12 7 22.5t18 13.5q-8 2 -13 2q-33 0 -58 -45t-40 -100.5t-44.5 -108t-68.5 -64.5q27 -8 47 -16.5t35.5 -25.5t24 -27t19 -40t14.5 -43.5t17 -58.5q20 -71 35.5 -97t47.5 -26q56 0 56 131h29q0 -79 -21.5 -121t-73.5 -42z" />
    <glyph glyph-name="uni041B" unicode="&#x41b;" horiz-adv-x="703" 
d="M248 661q0 -188 -8.5 -312t-28.5 -206.5t-51.5 -117.5t-80.5 -35q-68 0 -68 57q0 17 10 29.5t29 12.5t29 -10.5t10 -25.5q0 -18 -8 -27q73 4 101 150.5t28 484.5h-95v29h535v-29h-89v-632h89v-29h-229v29h84v632h-257z" />
    <glyph glyph-name="uni041C" unicode="&#x41c;" horiz-adv-x="894" 
d="M266 29v-29h-214v29h90v632h-90v29h163l234 -533l234 533h158v-29h-89v-632h89v-29h-230v29h85v609l-240 -547h-34l-241 548v-610h85z" />
    <glyph glyph-name="uni041D" unicode="&#x41d;" horiz-adv-x="758" 
d="M52 0v29h90v632h-90v29h230v-29h-84v-293h362v293h-85v29h230v-29h-89v-632h89v-29h-230v29h85v310h-362v-310h84v-29h-230z" />
    <glyph glyph-name="uni041E" unicode="&#x41e;" horiz-adv-x="686" 
d="M632 345q0 -148 -77.5 -251.5t-211.5 -103.5q-90 0 -157.5 50.5t-99.5 130t-32 174.5t32 174.5t99.5 130t157.5 50.5q134 0 211.5 -103.5t77.5 -251.5zM113 345q0 -152 64 -237.5t166 -85.5t166 86t64 237t-64 237t-166 86t-166 -86t-64 -237z" />
    <glyph glyph-name="uni041F" unicode="&#x41f;" horiz-adv-x="742" 
d="M52 0v29h90v632h-90v29h638v-29h-89v-632h89v-29h-230v29h85v632h-347v-632h84v-29h-230z" />
    <glyph glyph-name="uni0420" unicode="&#x420;" horiz-adv-x="590" 
d="M52 0v29h90v632h-90v29h234q133 0 202.5 -53t69.5 -144q0 -88 -69 -143t-200 -55h-91v-266h96v-29h-242zM290 661h-92v-337h94q208 0 208 169q0 78 -51.5 123t-158.5 45z" />
    <glyph glyph-name="uni0421" unicode="&#x421;" horiz-adv-x="624" 
d="M513 66q-32 -40 -80.5 -58t-95.5 -18q-71 0 -126.5 30t-89 81t-50.5 113.5t-17 131.5q0 93 31 172t96 130.5t153 51.5q112 0 176 -71l21 70h28v-217h-35q0 91 -51 138.5t-136 47.5q-98 0 -161 -83t-63 -239q0 -155 62 -239.5t168 -84.5q78 0 131.5 48.5t53.5 141.5h34
v-222h-27z" />
    <glyph glyph-name="uni0422" unicode="&#x422;" horiz-adv-x="619" 
d="M188 0v29h94v632h-127q-52 0 -68.5 -16t-16.5 -70v-85h-35v200h550v-200h-35v85q0 55 -16 70.5t-69 15.5h-127v-632h95v-29h-245z" />
    <glyph glyph-name="uni0423" unicode="&#x423;" horiz-adv-x="630" 
d="M200 -10q-43 0 -66 21t-23 55q0 18 10.5 30.5t29.5 12.5q37 0 37 -35q0 -14 -8.5 -24.5t-23.5 -12.5q14 -15 44 -15q34 0 58.5 27t47.5 82l11 28l-239 502h-73v29h207v-29h-77l209 -439l177 439h-73v29h181v-29h-72l-190 -472q-46 -114 -80 -156.5t-87 -42.5z" />
    <glyph glyph-name="uni0424" unicode="&#x424;" horiz-adv-x="771" 
d="M413 592q142 -1 230.5 -60.5t88.5 -177.5q0 -119 -88 -178t-231 -60v-97h91v-29h-237v29h90v97q-142 0 -230.5 60.5t-88.5 178.5t87.5 176.5t231.5 60.5v79h-90v29h237v-29h-91v-79zM673 354q0 104 -67.5 156t-192.5 52v-416q260 0 260 208zM97 355q0 -105 67.5 -157
t192.5 -52v416q-260 0 -260 -207z" />
    <glyph glyph-name="uni0425" unicode="&#x425;" horiz-adv-x="651" 
d="M193 0h-181v29h74l215 321l-209 311h-70v29h205v-29h-74l181 -269l177 269h-72v29h181v-29h-71l-196 -298l224 -334h68v-29h-201v29h72l-196 293l-196 -293h69v-29z" />
    <glyph glyph-name="uni0426" unicode="&#x426;" horiz-adv-x="744" 
d="M670 -170v76q0 55 -21.5 74.5t-77.5 19.5h-519v29h90v632h-90v29h225v-29h-79v-632h347v632h-80v29h225v-29h-89v-632h104v-199h-35z" />
    <glyph glyph-name="uni0427" unicode="&#x427;" horiz-adv-x="698" 
d="M406 0v29h94v292q-72 -34 -168 -34q-111 0 -169.5 47t-58.5 154v173h-89v29h230v-29h-85v-181q0 -90 46 -126t126 -36q96 0 168 34v309h-89v29h234v-29h-89v-632h89v-29h-239z" />
    <glyph glyph-name="uni0428" unicode="&#x428;" horiz-adv-x="1021" 
d="M52 0v29h90v632h-90v29h222v-29h-76v-632h285v632h-79v29h213v-29h-78v-632h285v632h-77v29h222v-29h-89v-632h89v-29h-917z" />
    <glyph glyph-name="uni0429" unicode="&#x429;" horiz-adv-x="1023" 
d="M949 -170v76q0 55 -22 74.5t-78 19.5h-797v29h90v632h-90v29h222v-29h-76v-632h285v632h-79v29h213v-29h-78v-632h285v632h-77v29h222v-29h-89v-632h104v-199h-35z" />
    <glyph glyph-name="uni042A" unicode="&#x42a;" horiz-adv-x="706" 
d="M401 0h-236v29h90v632h-116q-39 0 -53.5 -18.5t-14.5 -61.5v-91h-35v200h365v-29h-90v-258h93q133 0 201.5 -52t68.5 -144q0 -91 -69 -149t-204 -58zM407 374h-96v-345h94q106 0 158 48.5t52 129.5q0 78 -51.5 122.5t-156.5 44.5z" />
    <glyph glyph-name="uni042B" unicode="&#x42b;" horiz-adv-x="886" 
d="M291 403q133 0 201.5 -52t68.5 -144q0 -91 -69 -149t-204 -58h-236v29h90v632h-90v29h236v-29h-90v-258h93zM294 374h-96v-345h94q106 0 158 48.5t52 129.5q0 78 -51.5 122.5t-156.5 44.5zM834 0h-235v29h90v632h-90v29h235v-29h-89v-632h89v-29z" />
    <glyph glyph-name="uni042C" unicode="&#x42c;" horiz-adv-x="593" 
d="M291 403q133 0 201.5 -52t68.5 -144q0 -91 -69 -149t-204 -58h-236v29h90v632h-90v29h236v-29h-90v-258h93zM294 374h-96v-345h94q106 0 158 48.5t52 129.5q0 78 -51.5 122.5t-156.5 44.5z" />
    <glyph glyph-name="uni042D" unicode="&#x42d;" horiz-adv-x="620" 
d="M110 66l-21 -76h-28v221h35q0 -90 54 -139.5t136 -49.5q99 0 159.5 82.5t62.5 232.5l-318 -5v40l318 -6q-4 145 -66.5 223.5t-157.5 78.5q-80 0 -130.5 -46t-54.5 -140h-35v218h28l22 -74q66 74 174 74q89 0 153 -50t94.5 -129t30.5 -175q0 -69 -16 -130.5t-48 -113
t-87.5 -82t-126.5 -30.5q-60 0 -108.5 22t-69.5 54z" />
    <glyph glyph-name="uni042E" unicode="&#x42e;" horiz-adv-x="952" 
d="M625 -10q-83 0 -146.5 50.5t-95.5 129t-33 169.5h-152v-310h84v-29h-230v29h90v632h-90v29h230v-29h-84v-293h153q4 88 36.5 162.5t95 122t142.5 47.5q83 0 147 -51.5t95.5 -131.5t31.5 -172t-31.5 -172t-95.5 -131.5t-147 -51.5zM409 345q0 -149 59.5 -236t156.5 -87
q96 0 155.5 87t59.5 236q0 148 -59.5 235.5t-155.5 87.5t-156 -87.5t-60 -235.5z" />
    <glyph glyph-name="uni042F" unicode="&#x42f;" horiz-adv-x="662" 
d="M355 351h109v310h-108q-87 0 -134.5 -43t-47.5 -118q0 -71 46.5 -110t134.5 -39zM95 -10q-100 0 -100 163h29q0 -131 60 -131q31 0 46 26.5t37 101.5q26 89 47.5 122t80.5 56q-89 10 -134.5 56t-45.5 117q0 83 63 136t176 53h255v-29h-89v-632h89v-29h-236v29h91v293h-81
q-72 0 -103 -38.5t-59 -137.5q-10 -35 -15.5 -51.5t-16.5 -41t-22.5 -35.5t-29.5 -19.5t-42 -8.5z" />
    <glyph glyph-name="uni0430" unicode="&#x430;" horiz-adv-x="537" 
d="M446 -10q-82 0 -79 112q-39 -112 -170 -112q-65 0 -107 33.5t-42 99.5q0 154 252 154h63v49q0 147 -132 147q-43 0 -79 -17.5t-50 -49.5q34 -4 34 -33q0 -16 -9.5 -25t-25.5 -9q-17 0 -26.5 9.5t-9.5 26.5q0 51 50 88.5t127 37.5q174 0 174 -179v-226q0 -68 45 -68
q46 0 46 95h24q0 -68 -20 -100.5t-65 -32.5zM214 25q64 0 106.5 39t42.5 110v76h-63q-196 0 -196 -120q0 -52 31 -78.5t79 -26.5z" />
    <glyph glyph-name="uni0431" unicode="&#x431;" horiz-adv-x="568" 
d="M299 492q96 0 157.5 -66.5t61.5 -182.5q0 -117 -63.5 -185t-157.5 -68q-109 0 -168.5 77t-59.5 209q0 160 28 252.5t82.5 132t148.5 46.5q79 5 110 16t31 37h23q0 -56 -34 -75.5t-130 -26.5q-69 -5 -111 -23.5t-66.5 -59t-33.5 -95.5t-11 -145h3q18 75 68.5 116t121.5 41
zM297 19q74 0 119.5 60t45.5 164q0 103 -44 161.5t-120 58.5t-123 -57.5t-47 -163.5q0 -100 44 -161.5t125 -61.5z" />
    <glyph glyph-name="uni0432" unicode="&#x432;" horiz-adv-x="529" 
d="M35 0v29h82v433h-82v29h223q92 0 144.5 -26t52.5 -94q0 -52 -33 -80t-83 -35q142 -16 142 -120q0 -41 -17 -69.5t-49.5 -42t-67.5 -19t-82 -5.5h-230zM262 464h-92v-198h90q73 0 106 24t33 74t-31 75t-106 25zM170 27h99q80 0 118 23.5t38 84.5t-43 83t-121 22h-91v-213z
" />
    <glyph glyph-name="uni0433" unicode="&#x433;" horiz-adv-x="455" 
d="M265 0h-230v29h82v433h-82v29h386v-156h-32v57q0 42 -16 56t-61 14h-142v-433h95v-29z" />
    <glyph glyph-name="uni0434" unicode="&#x434;" horiz-adv-x="566" 
d="M389 462h-203q0 -316 -63 -433h266v433zM442 29h100v-177h-32v68q0 41 -19.5 60.5t-64.5 19.5h-297q-45 0 -64.5 -19t-19.5 -61v-68h-32v177h70q71 111 71 433h-79v29h448v-29h-81v-433z" />
    <glyph glyph-name="uni0435" unicode="&#x435;" horiz-adv-x="522" 
d="M278 -10q-104 0 -166 70t-62 188q0 112 61 182.5t157 70.5q99 0 153.5 -65t54.5 -162v-22h-370v-10q0 -102 44.5 -162.5t130.5 -60.5q129 0 165 125l24 -8q-17 -71 -67 -108.5t-125 -37.5zM268 475q-75 0 -116.5 -56.5t-45.5 -141.5h314q-2 85 -40 141.5t-112 56.5z" />
    <glyph glyph-name="uni0436" unicode="&#x436;" horiz-adv-x="861" 
d="M753 -10q-45 0 -69.5 29t-46.5 99q-22 65 -45 92t-71 27h-63v-208h69v-29h-192v29h70v208h-64q-47 0 -70 -27t-45 -92q-23 -72 -46 -100t-66 -28q-42 0 -60 35t-18 103h27q0 -106 46 -106q20 0 30.5 17t31.5 75q4 11 6 17q22 60 45.5 85.5t81.5 36.5q-30 3 -51.5 27.5
t-33 56.5l-23 64t-29.5 54t-44 22q-24 0 -35 -15q34 -2 34 -34q0 -15 -9 -24t-25 -9q-17 0 -27 11t-10 28q0 30 20.5 48.5t51.5 18.5q37 0 61.5 -24.5t37.5 -59t25.5 -69t35.5 -59t58 -24.5h64v197h-70v29h192v-29h-69v-197h63q35 0 58 24.5t35 59t25 69t37.5 59t61.5 24.5
q31 0 49.5 -18t18.5 -48q0 -40 -34 -40q-17 0 -26.5 9.5t-9.5 23.5q0 13 10 23.5t24 10.5q-11 14 -35 14q-30 0 -50.5 -33.5t-31.5 -74t-35.5 -76t-59.5 -39.5q61 -12 87.5 -38.5t43.5 -83.5q20 -67 33 -88t37 -21q41 0 41 106h26q0 -69 -16 -103.5t-57 -34.5z" />
    <glyph glyph-name="uni0437" unicode="&#x437;" horiz-adv-x="477" 
d="M233 -10q-91 0 -142 36.5t-51 86.5q0 17 9.5 28t26.5 11q35 0 35 -35q0 -21 -31 -37q14 -29 53 -46t91 -17q143 0 143 115q0 50 -33.5 77t-92.5 27q-26 0 -62 -3v34q5 0 30 -1t28 -1q58 0 85.5 28t27.5 75q0 50 -31 77t-88 27q-59 0 -96.5 -35.5t-41.5 -101.5h-29v166h23
l19 -62q40 62 144 62q73 0 114 -32.5t41 -89.5q0 -50 -31 -82.5t-79 -42.5q51 -8 89.5 -36t38.5 -86q0 -142 -190 -142z" />
    <glyph glyph-name="uni0438" unicode="&#x438;" horiz-adv-x="624" 
d="M241 29v-29h-206v29h82v433h-82v29h206v-29h-71v-349l284 304v45h-72v29h207v-29h-82v-433h82v-29h-207v29h72v349l-284 -304v-45h71z" />
    <glyph glyph-name="uni0439" unicode="&#x439;" horiz-adv-x="624" 
d="M241 29v-29h-206v29h82v433h-82v29h206v-29h-71v-349l284 304v45h-72v29h207v-29h-82v-433h82v-29h-207v29h72v349l-284 -304v-45h71zM457 700q0 -51 -38.5 -80t-105.5 -29t-105.5 29t-38.5 80q0 22 11 34t29 12q16 0 26 -10t10 -25q0 -18 -11.5 -28t-26.5 -8
q7 -26 35 -42t71 -16t71 16t35 42q-17 0 -27.5 9.5t-10.5 26.5q0 15 10 25t26 10q18 0 29 -12t11 -34z" />
    <glyph glyph-name="uni043A" unicode="&#x43a;" horiz-adv-x="585" 
d="M473 -10q-46 0 -69 28t-45 100q-22 66 -44.5 92.5t-71.5 26.5h-73v-208h70v-29h-205v29h82v433h-82v29h205v-29h-70v-197h74q34 0 56 24.5t34 59t24.5 69t36.5 59t60 24.5q33 0 51 -17t18 -49q0 -40 -34 -40q-17 0 -26.5 9.5t-9.5 23.5t9.5 23.5t25.5 9.5q-10 13 -37 13
q-24 0 -41 -21.5t-28 -53t-22.5 -63.5t-31.5 -56t-49 -27q62 -12 87.5 -38t43.5 -84q21 -67 35 -88t40 -21q41 0 41 106h27q0 -138 -81 -138z" />
    <glyph glyph-name="uni043B" unicode="&#x43b;" horiz-adv-x="546" 
d="M188 462q0 -472 -126 -472q-24 0 -35.5 11.5t-11.5 27.5q0 17 10.5 28t27.5 11q29 0 37 -27q66 78 66 421h-77v29h432v-29h-82v-433h82v-29h-210v29h75v433h-188z" />
    <glyph glyph-name="uni043C" unicode="&#x43c;" horiz-adv-x="738" 
d="M218 29v-29h-183v29h82v433h-82v29h148l185 -363l184 363h150v-29h-81v-433h81v-29h-204v29h70v425l-199 -393h-21l-200 392v-424h70z" />
    <glyph glyph-name="uni043D" unicode="&#x43d;" horiz-adv-x="619" 
d="M244 29v-29h-209v29h82v433h-82v29h209v-29h-74v-197h279v197h-74v29h209v-29h-82v-433h82v-29h-209v29h74v207h-279v-207h74z" />
    <glyph glyph-name="uni043E" unicode="&#x43e;" horiz-adv-x="543" 
d="M272 -10q-97 0 -160 71t-63 184t63 184.5t160 71.5t159.5 -71.5t62.5 -184.5t-62.5 -184t-159.5 -71zM272 472q-78 0 -122.5 -63t-44.5 -164q0 -100 44.5 -163t122.5 -63t122 62.5t44 163.5t-44 164t-122 63z" />
    <glyph glyph-name="uni043F" unicode="&#x43f;" horiz-adv-x="590" 
d="M234 29v-29h-199v29h82v433h-82v29h520v-29h-82v-433h82v-29h-199v29h64v433h-250v-433h64z" />
    <glyph glyph-name="uni0440" unicode="&#x440;" horiz-adv-x="591" 
d="M324 19q74 0 117.5 62.5t44.5 164.5q0 105 -45 165.5t-116 60.5q-70 0 -116.5 -58t-46.5 -165v-16q0 -98 44.5 -156t117.5 -58zM109 462h-82v29q65 0 82.5 1.5t28.5 8.5l12 -7v-143q17 69 64.5 109.5t119.5 40.5q85 0 146.5 -68t61.5 -186q0 -113 -61.5 -185t-151.5 -72
q-67 0 -109.5 33t-57.5 78v-322h93v-29h-228v29h82v683z" />
    <glyph glyph-name="uni0441" unicode="&#x441;" horiz-adv-x="492" 
d="M268 -10q-95 0 -157 69t-62 185q0 121 64.5 189t158.5 68q73 0 121 -39t48 -97q0 -19 -9.5 -30.5t-25.5 -11.5q-17 0 -27.5 9t-10.5 25t10 27t30 11q-13 35 -48 56t-82 21q-78 0 -125.5 -60.5t-47.5 -167.5q0 -106 47 -165.5t121 -59.5q116 0 157 130l25 -8
q-21 -76 -71 -113.5t-116 -37.5z" />
    <glyph glyph-name="uni0442" unicode="&#x442;" horiz-adv-x="539" 
d="M385 0h-232v29h90v433h-107q-37 0 -51.5 -17t-14.5 -56v-72h-32v174h463v-174h-32v72q0 39 -14.5 56t-52.5 17h-106v-433h89v-29z" />
    <glyph glyph-name="uni0443" unicode="&#x443;" horiz-adv-x="538" 
d="M113 -260q-48 0 -75.5 26.5t-27.5 67.5q0 20 11 32t28 12q14 0 24 -9t10 -24q0 -18 -10.5 -28.5t-26.5 -10.5q14 -38 65 -38q46 0 70.5 41t83.5 192l-193 461h-65v29h187v-29h-64l163 -389l146 389h-66v29h160v-29h-63l-179 -476q-57 -152 -88.5 -199t-89.5 -47z" />
    <glyph glyph-name="uni0444" unicode="&#x444;" horiz-adv-x="719" 
d="M473 -250h-227v29h87v211q-129 3 -207 70t-78 185t78 185t207 71v220h-82v29q75 0 95.5 1.5t28.5 8.5l11 -7v-252q123 -5 204 -72.5t81 -183.5t-80.5 -183.5t-204.5 -71.5v-211h87v-29zM104 245q0 -100 60.5 -161.5t168.5 -65.5v455q-108 -3 -168.5 -64.5t-60.5 -163.5z
M615 245q0 100 -62 162t-167 66v-455q105 4 167 66t62 161z" />
    <glyph glyph-name="uni0445" unicode="&#x445;" horiz-adv-x="524" 
d="M173 0h-154v29h62l156 210l-165 223h-56v29h177v-29h-61l139 -187l137 187h-65v29h157v-29h-57l-155 -211l164 -222h59v-29h-174v29h55l-137 187l-139 -187h57v-29z" />
    <glyph glyph-name="uni0446" unicode="&#x446;" horiz-adv-x="607" 
d="M582 -148h-32v68q0 48 -16 64t-64 16h-435v29h82v433h-82v29h198v-29h-63v-433h260v433h-63v29h197v-29h-81v-433h99v-177z" />
    <glyph glyph-name="uni0447" unicode="&#x447;" horiz-adv-x="576" 
d="M540 0h-223v29h89v200q-58 -24 -136 -24q-88 0 -133 37t-45 124v96h-74v29h205v-29h-78v-105q0 -67 32.5 -96t101.5 -29q83 0 127 26v204h-77v29h211v-29h-81v-433h81v-29z" />
    <glyph glyph-name="uni0448" unicode="&#x448;" horiz-adv-x="827" 
d="M35 0v29h82v433h-82v29h212v-29h-77v-433h217v433h-78v29h207v-29h-76v-433h217v433h-78v29h212v-29h-81v-433h81v-29h-756z" />
    <glyph glyph-name="uni0449" unicode="&#x449;" horiz-adv-x="834" 
d="M809 -148h-32v68q0 46 -16.5 63t-63.5 17h-662v29h82v433h-82v29h212v-29h-77v-433h217v433h-78v29h207v-29h-76v-433h217v433h-78v29h212v-29h-81v-433h99v-177z" />
    <glyph glyph-name="uni044A" unicode="&#x44a;" horiz-adv-x="605" 
d="M367 0h-231v29h82v433h-74q-41 0 -57.5 -15t-16.5 -58v-66h-32v168h322v-29h-89v-166h96q93 0 149 -34t56 -110t-56.5 -114t-148.5 -38zM516 151q0 57 -37 86.5t-108 29.5h-100v-238h101q68 0 106 32.5t38 89.5z" />
    <glyph glyph-name="uni044B" unicode="&#x44b;" horiz-adv-x="759" 
d="M471 152q0 -76 -56.5 -114t-147.5 -38h-232v29h82v433h-82v29h224v-29h-89v-166h97q93 0 148.5 -34t55.5 -110zM499 0v29h87v433h-87v29h227v-29h-87v-433h87v-29h-227zM415 151q0 57 -37 86.5t-107 29.5h-101v-238h102q68 0 105.5 32.5t37.5 89.5z" />
    <glyph glyph-name="uni044C" unicode="&#x44c;" horiz-adv-x="505" 
d="M471 152q0 -76 -56.5 -114t-147.5 -38h-232v29h82v433h-82v29h224v-29h-89v-166h97q93 0 148.5 -34t55.5 -110zM415 151q0 57 -37 86.5t-107 29.5h-101v-238h102q68 0 105.5 32.5t37.5 89.5z" />
    <glyph glyph-name="uni044D" unicode="&#x44d;" horiz-adv-x="499" 
d="M227 -10q-87 0 -136.5 36t-49.5 83q0 39 36 39q34 0 34 -33q0 -15 -8.5 -25t-19.5 -13q32 -59 140 -59q85 0 127.5 59.5t42.5 160.5l-215 -5v34l215 -6q-2 95 -42.5 153.5t-118.5 58.5q-56 0 -95 -34.5t-45 -103.5h-29v166h23l17 -62q18 28 54.5 45t81.5 17
q99 0 154.5 -71t55.5 -179q0 -113 -56 -187t-166 -74z" />
    <glyph glyph-name="uni044E" unicode="&#x44e;" horiz-adv-x="763" 
d="M502 -10q-91 0 -150 69t-62 178h-120v-208h74v-29h-209v29h82v433h-82v29h209v-29h-74v-197h120q6 105 64.5 170.5t147.5 65.5q93 0 152.5 -71.5t59.5 -184.5q0 -112 -59.5 -183.5t-152.5 -71.5zM502 472q-74 0 -115 -63t-41 -163t41 -163.5t115 -63.5t115 63t41 163
q0 101 -41 164t-115 63z" />
    <glyph glyph-name="uni044F" unicode="&#x44f;" horiz-adv-x="560" 
d="M390 253v211h-102q-66 0 -102 -28.5t-36 -82.5q0 -44 34.5 -72t104.5 -28h101zM188 96q-19 -58 -38.5 -82t-54.5 -24q-85 0 -85 138h31q0 -100 45 -100q16 0 27.5 17.5t25.5 62.5q19 60 41.5 85.5t69.5 40.5q-71 6 -113.5 36t-42.5 84q0 66 50.5 101.5t141.5 35.5h238
v-29h-81v-433h81v-29h-211v29h77v197h-78q-46 0 -72.5 -27.5t-51.5 -102.5z" />
    <glyph glyph-name="uni0451" unicode="&#x451;" horiz-adv-x="522" 
d="M278 -10q-104 0 -166 70t-62 188q0 112 61 182.5t157 70.5q99 0 153.5 -65t54.5 -162v-22h-370v-10q0 -102 44.5 -162.5t130.5 -60.5q129 0 165 125l24 -8q-17 -71 -67 -108.5t-125 -37.5zM268 475q-75 0 -116.5 -56.5t-45.5 -141.5h314q-2 85 -40 141.5t-112 56.5z
M218 656q0 -13 -10 -26.5t-31 -13.5t-30.5 13t-9.5 27t9.5 27.5t30.5 13.5t31 -13.5t10 -27.5zM395 656q0 -13 -10 -26.5t-31 -13.5t-30.5 13t-9.5 27t9.5 27.5t30.5 13.5t31 -13.5t10 -27.5z" />
    <glyph glyph-name="uni0452" unicode="&#x452;" horiz-adv-x="572" 
d="M491 45q0 -163 -38 -229t-135 -66v29q67 0 93.5 57t26.5 194v268q0 164 -137 164q-65 0 -102 -43t-37 -132v-258h79v-29h-214v29h82v571h-82v29h82v121q32 0 42 10l11 -7v-124h142v-29h-142q0 -102 -12 -229q38 130 169 130q172 0 172 -203v-253z" />
    <glyph glyph-name="uni0453" unicode="&#x453;" horiz-adv-x="455" 
d="M265 0h-230v29h82v433h-82v29h386v-156h-32v57q0 42 -16 56t-61 14h-142v-433h95v-29zM239 601h-23l68 100q38 55 62 55q28 0 28 -23q0 -19 -65 -69z" />
    <glyph glyph-name="uni0454" unicode="&#x454;" horiz-adv-x="492" 
d="M455 141q-21 -76 -71 -113.5t-116 -37.5q-95 0 -157 69t-62 185q0 121 64.5 189t158.5 68q75 0 122 -38.5t47 -97.5q0 -19 -9.5 -30.5t-25.5 -11.5q-17 0 -27.5 9t-10.5 25t10.5 27t30.5 11q-12 35 -47 56t-84 21q-75 0 -122 -55.5t-51 -154.5l201 5v-33l-201 5
q1 -104 48 -162t120 -58q116 0 157 130z" />
    <glyph glyph-name="uni0455" unicode="&#x455;" horiz-adv-x="482" 
d="M97 62l-16 -72h-23v177h29q4 -69 53 -108.5t125 -39.5q118 0 118 93q0 45 -34.5 71.5t-117.5 44.5q-94 19 -130.5 51.5t-36.5 88.5q0 61 45 97t115 36q104 0 149 -61l11 61h23v-161h-29q-4 67 -45.5 99.5t-108.5 32.5q-54 0 -83 -26.5t-29 -65.5q0 -43 31 -69t121 -44
q83 -18 125 -50.5t42 -94.5q0 -61 -40 -96.5t-120 -35.5q-65 0 -109 21.5t-65 50.5z" />
    <glyph glyph-name="uni0456" unicode="&#x456;" horiz-adv-x="284" 
d="M172 494v-465h82v-29h-216v29h81v433h-81v29q71 0 91.5 1.5t30.5 8.5zM181 656q0 -13 -10 -26.5t-31 -13.5t-30.5 13t-9.5 27t9.5 27.5t30.5 13.5t31 -13.5t10 -27.5z" />
    <glyph glyph-name="uni0457" unicode="&#x457;" horiz-adv-x="284" 
d="M95 656q0 -14 -9.5 -27t-30.5 -13t-31 13.5t-10 26.5q0 14 10 27.5t31 13.5t30.5 -13.5t9.5 -27.5zM252 656q0 -14 -9.5 -27t-30.5 -13t-31 13.5t-10 26.5q0 14 10 27.5t31 13.5t30.5 -13.5t9.5 -27.5zM172 494v-465h82v-29h-216v29h81v433h-81v29q71 0 91.5 1.5
t30.5 8.5z" />
    <glyph glyph-name="uni0458" unicode="&#x458;" horiz-adv-x="266" 
d="M186 656q0 -13 -10 -26.5t-31 -13.5t-30.5 13t-9.5 27t9.5 27.5t30.5 13.5t31 -13.5t10 -27.5zM32 -260q-58 0 -92.5 34t-34.5 77q0 41 36 41q17 0 26.5 -9t9.5 -25q0 -32 -32 -42q18 -48 84 -48q53 0 74 41.5t21 137.5v515h-82v29q72 0 91.5 1.5t30.5 8.5l13 -7v-527
q0 -118 -33.5 -172.5t-111.5 -54.5z" />
    <glyph glyph-name="uni0459" unicode="&#x459;" horiz-adv-x="752" 
d="M62 -10q-24 0 -35.5 11.5t-11.5 27.5q0 17 10.5 28t27.5 11q29 0 37 -27q66 78 66 421h-77v29h428v-29h-89v-166h97q93 0 148.5 -34t55.5 -110t-56.5 -114t-147.5 -38h-232v29h82v433h-177q0 -472 -126 -472zM663 151q0 57 -37 86.5t-107 29.5h-101v-238h102
q68 0 105.5 32.5t37.5 89.5z" />
    <glyph glyph-name="uni045A" unicode="&#x45a;" horiz-adv-x="828" 
d="M243 29v-29h-208v29h82v433h-82v29h208v-29h-73v-186h270v186h-73v29h207v-29h-81v-186h99q204 0 204 -134q0 -74 -56 -108t-148 -34h-225v29h73v218h-270v-218h73zM740 141q0 106 -148 106h-99v-218h100q70 0 108.5 29t38.5 83z" />
    <glyph glyph-name="uni045B" unicode="&#x45b;" horiz-adv-x="594" 
d="M241 29v-29h-214v29h82v582h-82v29h82v110q29 0 42 10l11 -7v-113h142v-29h-142v-2q0 -106 -12 -238q38 130 169 130q172 0 172 -203v-269h82v-29h-214v29h79v269q0 164 -137 164q-65 0 -102 -43t-37 -132v-258h79z" />
    <glyph glyph-name="uni045C" unicode="&#x45c;" horiz-adv-x="585" 
d="M316 601h-23l68 100q38 55 62 55q28 0 28 -23q0 -19 -65 -69zM473 -10q-46 0 -69 28t-45 100q-22 66 -44.5 92.5t-71.5 26.5h-73v-208h70v-29h-205v29h82v433h-82v29h205v-29h-70v-197h74q34 0 56 24.5t34 59t24.5 69t36.5 59t60 24.5q33 0 51 -17t18 -49q0 -40 -34 -40
q-17 0 -26.5 9.5t-9.5 23.5t9.5 23.5t25.5 9.5q-10 13 -37 13q-24 0 -41 -21.5t-28 -53t-22.5 -63.5t-31.5 -56t-49 -27q62 -12 87.5 -38t43.5 -84q21 -67 35 -88t40 -21q41 0 41 106h27q0 -138 -81 -138z" />
    <glyph glyph-name="uni045E" unicode="&#x45e;" horiz-adv-x="538" 
d="M113 -260q-48 0 -75.5 26.5t-27.5 67.5q0 20 11 32t28 12q14 0 24 -9t10 -24q0 -18 -10.5 -28.5t-26.5 -10.5q14 -38 65 -38q46 0 70.5 41t83.5 192l-193 461h-65v29h187v-29h-64l163 -389l146 389h-66v29h160v-29h-63l-179 -476q-57 -152 -88.5 -199t-89.5 -47zM433 708
q0 -51 -38.5 -80t-105.5 -29t-105.5 29t-38.5 80q0 22 11 34t29 12q16 0 26 -10t10 -25q0 -18 -11.5 -28t-26.5 -8q7 -26 35 -42t71 -16t71 16t35 42q-17 0 -27.5 9.5t-10.5 26.5q0 15 10 25t26 10q18 0 29 -12t11 -34z" />
    <glyph glyph-name="uni045F" unicode="&#x45f;" horiz-adv-x="599" 
d="M287 0h-252v29h82v433h-82v29h198v-29h-63v-433h260v433h-63v29h197v-29h-81v-433h81v-29h-251q1 -64 11.5 -102t10.5 -47q0 -13 -9.5 -23.5t-25.5 -10.5q-17 0 -26.5 10.5t-9.5 23.5q0 7 11.5 46t11.5 103z" />
    <glyph glyph-name="uni0462" unicode="&#x462;" horiz-adv-x="702" 
d="M667 183q0 -79 -68 -131t-196 -52h-236v29h90v543h-110q-44 0 -59 -16.5t-15 -58.5v-55h-35v156h219v103h-90v29h238v-29h-92v-103h219v-156h-35v55q0 42 -15 58.5t-59 16.5h-110v-215h93q128 0 194.5 -46t66.5 -128zM409 328h-96v-299h94q103 0 152.5 42t49.5 112
q0 145 -200 145z" />
    <glyph glyph-name="uni0463" unicode="&#x463;" horiz-adv-x="604" 
d="M567 147q0 -74 -56.5 -110.5t-147.5 -36.5h-233v29h82v433h-77q-42 0 -55.5 -13.5t-13.5 -54.5v-42h-32v139h178v230h-82v29q75 0 95.5 1.5t28.5 8.5l11 -7v-262h179v-139h-32v42q0 42 -13 55t-56 13h-78v-177h98q93 0 148.5 -33t55.5 -105zM511 146q0 54 -38.5 82.5
t-109.5 28.5h-98v-228h99q69 0 108 31.5t39 85.5z" />
    <glyph glyph-name="uni0472" unicode="&#x472;" horiz-adv-x="686" 
d="M632 345q0 -148 -77.5 -251.5t-211.5 -103.5q-90 0 -157.5 50.5t-99.5 130t-32 174.5t32 174.5t99.5 130t157.5 50.5q134 0 211.5 -103.5t77.5 -251.5zM343 668q-98 0 -161.5 -80t-68.5 -222h460q-5 142 -68.5 222t-161.5 80zM343 22q100 0 164 83.5t66 231.5h-460
q2 -148 65.5 -231.5t164.5 -83.5z" />
    <glyph glyph-name="uni0473" unicode="&#x473;" horiz-adv-x="543" 
d="M272 -10q-97 0 -160 71t-63 184t63 184.5t160 71.5t159.5 -71.5t62.5 -184.5t-62.5 -184t-159.5 -71zM272 472q-74 0 -118 -57t-49 -150h333q-5 93 -49 150t-117 57zM272 19q76 0 120 60t46 158h-333q2 -97 46 -157.5t121 -60.5z" />
    <glyph glyph-name="uni0474" unicode="&#x474;" horiz-adv-x="669" 
d="M519 559l-169 -564h-53l-223 666h-77v29h210v-29h-79l204 -608l153 511q20 67 45.5 101.5t67.5 34.5q29 0 46.5 -16.5t17.5 -41.5q0 -20 -10 -31.5t-28 -11.5q-19 0 -28.5 10t-9.5 25q0 27 26 34q-8 2 -14 2q-25 0 -43 -25.5t-36 -85.5z" />
    <glyph glyph-name="uni0475" unicode="&#x475;" horiz-adv-x="562" 
d="M420 398l-140 -403h-34l-177 467h-62v29h183v-29h-66l149 -393l114 330q18 51 39.5 76.5t58.5 25.5q28 0 45 -16t17 -43q0 -41 -36 -41q-16 0 -25.5 9t-9.5 22q0 14 8.5 24.5t24.5 10.5q-8 7 -24 7q-22 0 -37 -19t-28 -57z" />
    <glyph glyph-name="uni0490" unicode="&#x490;" horiz-adv-x="529" 
d="M297 0h-245v29h90v632h-90v29h319q51 0 72 19.5t21 72.5v73h35v-194h-301v-632h99v-29z" />
    <glyph glyph-name="uni0491" unicode="&#x491;" horiz-adv-x="449" 
d="M35 0v29h82v433h-82v29h268q43 0 60 17.5t17 64.5v70h32v-181h-242v-433h95v-29h-230z" />
    <glyph glyph-name="uni0492" unicode="&#x492;" horiz-adv-x="544" 
d="M301 29v-29h-249v29h90v308h-98v29h98v295h-90v29h461v-181h-35v72q0 51 -21.5 65.5t-77.5 14.5h-181v-295h210v-29h-210v-308h103z" />
    <glyph glyph-name="uni0493" unicode="&#x493;" horiz-adv-x="458" 
d="M267 29v-29h-230v29h82v199h-81v28h81v206h-82v29h386v-156h-32v57q0 42 -16 56t-61 14h-142v-206h137v-28h-137v-199h95z" />
    <glyph glyph-name="uni0496" unicode="&#x496;" horiz-adv-x="991" 
d="M978 -170h-35v76q0 52 -12.5 70t-48.5 28q-50 11 -79 38t-50 100q-35 123 -59.5 159t-90.5 36h-71v-308h85v-29h-225v29h84v308h-70q-66 0 -91.5 -36.5t-59.5 -158.5q-22 -78 -49 -115t-82 -37q-53 0 -74 42t-21 121h29q0 -131 59 -131q30 0 46 26t37 97
q32 111 55.5 148.5t90.5 61.5q-34 12 -60.5 49.5t-42 82t-30 87.5t-34 71.5t-44.5 28.5q-8 0 -12 -1q25 -6 25 -37q0 -15 -10.5 -24.5t-26.5 -9.5q-18 0 -29.5 11.5t-11.5 30.5q0 24 17.5 40t49.5 16q39 0 66.5 -34.5t44 -84t33.5 -98.5t48.5 -83.5t76.5 -34.5h70v296h-84
v29h225v-29h-85v-296h71q45 0 76 34.5t48.5 83.5t33.5 98.5t43.5 84t66.5 34.5q32 0 49.5 -15.5t17.5 -39.5q0 -20 -10.5 -31.5t-28.5 -11.5q-17 0 -28 9.5t-11 24.5q0 13 7.5 23.5t18.5 12.5q-8 2 -13 2q-28 0 -48.5 -28.5t-35 -71.5t-29.5 -87.5t-40 -82t-57 -49.5
q69 -25 93.5 -62.5t55.5 -147.5q19 -68 37.5 -92t63.5 -24h65v-199z" />
    <glyph glyph-name="uni0497" unicode="&#x497;" horiz-adv-x="853" 
d="M830 -148h-29v68q0 40 -13 58t-46 22q-41 6 -63.5 32t-41.5 86q-21 64 -44.5 91.5t-71.5 27.5h-63v-208h69v-29h-192v29h70v208h-64q-47 0 -70 -27t-45 -92q-23 -72 -46 -100t-66 -28q-42 0 -60 35t-18 103h27q0 -106 46 -106q20 0 30.5 17t31.5 75q4 11 6 17
q22 60 45.5 85.5t81.5 36.5q-30 3 -51.5 27.5t-33 56.5l-23 64t-29.5 54t-44 22q-24 0 -35 -15q34 -2 34 -34q0 -15 -9 -24t-25 -9q-17 0 -27 11t-10 28q0 30 20.5 48.5t51.5 18.5q37 0 61.5 -24.5t37.5 -59t25.5 -69t35.5 -59t58 -24.5h64v197h-70v29h192v-29h-69v-197h63
q35 0 58 24.5t35 59t25 69t37.5 59t61.5 24.5q31 0 49.5 -18t18.5 -48q0 -40 -34 -40q-17 0 -26.5 9.5t-9.5 23.5q0 13 10 23.5t24 10.5q-11 14 -35 14q-30 0 -50.5 -33.5t-31.5 -74t-35.5 -76t-59.5 -39.5q61 -12 87.5 -38.5t43.5 -83.5q18 -63 34 -82.5t51 -19.5h56v-177z
" />
    <glyph glyph-name="uni0498" unicode="&#x498;" horiz-adv-x="569" 
d="M289 -187q-17 0 -26.5 11.5t-9.5 24.5q0 10 10.5 52t12.5 89q-124 4 -176 78l-22 -78h-22v215h35q0 -93 54 -138t138 -45q89 0 132 43t43 119t-48 115t-133 39q-16 0 -46 -1t-32 -1v34q51 -3 78 -3q73 0 112 42t39 113q0 66 -39 106t-114 40q-79 0 -125 -46t-46 -140h-34
v218h21l23 -78q51 78 162 78q102 0 156 -47t54 -126q0 -141 -142 -172q172 -27 172 -174q0 -87 -56 -137t-156 -54q2 -47 12 -89t10 -52q0 -14 -10 -25t-27 -11z" />
    <glyph glyph-name="uni0499" unicode="&#x499;" horiz-adv-x="477" 
d="M241 -183q-16 0 -26 10.5t-10 23.5q0 8 11.5 44.5t11.5 94.5q-89 1 -138.5 37.5t-49.5 85.5q0 17 9.5 28t26.5 11q35 0 35 -35q0 -21 -31 -37q14 -29 53 -46t91 -17q143 0 143 115q0 50 -33.5 77t-92.5 27q-26 0 -62 -3v34q5 0 30 -1t28 -1q58 0 85.5 28t27.5 75
q0 50 -31 77t-88 27q-59 0 -96.5 -35.5t-41.5 -101.5h-29v166h23l19 -62q40 62 144 62q73 0 114 -32.5t41 -89.5q0 -50 -31 -82.5t-79 -42.5q51 -8 89.5 -36t38.5 -86q0 -134 -169 -141q1 -59 11.5 -95t10.5 -45q0 -13 -9.5 -23.5t-25.5 -10.5z" />
    <glyph glyph-name="uni049A" unicode="&#x49a;" horiz-adv-x="670" 
d="M656 -170h-35v76q0 49 -12.5 69t-47.5 28q-44 11 -72.5 42.5t-47.5 96.5q-33 119 -61.5 157t-94.5 38h-87v-308h84v-29h-230v29h90v632h-90v29h230v-29h-84v-295h87q43 0 73 34.5t47.5 83.5t34.5 98t44.5 83.5t66.5 34.5q32 0 49 -15.5t17 -40.5q0 -19 -10.5 -30.5
t-28.5 -11.5q-16 0 -27.5 9.5t-11.5 24.5q0 12 7 22.5t18 13.5q-8 2 -13 2q-33 0 -58 -45t-40 -100.5t-44.5 -108t-68.5 -64.5q27 -8 47 -16.5t35.5 -25.5t24 -27t19 -40t14.5 -43.5t17 -58.5q18 -67 41 -91.5t77 -24.5h41v-199z" />
    <glyph glyph-name="uni049B" unicode="&#x49b;" horiz-adv-x="576" 
d="M557 -148h-29v68q0 40 -12 58t-42 22q-49 7 -71.5 30t-43.5 88t-44 92t-72 27h-73v-208h70v-29h-205v29h82v433h-82v29h205v-29h-70v-197h74q34 0 56 24.5t34 59t24.5 69t36.5 59t60 24.5q32 0 50.5 -18t18.5 -48q0 -40 -35 -40q-16 0 -25.5 9.5t-9.5 23.5t9.5 23.5
t25.5 9.5q-10 13 -37 13q-24 0 -41 -21.5t-28 -53t-22.5 -63.5t-31.5 -56t-49 -27q62 -12 87.5 -38t43.5 -84q19 -62 40.5 -82t54.5 -20h51v-177z" />
    <glyph glyph-name="uni049C" unicode="&#x49c;" horiz-adv-x="748" 
d="M626 -10q-55 0 -81 36.5t-48 115.5q-34 119 -62 157t-94 38h-9v-142h-29v142h-105v-308h84v-29h-230v29h90v632h-90v29h230v-29h-84v-295h105v138h29v-138h9q43 0 73 34.5t47.5 83.5t34.5 98t44.5 83.5t66.5 34.5q32 0 49 -15.5t17 -40.5q0 -19 -10.5 -30.5t-28.5 -11.5
q-16 0 -27.5 9.5t-11.5 24.5q0 12 7 22.5t18 13.5q-8 2 -13 2q-33 0 -58 -45t-40 -100.5t-44.5 -108t-68.5 -64.5q27 -8 47 -16.5t35.5 -25.5t24 -27t19 -40t14.5 -43.5t17 -58.5q20 -71 35.5 -97t47.5 -26q56 0 56 131h29q0 -79 -21.5 -121t-73.5 -42z" />
    <glyph glyph-name="uni049D" unicode="&#x49d;" horiz-adv-x="621" 
d="M509 -10q-46 0 -69 28t-45 100q-22 66 -44.5 92.5t-71.5 26.5h-9v-107h-29v107h-71v-208h70v-29h-205v29h82v433h-82v29h205v-29h-70v-197h71v103h29v-103h10q34 0 56 24.5t34 59t24.5 69t36.5 59t60 24.5q32 0 50.5 -18.5t18.5 -47.5q0 -40 -34 -40q-17 0 -26.5 9.5
t-9.5 23.5t9.5 23.5t25.5 9.5q-10 13 -37 13q-24 0 -41 -21.5t-28 -53t-22.5 -63.5t-31.5 -56t-49 -27q62 -12 87.5 -38t43.5 -84q21 -67 35 -88t40 -21q41 0 41 106h27q0 -138 -81 -138z" />
    <glyph glyph-name="uni04A0" unicode="&#x4a0;" horiz-adv-x="843" 
d="M722 -10q-55 0 -81 36.5t-48 115.5q-34 119 -62 157t-94 38h-87v-308h84v-29h-230v29h90v632h-139q-53 0 -69.5 -16t-16.5 -70v-85h-35v200h400v-29h-84v-295h87q43 0 73 34.5t47.5 83.5t34.5 98t44.5 83.5t66.5 34.5q32 0 49 -15.5t17 -40.5q0 -19 -10.5 -30.5
t-28.5 -11.5q-16 0 -27.5 9.5t-11.5 24.5q0 12 7 22.5t18 13.5q-8 2 -13 2q-33 0 -58 -45t-40 -100.5t-44.5 -108t-68.5 -64.5q27 -8 47 -16.5t35.5 -25.5t24 -27t19 -40t14.5 -43.5t17 -58.5q20 -71 35.5 -97t47.5 -26q56 0 56 131h29q0 -79 -21.5 -121t-73.5 -42z" />
    <glyph glyph-name="uni04A1" unicode="&#x4a1;" horiz-adv-x="720" 
d="M608 -10q-46 0 -69 28t-45 100q-22 66 -44.5 92.5t-71.5 26.5h-73v-208h70v-29h-205v29h82v433h-113q-38 0 -52.5 -16.5t-14.5 -56.5v-88h-32v190h335v-29h-70v-197h74q34 0 56 24.5t34 59t24.5 69t36.5 59t60 24.5q33 0 51 -18t18 -48q0 -40 -34 -40q-17 0 -26.5 9.5
t-9.5 23.5t9.5 23.5t25.5 9.5q-10 13 -37 13q-24 0 -41 -21.5t-28 -53t-22.5 -63.5t-31.5 -56t-49 -27q62 -12 87.5 -38t43.5 -84q21 -67 35 -88t40 -21q41 0 41 106h27q0 -138 -81 -138z" />
    <glyph glyph-name="uni04A2" unicode="&#x4a2;" horiz-adv-x="759" 
d="M721 -170h-35v76q0 55 -19 74.5t-74 19.5h-118v29h85v310h-362v-310h84v-29h-230v29h90v632h-90v29h230v-29h-84v-293h362v293h-85v29h230v-29h-89v-632h105v-199z" />
    <glyph glyph-name="uni04A3" unicode="&#x4a3;" horiz-adv-x="627" 
d="M602 -148h-32v68q0 46 -16.5 63t-63.5 17h-115v29h74v207h-279v-207h74v-29h-209v29h82v433h-82v29h209v-29h-74v-197h279v197h-74v29h209v-29h-82v-433h100v-177z" />
    <glyph glyph-name="uni04AA" unicode="&#x4aa;" horiz-adv-x="624" 
d="M380 -151q0 -14 -10 -25t-27 -11t-26 11t-9 25q0 9 10 51t12 90q-134 4 -204.5 108t-70.5 248q0 93 31 172t96 130.5t153 51.5q112 0 176 -71l21 70h28v-217h-35q0 91 -51 138.5t-136 47.5q-98 0 -161 -83t-63 -239q0 -155 62 -239.5t168 -84.5q78 0 131.5 48.5
t53.5 141.5h34v-222h-27l-22 76q-54 -67 -156 -75q2 -48 12 -90t10 -52z" />
    <glyph glyph-name="uni04AB" unicode="&#x4ab;" horiz-adv-x="492" 
d="M306 -149q0 -13 -9.5 -23.5t-25.5 -10.5q-17 0 -26.5 10.5t-9.5 23.5q0 8 11.5 44.5t11.5 94.5q-91 4 -150 72.5t-59 181.5q0 121 64.5 189t158.5 68q73 0 121 -39t48 -97q0 -19 -9.5 -30.5t-25.5 -11.5q-38 0 -38 35q0 16 10.5 26.5t29.5 10.5q-13 35 -48 56t-82 21
q-78 0 -125.5 -60.5t-47.5 -167.5q0 -106 47 -165.5t121 -59.5q116 0 157 130l25 -8q-19 -72 -65 -109t-106 -41q1 -59 11.5 -95t10.5 -45z" />
    <glyph glyph-name="uni04AE" unicode="&#x4ae;" horiz-adv-x="612" 
d="M432 29v-29h-245v29h94v269l-218 363h-68v29h200v-29h-75l196 -327l186 327h-72v29h177v-29h-67l-203 -358v-274h95z" />
    <glyph glyph-name="uni04AF" unicode="&#x4af;" horiz-adv-x="528" 
d="M381 -221v-29h-216v29h81v216l-177 467h-62v29h187v-29h-72l160 -423l148 423h-62v29h152v-29h-58l-163 -467v-216h82z" />
    <glyph glyph-name="uni04B0" unicode="&#x4b0;" horiz-adv-x="618" 
d="M435 29v-29h-245v29h94v246h-160v28h157l-215 358h-68v29h200v-29h-75l196 -327l186 327h-72v29h177v-29h-67l-203 -358h160v-28h-160v-246h95z" />
    <glyph glyph-name="uni04B1" unicode="&#x4b1;" horiz-adv-x="528" 
d="M381 -221v-29h-216v29h81v192h-142v29h140l-175 462h-62v29h187v-29h-72l160 -423l148 423h-62v29h152v-29h-58l-161 -462h140v-29h-142v-192h82z" />
    <glyph glyph-name="uni04B2" unicode="&#x4b2;" horiz-adv-x="670" 
d="M671 -170h-36v76q0 55 -21.5 74.5t-77.5 19.5h-92v29h72l-196 293l-196 -293h69v-29h-181v29h74l215 321l-209 311h-70v29h205v-29h-74l181 -269l177 269h-72v29h181v-29h-71l-196 -298l224 -334h94v-199z" />
    <glyph glyph-name="uni04B3" unicode="&#x4b3;" horiz-adv-x="549" 
d="M547 -148h-32v68q0 46 -16.5 63t-63.5 17h-98v29h55l-137 187l-139 -187h57v-29h-154v29h62l156 210l-165 223h-56v29h177v-29h-61l139 -187l137 187h-65v29h157v-29h-57l-155 -211l164 -222h95v-177z" />
    <glyph glyph-name="uni04B6" unicode="&#x4b6;" horiz-adv-x="699" 
d="M661 -170h-35v76q0 55 -21.5 74.5t-77.5 19.5h-121v29h94v292q-72 -34 -168 -34q-111 0 -169.5 47t-58.5 154v173h-89v29h230v-29h-85v-181q0 -90 46 -126t126 -36q96 0 168 34v309h-89v29h234v-29h-89v-632h105v-199z" />
    <glyph glyph-name="uni04B7" unicode="&#x4b7;" horiz-adv-x="585" 
d="M564 -148h-32v68q0 46 -16.5 63t-63.5 17h-135v29h89v200q-58 -24 -136 -24q-88 0 -133 37t-45 124v96h-74v29h205v-29h-78v-105q0 -67 32.5 -96t101.5 -29q83 0 127 26v204h-77v29h211v-29h-81v-433h105v-177z" />
    <glyph glyph-name="uni04B8" unicode="&#x4b8;" horiz-adv-x="698" 
d="M645 0h-239v29h94v290q-61 -29 -148 -32v-127h-29v127q-109 2 -164 48.5t-55 150.5v175h-89v29h230v-29h-85v-181q0 -85 42 -122.5t121 -39.5v147h29v-147q84 3 148 32v311h-89v29h234v-29h-89v-632h89v-29z" />
    <glyph glyph-name="uni04B9" unicode="&#x4b9;" horiz-adv-x="596" 
d="M560 0h-223v29h89v200q-45 -18 -120 -23v-92h-29v91h-7q-88 0 -133 37t-45 124v96h-74v29h205v-29h-78v-106q0 -68 32 -96.5t100 -28.5v130h29v-129q85 3 120 25v205h-77v29h211v-29h-81v-433h81v-29z" />
    <glyph glyph-name="uni04BA" unicode="&#x4ba;" horiz-adv-x="698" 
d="M292 690v-29h-94v-292q72 34 168 34q111 0 169.5 -47t58.5 -154v-173h89v-29h-230v29h85v181q0 90 -46 126t-126 36q-96 0 -168 -34v-309h89v-29h-234v29h89v632h-89v29h239z" />
    <glyph glyph-name="uni04BB" unicode="&#x4bb;" horiz-adv-x="594" 
d="M241 0h-214v29h82v692h-82v29q73 0 94.5 1.5t29.5 8.5l11 -7v-151q0 -165 -12 -234q17 59 59 96t110 37q172 0 172 -203v-269h82v-29h-214v29h79v269q0 164 -137 164q-65 0 -102 -43t-37 -132v-258h79v-29z" />
    <glyph glyph-name="uni04C0" unicode="&#x4c0;" horiz-adv-x="339" 
d="M287 0h-235v29h90v632h-90v29h235v-29h-89v-632h89v-29z" />
    <glyph glyph-name="uni04C1" unicode="&#x4c1;" horiz-adv-x="1008" 
d="M885 -10q-56 0 -83 37t-49 115q-35 123 -59.5 159t-90.5 36h-71v-308h85v-29h-225v29h84v308h-70q-66 0 -91.5 -36.5t-59.5 -158.5q-22 -78 -49 -115t-82 -37q-53 0 -74 42t-21 121h29q0 -131 59 -131q30 0 46 26t37 97q32 111 55.5 148.5t90.5 61.5q-34 12 -60.5 49.5
t-42 82t-30 87.5t-34 71.5t-44.5 28.5q-8 0 -12 -1q25 -6 25 -37q0 -15 -10.5 -24.5t-26.5 -9.5q-18 0 -29.5 11.5t-11.5 30.5q0 24 17.5 40t49.5 16q39 0 66.5 -34.5t44 -84t33.5 -98.5t48.5 -83.5t76.5 -34.5h70v296h-84v29h225v-29h-85v-296h71q45 0 76 34.5t48.5 83.5
t33.5 98.5t43.5 84t66.5 34.5q32 0 49.5 -15.5t17.5 -39.5q0 -20 -10.5 -31.5t-28.5 -11.5q-17 0 -28 9.5t-11 24.5q0 13 7.5 23.5t18.5 12.5q-8 2 -13 2q-28 0 -48.5 -28.5t-35 -71.5t-29.5 -87.5t-40 -82t-57 -49.5q69 -25 93.5 -62.5t55.5 -147.5q21 -72 36 -97.5
t47 -25.5q56 0 56 131h29q0 -79 -21 -121t-74 -42zM639 835q0 -45 -37.5 -71.5t-96.5 -26.5t-96.5 26.5t-37.5 71.5q0 40 36 40q33 0 33 -31q0 -14 -10 -24.5t-26 -8.5q26 -49 101 -49t101 49q-17 -1 -26.5 9t-9.5 24t9.5 22.5t24.5 8.5q35 0 35 -40z" />
    <glyph glyph-name="uni04C2" unicode="&#x4c2;" horiz-adv-x="861" 
d="M753 -10q-45 0 -69.5 29t-46.5 99q-22 65 -45 92t-71 27h-63v-208h69v-29h-192v29h70v208h-64q-47 0 -70 -27t-45 -92q-23 -72 -46 -100t-66 -28q-42 0 -60 35t-18 103h27q0 -106 46 -106q20 0 30.5 17t31.5 75q4 11 6 17q22 60 45.5 85.5t81.5 36.5q-30 3 -51.5 27.5
t-33 56.5l-23 64t-29.5 54t-44 22q-24 0 -35 -15q34 -2 34 -34q0 -15 -9 -24t-25 -9q-17 0 -27 11t-10 28q0 30 20.5 48.5t51.5 18.5q37 0 61.5 -24.5t37.5 -59t25.5 -69t35.5 -59t58 -24.5h64v197h-70v29h192v-29h-69v-197h63q35 0 58 24.5t35 59t25 69t37.5 59t61.5 24.5
q31 0 49.5 -18t18.5 -48q0 -40 -34 -40q-17 0 -26.5 9.5t-9.5 23.5q0 13 10 23.5t24 10.5q-11 14 -35 14q-30 0 -50.5 -33.5t-31.5 -74t-35.5 -76t-59.5 -39.5q61 -12 87.5 -38.5t43.5 -83.5q20 -67 33 -88t37 -21q41 0 41 106h26q0 -69 -16 -103.5t-57 -34.5zM572 700
q0 -51 -38.5 -80t-105.5 -29t-105.5 29t-38.5 80q0 22 11 34t29 12q16 0 26 -10t10 -25q0 -18 -11.5 -28t-26.5 -8q7 -26 35 -42t71 -16t71 16t35 42q-17 0 -27.5 9.5t-10.5 26.5q0 15 10 25t26 10q18 0 29 -12t11 -34z" />
    <glyph glyph-name="uni04CF" unicode="&#x4cf;" horiz-adv-x="271" 
d="M28 0v29h81v692h-81v29q74 0 94.5 1.5t29.5 8.5l10 -7v-724h82v-29h-216z" />
    <glyph glyph-name="uni04D0" unicode="&#x4d0;" horiz-adv-x="644" 
d="M443 251l-131 376l-131 -376h262zM182 0h-182v29h68l231 661h46l231 -661h71v-29h-202v29h76l-68 193h-282l-68 -193h79v-29zM456 835q0 -45 -37.5 -71.5t-96.5 -26.5t-96.5 26.5t-37.5 71.5q0 40 36 40q33 0 33 -31q0 -14 -10 -24.5t-26 -8.5q26 -49 101 -49t101 49
q-17 -1 -26.5 9t-9.5 24t9.5 22.5t24.5 8.5q35 0 35 -40z" />
    <glyph glyph-name="uni04D1" unicode="&#x4d1;" horiz-adv-x="537" 
d="M386 700q0 -51 -38.5 -80t-105.5 -29t-105.5 29t-38.5 80q0 22 11 34t29 12q16 0 26 -10t10 -25q0 -18 -11.5 -28t-26.5 -8q7 -26 35 -42t71 -16t71 16t35 42q-17 0 -27.5 9.5t-10.5 26.5q0 15 10 25t26 10q18 0 29 -12t11 -34zM446 -10q-82 0 -79 112
q-39 -112 -170 -112q-65 0 -107 33.5t-42 99.5q0 154 252 154h63v49q0 147 -132 147q-43 0 -79 -17.5t-50 -49.5q34 -4 34 -33q0 -16 -9.5 -25t-25.5 -9q-17 0 -26.5 9.5t-9.5 26.5q0 51 50 88.5t127 37.5q174 0 174 -179v-226q0 -68 45 -68q46 0 46 95h24q0 -68 -20 -100.5
t-65 -32.5zM214 25q64 0 106.5 39t42.5 110v76h-63q-196 0 -196 -120q0 -52 31 -78.5t79 -26.5z" />
    <glyph glyph-name="uni04D6" unicode="&#x4d6;" horiz-adv-x="605" 
d="M52 0v29h90v632h-90v29h483v-186h-35v71q0 52 -21.5 69t-77.5 17h-203v-295l227 6v-39l-227 5v-309h222q52 0 70 20t18 71v71h35v-191h-491zM462 835q0 -45 -37.5 -71.5t-96.5 -26.5t-96.5 26.5t-37.5 71.5q0 40 36 40q33 0 33 -31q0 -14 -10 -24.5t-26 -8.5
q26 -49 101 -49t101 49q-17 -1 -26.5 9t-9.5 24t9.5 22.5t24.5 8.5q35 0 35 -40z" />
    <glyph glyph-name="uni04D7" unicode="&#x4d7;" horiz-adv-x="522" 
d="M278 -10q-104 0 -166 70t-62 188q0 112 61 182.5t157 70.5q99 0 153.5 -65t54.5 -162v-22h-370v-10q0 -102 44.5 -162.5t130.5 -60.5q129 0 165 125l24 -8q-17 -71 -67 -108.5t-125 -37.5zM268 475q-75 0 -116.5 -56.5t-45.5 -141.5h314q-2 85 -40 141.5t-112 56.5z
M407 700q0 -51 -38.5 -80t-105.5 -29t-105.5 29t-38.5 80q0 22 11 34t29 12q16 0 26 -10t10 -25q0 -18 -11.5 -28t-26.5 -8q7 -26 35 -42t71 -16t71 16t35 42q-17 0 -27.5 9.5t-10.5 26.5q0 15 10 25t26 10q18 0 29 -12t11 -34z" />
    <glyph glyph-name="uni04D8" unicode="&#x4d8;" horiz-adv-x="660" 
d="M327 -10q-124 0 -200 97.5t-76 265.5h495q-2 147 -61 231t-168 84q-86 0 -143.5 -45.5t-63.5 -141.5h-35v219h28l22 -84q25 35 74.5 59.5t119.5 24.5q142 0 214 -100t72 -256q0 -95 -29 -173t-94 -129.5t-155 -51.5zM327 22q100 0 157.5 80.5t61.5 221.5h-436
q4 -143 61.5 -222.5t155.5 -79.5z" />
    <glyph glyph-name="uni04D9" unicode="&#x4d9;" horiz-adv-x="521" 
d="M244 501q104 0 166 -70t62 -188q0 -112 -61 -182.5t-157 -70.5q-99 0 -153.5 65t-54.5 162v22h370v10q0 102 -44.5 162.5t-130.5 60.5q-129 0 -165 -125l-24 8q17 71 67 108.5t125 37.5zM254 16q75 0 116.5 56.5t45.5 141.5h-314q2 -85 40 -141.5t112 -56.5z" />
    <glyph glyph-name="uni04E2" unicode="&#x4e2;" horiz-adv-x="777" 
d="M282 0h-230v29h90v632h-90v29h230v-29h-84v-511l381 446v65h-84v29h229v-29h-89v-632h89v-29h-229v29h84v521l-381 -446v-75h84v-29zM271 776v32h234v-32h-234z" />
    <glyph glyph-name="uni04E3" unicode="&#x4e3;" horiz-adv-x="624" 
d="M241 29v-29h-206v29h82v433h-82v29h206v-29h-71v-349l284 304v45h-72v29h207v-29h-82v-433h82v-29h-207v29h72v349l-284 -304v-45h71zM196 638v32h234v-32h-234z" />
    <glyph glyph-name="uni04E6" unicode="&#x4e6;" horiz-adv-x="686" 
d="M632 345q0 -148 -77.5 -251.5t-211.5 -103.5q-90 0 -157.5 50.5t-99.5 130t-32 174.5t32 174.5t99.5 130t157.5 50.5q134 0 211.5 -103.5t77.5 -251.5zM113 345q0 -152 64 -237.5t166 -85.5t166 86t64 237t-64 237t-166 86t-166 -86t-64 -237zM291 802q0 -13 -9 -25
t-29 -12q-19 0 -27.5 12t-8.5 25t8.5 25.5t27.5 12.5q20 0 29 -12.5t9 -25.5zM471 802q0 -13 -9 -25t-29 -12q-19 0 -27.5 12t-8.5 25t8.5 25.5t27.5 12.5q20 0 29 -12.5t9 -25.5z" />
    <glyph glyph-name="uni04E7" unicode="&#x4e7;" horiz-adv-x="543" 
d="M272 -10q-97 0 -160 71t-63 184t63 184.5t160 71.5t159.5 -71.5t62.5 -184.5t-62.5 -184t-159.5 -71zM272 472q-78 0 -122.5 -63t-44.5 -164q0 -100 44.5 -163t122.5 -63t122 62.5t44 163.5t-44 164t-122 63zM222 656q0 -13 -10 -26.5t-31 -13.5t-30.5 13t-9.5 27
t9.5 27.5t30.5 13.5t31 -13.5t10 -27.5zM399 656q0 -13 -10 -26.5t-31 -13.5t-30.5 13t-9.5 27t9.5 27.5t30.5 13.5t31 -13.5t10 -27.5z" />
    <glyph glyph-name="uni04E8" unicode="&#x4e8;" horiz-adv-x="686" 
d="M632 345q0 -148 -77.5 -251.5t-211.5 -103.5q-90 0 -157.5 50.5t-99.5 130t-32 174.5t32 174.5t99.5 130t157.5 50.5q134 0 211.5 -103.5t77.5 -251.5zM343 668q-98 0 -161.5 -80t-68.5 -222h460q-5 142 -68.5 222t-161.5 80zM343 22q100 0 164 83.5t66 231.5h-460
q2 -148 65.5 -231.5t164.5 -83.5z" />
    <glyph glyph-name="uni04E9" unicode="&#x4e9;" horiz-adv-x="543" 
d="M272 -10q-97 0 -160 71t-63 184t63 184.5t160 71.5t159.5 -71.5t62.5 -184.5t-62.5 -184t-159.5 -71zM272 472q-74 0 -118 -57t-49 -150h333q-5 93 -49 150t-117 57zM272 19q76 0 120 60t46 158h-333q2 -97 46 -157.5t121 -60.5z" />
    <glyph glyph-name="uni04EE" unicode="&#x4ee;" horiz-adv-x="630" 
d="M200 -10q-43 0 -66 21t-23 55q0 18 10.5 30.5t29.5 12.5q37 0 37 -35q0 -14 -8.5 -24.5t-23.5 -12.5q14 -15 44 -15q34 0 58.5 27t47.5 82l11 28l-239 502h-73v29h207v-29h-77l209 -439l177 439h-73v29h181v-29h-72l-190 -472q-46 -114 -80 -156.5t-87 -42.5zM215 776v32
h234v-32h-234z" />
    <glyph glyph-name="uni04EF" unicode="&#x4ef;" horiz-adv-x="538" 
d="M113 -260q-48 0 -75.5 26.5t-27.5 67.5q0 20 11 32t28 12q14 0 24 -9t10 -24q0 -18 -10.5 -28.5t-26.5 -10.5q14 -38 65 -38q46 0 70.5 41t83.5 192l-193 461h-65v29h187v-29h-64l163 -389l146 389h-66v29h160v-29h-63l-179 -476q-57 -152 -88.5 -199t-89.5 -47zM167 629
v32h234v-32h-234z" />
    <glyph glyph-name="uni04F2" unicode="&#x4f2;" horiz-adv-x="630" 
d="M200 -10q-43 0 -66 21t-23 55q0 18 10.5 30.5t29.5 12.5q37 0 37 -35q0 -14 -8.5 -24.5t-23.5 -12.5q14 -15 44 -15q34 0 58.5 27t47.5 82l11 28l-239 502h-73v29h207v-29h-77l209 -439l177 439h-73v29h181v-29h-72l-190 -472q-46 -114 -80 -156.5t-87 -42.5zM361 822
l-74 -82h-32l64 109q27 47 47 47q26 0 26 -25q0 -11 -31 -49zM503 814l-87 -74h-32l76 102q33 44 51 44q13 0 20 -8t7 -19q0 -13 -35 -45z" />
    <glyph glyph-name="uni04F3" unicode="&#x4f3;" horiz-adv-x="538" 
d="M239 601h-23l59 106q31 65 56 65q27 0 27 -24q0 -22 -58 -79zM364 601h-23l79 100q22 30 36.5 42.5t28.5 12.5q12 0 19 -6.5t7 -16.5q0 -23 -67 -69zM113 -260q-48 0 -75.5 26.5t-27.5 67.5q0 20 11 32t28 12q14 0 24 -9t10 -24q0 -18 -10.5 -28.5t-26.5 -10.5
q14 -38 65 -38q46 0 70.5 41t83.5 192l-193 461h-65v29h187v-29h-64l163 -389l146 389h-66v29h160v-29h-63l-179 -476q-57 -152 -88.5 -199t-89.5 -47z" />
    <glyph glyph-name="uni0E3F" unicode="&#xe3f;" horiz-adv-x="632" 
d="M333 -110h-26v110h-255v29h89v632h-89v29h255v110h26v-111q104 -5 159 -50t55 -123q0 -67 -42 -106.5t-103 -52.5q76 -12 128 -53t52 -115q0 -94 -61 -141t-188 -48v-110zM197 366h110v295h-110v-295zM488 512q0 61 -38 101t-117 47v-293q76 4 115.5 43.5t39.5 101.5z
M523 187q0 73 -52 113t-138 40v-311q103 2 146.5 46t43.5 112zM197 29h110v311h-110v-311z" />
    <glyph glyph-name="uni1E46" unicode="&#x1e46;" horiz-adv-x="739" 
d="M271 29v-29h-219v29h90v632h-90v29h143l372 -592v563h-90v29h219v-29h-90v-666h-32l-393 625v-591h90zM387 -131q-17 0 -28.5 11.5t-11.5 27.5t11.5 27.5t28.5 11.5t28 -11.5t11 -27.5t-11 -27.5t-28 -11.5z" />
    <glyph glyph-name="uni1E47" unicode="&#x1e47;" horiz-adv-x="602" 
d="M249 29v-29h-214v29h82v433h-82v29q65 0 82.5 1.5t28.5 8.5l12 -7v-126q14 58 57 95.5t112 37.5q172 0 172 -203v-269h82v-29h-214v29h79v269q0 164 -137 164q-65 0 -102 -43t-37 -132v-258h79zM308 -131q-17 0 -28.5 11.5t-11.5 27.5t11.5 27.5t28.5 11.5t28 -11.5
t11 -27.5t-11 -27.5t-28 -11.5z" />
    <glyph glyph-name="uni1E62" unicode="&#x1e62;" horiz-adv-x="579" 
d="M312 -10q-134 0 -199 85l-22 -85h-27v224h34q0 -87 61.5 -139.5t152.5 -52.5q81 0 121 35.5t40 91.5q0 63 -41.5 103t-147.5 68q-111 30 -163.5 71t-52.5 127q0 80 56 131t155 51q123 0 179 -78l18 78h27v-221h-34q0 99 -55 144t-134 45q-76 0 -119.5 -37.5t-43.5 -97.5
q0 -38 13.5 -65.5t43.5 -46.5t59 -30.5t79 -25.5q110 -30 160 -73t50 -128q0 -74 -50 -124t-160 -50zM305 -131q-17 0 -28.5 11.5t-11.5 27.5t11.5 27.5t28.5 11.5t28 -11.5t11 -27.5t-11 -27.5t-28 -11.5z" />
    <glyph glyph-name="uni1E63" unicode="&#x1e63;" horiz-adv-x="482" 
d="M97 62l-16 -72h-23v177h29q4 -69 53 -108.5t125 -39.5q118 0 118 93q0 45 -34.5 71.5t-117.5 44.5q-94 19 -130.5 51.5t-36.5 88.5q0 61 45 97t115 36q104 0 149 -61l11 61h23v-161h-29q-4 67 -45.5 99.5t-108.5 32.5q-54 0 -83 -26.5t-29 -65.5q0 -43 31 -69t121 -44
q83 -18 125 -50.5t42 -94.5q0 -61 -40 -96.5t-120 -35.5q-65 0 -109 21.5t-65 50.5zM255 -131q-17 0 -28.5 11.5t-11.5 27.5t11.5 27.5t28.5 11.5t28 -11.5t11 -27.5t-11 -27.5t-28 -11.5z" />
    <glyph glyph-name="uni1E80" unicode="&#x1e80;" horiz-adv-x="925" 
d="M632 -5l-166 625l-166 -625h-59l-167 666h-76v29h205v-29h-78l154 -616l172 645h44l171 -646l145 617h-76v29h188v-29h-76l-156 -666h-59zM460 740l-90 68q-47 34 -47 52q0 10 7.5 17t20.5 7q21 0 61 -48l78 -96h-30z" />
    <glyph glyph-name="uni1E81" unicode="&#x1e81;" horiz-adv-x="755" 
d="M515 -5l-133 439l-135 -439h-46l-131 467h-60v29h178v-29h-66l115 -411l137 444h34l135 -445l112 412h-63v29h150v-29h-57l-126 -467h-44zM377 601l-71 63q-64 50 -64 69q0 23 27 23q26 0 62 -55l69 -100h-23z" />
    <glyph glyph-name="uni1E82" unicode="&#x1e82;" horiz-adv-x="925" 
d="M632 -5l-166 625l-166 -625h-59l-167 666h-76v29h205v-29h-78l154 -616l172 645h44l171 -646l145 617h-76v29h188v-29h-76l-156 -666h-59zM480 740l90 68q47 34 47 52q0 10 -7.5 17t-20.5 7q-21 0 -61 -48l-78 -96h30z" />
    <glyph glyph-name="uni1E83" unicode="&#x1e83;" horiz-adv-x="755" 
d="M515 -5l-133 439l-135 -439h-46l-131 467h-60v29h178v-29h-66l115 -411l137 444h34l135 -445l112 412h-63v29h150v-29h-57l-126 -467h-44zM403 601h-23l68 100q38 55 62 55q28 0 28 -23q0 -19 -65 -69z" />
    <glyph glyph-name="uni1E84" unicode="&#x1e84;" horiz-adv-x="925" 
d="M632 -5l-166 625l-166 -625h-59l-167 666h-76v29h205v-29h-78l154 -616l172 645h44l171 -646l145 617h-76v29h188v-29h-76l-156 -666h-59zM421 802q0 -13 -9 -25t-29 -12q-19 0 -27.5 12t-8.5 25t8.5 25.5t27.5 12.5q20 0 29 -12.5t9 -25.5zM601 802q0 -13 -9 -25
t-29 -12q-19 0 -27.5 12t-8.5 25t8.5 25.5t27.5 12.5q20 0 29 -12.5t9 -25.5z" />
    <glyph glyph-name="uni1E85" unicode="&#x1e85;" horiz-adv-x="755" 
d="M515 -5l-133 439l-135 -439h-46l-131 467h-60v29h178v-29h-66l115 -411l137 444h34l135 -445l112 412h-63v29h150v-29h-57l-126 -467h-44zM343 656q0 -13 -10 -26.5t-31 -13.5t-30.5 13t-9.5 27t9.5 27.5t30.5 13.5t31 -13.5t10 -27.5zM520 656q0 -13 -10 -26.5
t-31 -13.5t-30.5 13t-9.5 27t9.5 27.5t30.5 13.5t31 -13.5t10 -27.5z" />
    <glyph glyph-name="uni1EBC" unicode="&#x1ebc;" horiz-adv-x="605" 
d="M52 0v29h90v632h-90v29h483v-186h-35v71q0 52 -21.5 69t-77.5 17h-203v-295l227 6v-39l-227 5v-309h222q52 0 70 20t18 71v71h35v-191h-491zM260 820q-46 0 -46 -68h-23q0 49 18.5 76.5t54.5 27.5q31 0 69.5 -33.5t61.5 -33.5q45 0 45 67h23q0 -104 -73 -104
q-33 0 -72 34t-58 34z" />
    <glyph glyph-name="uni1EBD" unicode="&#x1ebd;" horiz-adv-x="522" 
d="M278 -10q-104 0 -166 70t-62 188q0 112 61 182.5t157 70.5q99 0 153.5 -65t54.5 -162v-22h-370v-10q0 -102 44.5 -162.5t130.5 -60.5q129 0 165 125l24 -8q-17 -71 -67 -108.5t-125 -37.5zM268 475q-75 0 -116.5 -56.5t-45.5 -141.5h314q-2 85 -40 141.5t-112 56.5z
M336 618q-27 0 -50.5 18t-44 35.5t-40.5 17.5q-48 0 -48 -67h-23q0 50 19 79.5t56 29.5q28 0 51.5 -17.5t44 -35.5t40.5 -18q47 0 47 67h23q0 -55 -17.5 -82t-57.5 -27z" />
    <glyph glyph-name="uni1EF2" unicode="&#x1ef2;" horiz-adv-x="612" 
d="M432 29v-29h-245v29h94v269l-218 363h-68v29h200v-29h-75l196 -327l186 327h-72v29h177v-29h-67l-203 -358v-274h95zM317 740l-90 68q-47 34 -47 52q0 10 7.5 17t20.5 7t25.5 -10.5t35.5 -37.5l78 -96h-30z" />
    <glyph glyph-name="uni1EF3" unicode="&#x1ef3;" horiz-adv-x="538" 
d="M113 -260q-48 0 -75.5 26.5t-27.5 67.5q0 20 11 32t28 12q14 0 24 -9t10 -24q0 -18 -10.5 -28.5t-26.5 -10.5q14 -38 65 -38q46 0 70.5 41t83.5 192l-193 461h-65v29h187v-29h-64l163 -389l146 389h-66v29h160v-29h-63l-179 -476q-57 -152 -88.5 -199t-89.5 -47zM278 601
l-71 63q-64 50 -64 69q0 23 27 23q26 0 62 -55l69 -100h-23z" />
    <glyph glyph-name="uni2000" unicode="&#x2000;" horiz-adv-x="500" 
 />
    <glyph glyph-name="uni2001" unicode="&#x2001;" horiz-adv-x="1000" 
 />
    <glyph glyph-name="uni2002" unicode="&#x2002;" horiz-adv-x="500" 
 />
    <glyph glyph-name="uni2003" unicode="&#x2003;" horiz-adv-x="1000" 
 />
    <glyph glyph-name="uni2004" unicode="&#x2004;" horiz-adv-x="333" 
 />
    <glyph glyph-name="uni2005" unicode="&#x2005;" horiz-adv-x="250" 
 />
    <glyph glyph-name="uni2006" unicode="&#x2006;" horiz-adv-x="167" 
 />
    <glyph glyph-name="uni2007" unicode="&#x2007;" horiz-adv-x="249" 
 />
    <glyph glyph-name="uni2008" unicode="&#x2008;" horiz-adv-x="198" 
 />
    <glyph glyph-name="uni2009" unicode="&#x2009;" horiz-adv-x="200" 
 />
    <glyph glyph-name="uni200A" unicode="&#x200a;" horiz-adv-x="42" 
 />
    <glyph glyph-name="uni200B" unicode="&#x200b;" horiz-adv-x="0" 
 />
    <glyph glyph-name="uni2010" unicode="&#x2010;" horiz-adv-x="437" 
d="M70 288v35h298v-35h-298z" />
    <glyph glyph-name="uni2011" unicode="&#x2011;" horiz-adv-x="437" 
d="M70 288v35h298v-35h-298z" />
    <glyph glyph-name="uni2012" unicode="&#x2012;" 
d="M92 293v34h456v-34h-456z" />
    <glyph glyph-name="uni2013" unicode="&#x2013;" horiz-adv-x="595" 
d="M70 293v34h456v-34h-456z" />
    <glyph glyph-name="uni2014" unicode="&#x2014;" horiz-adv-x="776" 
d="M70 293v34h636v-34h-636z" />
    <glyph glyph-name="uni2015" unicode="&#x2015;" horiz-adv-x="776" 
d="M70 293v34h636v-34h-636z" />
    <glyph glyph-name="quoteleft" unicode="&#x2018;" horiz-adv-x="209" 
d="M148 702v-27q-47 -27 -52 -80q48 -9 48 -46q0 -14 -11 -27t-31 -13q-22 0 -33.5 14.5t-11.5 37.5q0 101 91 141z" />
    <glyph glyph-name="quoteright" unicode="&#x2019;" horiz-adv-x="211" 
d="M68 505v27q47 27 52 80q-48 9 -48 46q0 14 11 27t31 13q22 0 33.5 -14.5t11.5 -37.5q0 -101 -91 -141z" />
    <glyph glyph-name="uni201A" unicode="&#x201a;" horiz-adv-x="209" 
d="M57 -120v27q47 27 52 80q-48 9 -48 46q0 14 11 27t31 13q22 0 33.5 -14.5t11.5 -37.5q0 -101 -91 -141z" />
    <glyph glyph-name="uni201C" unicode="&#x201c;" horiz-adv-x="362" 
d="M301 702v-27q-47 -27 -52 -80q48 -9 48 -46q0 -14 -11 -27t-31 -13q-22 0 -33.5 14.5t-11.5 37.5q0 101 91 141zM148 702v-27q-47 -27 -52 -80q48 -9 48 -46q0 -14 -11 -27t-31 -13q-22 0 -33.5 14.5t-11.5 37.5q0 101 91 141z" />
    <glyph glyph-name="uni201D" unicode="&#x201d;" horiz-adv-x="363" 
d="M68 505v27q47 27 52 80q-48 9 -48 46q0 14 11 27t31 13q22 0 33.5 -14.5t11.5 -37.5q0 -101 -91 -141zM221 505v27q47 27 52 80q-48 9 -48 46q0 14 11 27t31 13q22 0 33.5 -14.5t11.5 -37.5q0 -101 -91 -141z" />
    <glyph glyph-name="uni201E" unicode="&#x201e;" horiz-adv-x="362" 
d="M209 -120v27q47 27 52 80q-48 9 -48 46q0 14 11 27t31 13q22 0 33.5 -14.5t11.5 -37.5q0 -101 -91 -141zM57 -120v27q47 27 52 80q-48 9 -48 46q0 14 11 27t31 13q22 0 33.5 -14.5t11.5 -37.5q0 -101 -91 -141z" />
    <glyph glyph-name="uni2020" unicode="&#x2020;" horiz-adv-x="480" 
d="M227 484l-110 -15q-74 -17 -74 26q0 42 73 26l111 -13l-19 131q-13 61 30 61q42 0 31 -61l-17 -131l109 13q75 16 75 -26q0 -43 -75 -25l-109 14l23 -181l-23 -553h-25l-24 553z" />
    <glyph glyph-name="uni2021" unicode="&#x2021;" horiz-adv-x="480" 
d="M270 -195q11 -60 -31 -60t-30 60l19 132l-108 -13q-76 -15 -76 25q0 45 76 26l108 -14l-24 146l23 115l-23 111l24 151l-108 -14q-34 -9 -55 -2.5t-21 27.5q0 42 75 26l109 -13l-19 131q-13 61 30 61q42 0 31 -61l-17 -131l110 13q33 9 53.5 2t20.5 -28q0 -42 -73 -25
l-111 14l23 -151l-23 -111l23 -115l-23 -146l111 14q73 18 73 -25q0 -42 -73 -27l-111 14z" />
    <glyph glyph-name="uni2022" unicode="&#x2022;" horiz-adv-x="336" 
d="M247 297q0 -26 -19 -52t-59 -26q-43 0 -61.5 25.5t-18.5 52.5q0 28 18.5 53.5t61.5 25.5q41 0 59.5 -26t18.5 -53z" />
    <glyph glyph-name="uni2026" unicode="&#x2026;" horiz-adv-x="536" 
d="M480 31q0 -14 -11 -27.5t-32 -13.5t-31.5 13.5t-10.5 27.5q0 15 10.5 28.5t31.5 13.5q22 0 32.5 -13.5t10.5 -28.5zM311 31q0 -14 -11 -27.5t-32 -13.5t-31.5 13.5t-10.5 27.5q0 15 10.5 28.5t31.5 13.5q22 0 32.5 -13.5t10.5 -28.5zM142 31q0 -14 -11 -27.5t-32 -13.5
t-31.5 13.5t-10.5 27.5q0 15 10.5 28.5t31.5 13.5q22 0 32.5 -13.5t10.5 -28.5z" />
    <glyph glyph-name="nonbreakingspace.narrow" unicode="&#x202f;" horiz-adv-x="188" 
 />
    <glyph glyph-name="uni2030" unicode="&#x2030;" horiz-adv-x="1229" 
d="M377 523q0 -77 -50 -127t-122 -50t-122 50t-50 127t50 127t122 50t122 -50t50 -127zM194 0h-35l459 690h35zM83 523q0 -64 32 -108.5t90 -44.5t90 44.5t32 108.5t-32 108.5t-90 44.5t-90 -45t-32 -108zM1197 167q0 -76 -50 -126t-122 -50t-122 50t-50 126q0 77 50 127.5
t122 50.5t122 -50t50 -128zM795 166q0 -76 -50 -126t-122 -50t-122 50t-50 126q0 77 50 127.5t122 50.5t122 -50t50 -128zM903 167q0 -63 32 -107.5t90 -44.5t90 44.5t32 107.5q0 64 -32 109t-90 45t-90 -45t-32 -109zM501 166q0 -63 32 -107.5t90 -44.5t90 44.5t32 107.5
q0 64 -32 109t-90 45t-90 -45t-32 -109z" />
    <glyph glyph-name="uni2039" unicode="&#x2039;" horiz-adv-x="337" 
d="M281 60v-26l-243 213v23l243 191v-26l-176 -177z" />
    <glyph glyph-name="uni203A" unicode="&#x203a;" horiz-adv-x="337" 
d="M56 60l176 198l-176 177v26l243 -191v-23l-243 -213v26z" />
    <glyph glyph-name="uni203D" unicode="&#x203d;" horiz-adv-x="658" 
d="M568 544q0 123 -147 123q-57 0 -88 -33q27 -14 27 -36q0 -38 -37 -38q-19 0 -29.5 10.5t-10.5 27.5q0 40 45 67.5t105 27.5q95 0 140 -43.5t45 -112.5q0 -23 -6 -46q-10 -38 -36.5 -66t-58.5 -45.5t-64 -33.5t-58 -38t-34 -51q-7 -34 -5 -53l-28 11q-4 25 1 54
q8 43 44 75.5t74.5 50t74 49t43.5 73.5q3 13 3 27zM288 214l-23 -11q-62 130 -113.5 221t-78.5 131t-32 51q-8 13 -3.5 33t23.5 28q20 8 36.5 0t24.5 -23q5 -11 19 -57.5t50.5 -143.5t96.5 -229zM349 31q0 -14 -11 -27.5t-32 -13.5t-31.5 13.5t-10.5 27.5q0 15 10.5 28.5
t31.5 13.5q22 0 32.5 -13.5t10.5 -28.5z" />
    <glyph glyph-name="uni2042" unicode="&#x2042;" horiz-adv-x="743" 
d="M589 137h-13l-18 80q-7 19 1.5 30t22.5 11t23 -10.5t2 -30.5zM676 151l-78 -26l-6 12l58 57q15 16 28 14t20 -14q8 -10 3 -24.5t-25 -18.5zM574 137l-7 -12l-78 26q-19 3 -24.5 18t2.5 24q7 12 20 14t28 -13zM574 110l-59 -57q-15 -15 -28 -12.5t-19 14.5q-8 10 -3 23.5
t24 18.5l77 26zM677 96q19 -4 24 -18.5t-3 -23.5q-8 -12 -20.5 -14t-27.5 13l-59 57l7 12zM608 29q6 -19 -3 -29.5t-23 -9.5q-14 0 -22.5 10t-2.5 29l19 81h13zM167 137h-13l-18 80q-7 19 1.5 30t22.5 11t23 -10.5t2 -30.5zM254 151l-78 -26l-6 12l58 57q15 16 28 14t20 -14
q8 -10 3 -24.5t-25 -18.5zM152 137l-7 -12l-78 26q-19 3 -24.5 18t2.5 24q7 12 20 14t28 -13zM152 110l-59 -57q-15 -15 -28 -12.5t-19 14.5q-8 10 -3 23.5t24 18.5l77 26zM255 96q19 -4 24 -18.5t-3 -23.5q-8 -12 -20.5 -14t-27.5 13l-59 57l7 12zM186 29q6 -19 -3 -29.5
t-23 -9.5q-14 0 -22.5 10t-2.5 29l19 81h13zM379 579h-13l-18 80q-7 19 1.5 30t22.5 11t23 -10.5t2 -30.5zM466 593l-78 -26l-6 12l58 57q15 16 28 14t20 -14q8 -10 3 -24.5t-25 -18.5zM364 579l-7 -12l-78 26q-19 3 -24.5 18t2.5 24q7 12 20 14t28 -13zM364 552l-59 -57
q-15 -15 -28 -12.5t-19 14.5q-8 10 -3 23.5t24 18.5l77 26zM467 538q19 -4 24 -18.5t-3 -23.5q-8 -12 -20.5 -14t-27.5 13l-59 57l7 12zM398 471q6 -19 -3 -29.5t-23 -9.5q-14 0 -22.5 10t-2.5 29l19 81h13z" />
    <glyph glyph-name="uni2044" unicode="&#x2044;" horiz-adv-x="509" 
d="M43 0h-35l459 690h35z" />
    <glyph glyph-name="uni205F" unicode="&#x205f;" horiz-adv-x="222" 
 />
    <glyph glyph-name="uni2060" unicode="&#x2060;" horiz-adv-x="0" 
 />
    <glyph glyph-name="uni20A1" unicode="&#x20a1;" horiz-adv-x="645" 
d="M125 346q0 -104 30 -181l230 501q-24 2 -36 2q-98 0 -161 -83t-63 -239zM239 56l255 555q-29 33 -75 47l-244 -533q25 -42 64 -69zM196 -38l27 58q-42 24 -70 57l-53 -115h-38l67 146q-63 97 -63 238q0 93 31 172t96 130.5t153 51.5q32 0 53 -4l15 33h38l-19 -42
q43 -14 75 -44l40 86h37l-14 -31v-216h-35q0 56 -20 96l-247 -539q40 -17 86 -17q78 0 131.5 48.5t53.5 141.5h34v-222h-27l-22 76q-32 -40 -80.5 -58t-95.5 -18q-50 0 -95 16l-20 -44h-38z" />
    <glyph glyph-name="uni20A2" unicode="&#x20a2;" horiz-adv-x="647" 
d="M563 212v-222h-27l-22 78q-61 -78 -176 -78q-70 0 -125.5 30t-89 81t-50.5 113.5t-17 131.5q0 93 31 172t96 130.5t154 51.5q120 0 175 -74l21 73h27v-217h-34q0 91 -51 138.5t-137 47.5q-98 0 -161 -83t-63 -239q0 -140 51.5 -223t141.5 -98v352h-79v29q64 0 81.5 1.5
t28.5 8.5l13 -7v-130q10 63 43 100t92 37q47 0 76 -25.5t29 -72.5q0 -43 -36 -43q-17 0 -26.5 8.5t-9.5 22.5q0 15 11 25.5t29 10.5q-13 48 -74 48q-58 0 -90 -48t-32 -146v-173q71 6 118.5 53.5t47.5 135.5h34z" />
    <glyph glyph-name="uni20A3" unicode="&#x20a3;" horiz-adv-x="567" 
d="M318 29v-29h-260v29h90v171h-90v29h90v432h-90v29h468v-186h-35v71q0 52 -22 69t-77 17h-188v-295l223 6v-39l-223 5v-109h223v-29h-223v-171h114z" />
    <glyph glyph-name="uni20A4" unicode="&#x20a4;" horiz-adv-x="537" 
d="M489 163q0 -86 -22 -129.5t-81 -43.5q-37 0 -96.5 23.5t-98.5 23.5q-54 0 -112 -47l-18 24q108 80 108 200q0 16 -1 23h-109v29h105q-7 36 -28 86h-77v29h63q-34 76 -34 126q0 97 56 145t143 48q76 0 126.5 -37t50.5 -99q0 -46 -40 -46q-18 0 -28 10.5t-10 27.5
q0 34 38 41q-34 71 -138 71q-64 0 -106.5 -35.5t-42.5 -108.5q0 -9 0.5 -18t2.5 -18.5t3 -16t4.5 -17t5 -14.5t6.5 -16t5.5 -13.5t7 -15t6.5 -14.5h197v-29h-185q18 -46 22 -86h163v-29h-162q0 -106 -65 -172q34 19 69 19q42 0 93 -21t80 -21q70 0 70 121h29z" />
    <glyph glyph-name="uni20A5" unicode="&#x20a5;" horiz-adv-x="899" 
d="M612 467q-57 0 -90.5 -38.5t-35.5 -115.5zM190 29h65l178 219v60q0 159 -121 159q-55 0 -88.5 -41.5t-33.5 -123.5v-273zM433 29v176l-222 -271h-34l54 66h-176v29h82v433h-82v29q65 0 81.5 1.5t24.5 8.5l15 -7v-115q37 122 160 122q118 0 137 -120q33 120 167 120
l89 109h35l-93 -113q111 -24 111 -179v-289h81v-29h-208v29h74v279q0 134 -85 155l-158 -193v-241h74v-29h-201v29h74z" />
    <glyph glyph-name="uni20A6" unicode="&#x20a6;" horiz-adv-x="766" 
d="M195 620v-194h122zM396 301l-61 96h-140v-96h201zM581 301v96h-188l60 -96h128zM581 98v174h-109zM709 272h-89v-277h-32l-174 277h-219v-243h90v-29h-219v29h90v243h-90v29h90v96h-90v29h90v235h-90v29h143l166 -264h206v235h-90v29h219v-29h-90v-235h89v-29h-89v-96h89
v-29z" />
    <glyph glyph-name="uni20A7" unicode="&#x20a7;" horiz-adv-x="653" 
d="M207 661v-152h301q-5 71 -56.5 111.5t-152.5 40.5h-92zM207 324h94q198 0 208 156h-302v-156zM303 29v-29h-242v29h90v451h-90v29h90v152h-90v29h234q127 0 196 -48.5t75 -132.5h59v-29h-58q-6 -83 -74.5 -134t-194.5 -51h-91v-266h96z" />
    <glyph glyph-name="uni20A8" unicode="&#x20a8;" horiz-adv-x="1007" 
d="M769 -10q-100 0 -168.5 36.5t-113.5 126.5q-45 87 -66 113q-48 56 -129 56h-95v-293h78v-29h-223v29h89v632h-89v29h242q130 0 194 -47.5t64 -134.5q0 -69 -45 -116t-137 -57q47 -4 82 -29.5t54 -60t42.5 -74t47 -72.5t68 -55t105.5 -22q137 0 137 90q0 43 -32.5 70.5
t-110.5 44.5q-95 19 -131 52t-36 89q0 61 44.5 97t114.5 36q103 0 149 -59l12 59h23v-161h-29q-4 67 -46 99.5t-109 32.5q-53 0 -82 -26.5t-29 -65.5q0 -43 30.5 -69t120.5 -44q78 -16 118 -50t40 -95t-47.5 -96.5t-136.5 -35.5zM296 661h-99v-310h97q108 0 153.5 44.5
t45.5 112.5q0 153 -197 153z" />
    <glyph glyph-name="uni20A9" unicode="&#x20a9;" horiz-adv-x="1001" 
d="M503 620l-49 -183h98zM387 312l26 96h-188l24 -96h138zM585 312l-26 96h-112l-26 -96h164zM766 312l23 96h-182l25 -96h134zM316 45l63 238h-122zM669 -5l-76 288h-180l-76 -288h-59l-72 288h-138v29h131l-25 96h-106v29h99l-56 224h-76v29h205v-29h-78l56 -224h203
l67 253h44l67 -253h196l53 224h-76v29h188v-29h-76l-52 -224h105v-29h-112l-23 -96h135v-29h-142l-67 -288h-59zM703 44l56 239h-119z" />
    <glyph glyph-name="uni20AA" unicode="&#x20aa;" horiz-adv-x="816" 
d="M525 153h-56v305q0 55 -8.5 92.5t-22 59.5t-39 33.5t-50.5 14.5t-66 3h-115v-661h-56v690h179q137 0 185.5 -47.5t48.5 -184.5v-305zM291 537h56v-289q0 -73 10.5 -117.5t35 -66.5t53.5 -28.5t78 -6.5h124v661h56v-690h-188q-133 0 -179 51t-46 197v289z" />
    <glyph glyph-name="uni20AB" unicode="&#x20ab;" horiz-adv-x="568" 
d="M398 110l-12 7v107q-15 -58 -55 -86t-93 -28q-75 0 -127.5 57t-52.5 157q-1 99 51.5 155.5t131.5 56.5q107 0 140 -90q-4 120 -4 180h-121v29h121v96q31 0 42 9l11 -6v-99h74v-29h-74v-474h74v-29q-90 0 -106 -13zM248 507q-59 0 -96.5 -48.5t-37.5 -134.5
q-1 -88 39 -136.5t95 -48.5t92 47t37 130v16q0 85 -36 130t-93 45zM77 0v29h426v-29h-426z" />
    <glyph glyph-name="uni20AC" unicode="&#x20ac;" horiz-adv-x="670" 
d="M619 138q0 -64 -52.5 -106t-142.5 -42q-128 0 -201 81t-90 206h-92v29h89q-3 36 1 85h-90v29h94q18 121 89.5 200.5t184.5 79.5q92 0 145.5 -37.5t53.5 -102.5q0 -20 -11 -31t-29 -11t-28 10.5t-10 27.5q0 31 36 41q-30 71 -145 71q-91 0 -153 -63t-77 -185h321l-13 -29
h-310q-4 -48 -1 -85h266l-13 -29h-250q13 -124 74 -189.5t158 -65.5q122 0 157 79q-39 9 -39 43q0 16 10 26.5t28 10.5q40 0 40 -43z" />
    <glyph glyph-name="uni20AD" unicode="&#x20ad;" horiz-adv-x="688" 
d="M285 0h-225v29h89v307h-89v29h89v296h-89v29h225v-29h-80v-296h65l245 296h-75v29h185v-29h-68l-245 -296h234v-29h-218l264 -307h63v-29h-198v29h68l-264 307h-56v-307h80v-29z" />
    <glyph glyph-name="uni20AE" unicode="&#x20ae;" horiz-adv-x="629" 
d="M439 29v-29h-245v29h94v213l-124 -97v39l124 97v87l-124 -97v39l124 97v254h-127q-52 0 -68.5 -16t-16.5 -70v-85h-35v200h550v-200h-35v85q0 55 -16 70.5t-69 15.5h-127v-211l110 86v-39l-110 -86v-87l110 86v-39l-110 -86v-256h95z" />
    <glyph glyph-name="uni20B1" unicode="&#x20b1;" horiz-adv-x="672" 
d="M207 661v-95h288q-43 95 -196 95h-92zM504 537h-297v-86h298q9 39 -1 86zM207 324h94q156 0 196 98h-290v-98zM303 29v-29h-242v29h90v393h-89v29h89v86h-89v29h89v95h-90v29h234q207 0 258 -124h80v-29h-71q10 -45 1 -86h70v-29h-79q-24 -59 -89 -93t-167 -34h-91v-266
h96z" />
    <glyph glyph-name="uni20B2" unicode="&#x20b2;" horiz-adv-x="690" 
d="M361 -10v-102h-32v104q-97 8 -161.5 60t-91 126t-26.5 168q0 92 31 170t96 129.5t152 54.5v100h32v-101q113 -5 160 -69l22 70h27v-223h-34q0 94 -52 142.5t-143 48.5q-100 0 -166 -83t-66 -239t68.5 -240t187.5 -84q106 0 153 59v188h-115v29h253v-29h-82v-279h-26
l-20 59q-50 -59 -167 -59z" />
    <glyph glyph-name="uni20B3" unicode="&#x20b3;" horiz-adv-x="710" 
d="M434 366l-91 261l-91 -261h182zM474 252l-30 85h-202l-30 -85h262zM213 0h-182v29h68l68 194h-97v29h107l30 85h-137v29h147l113 324h46l113 -324h150v-29h-140l30 -85h110v-29h-100l68 -194h71v-29h-202v29h76l-68 194h-282l-68 -194h79v-29z" />
    <glyph glyph-name="uni20B4" unicode="&#x20b4;" horiz-adv-x="599" 
d="M544 393h-487v29h340q55 42 55 113q0 133 -155 133q-53 0 -95.5 -20t-59.5 -63q35 -6 35 -40q0 -17 -10 -27.5t-28 -10.5t-29 11t-11 31q0 65 58 108t152 43q92 0 142 -44t50 -123q0 -66 -42 -111h85v-29zM508 142q0 -60 -55 -106t-150 -46q-109 0 -163.5 49t-54.5 125
q0 70 49 114h-77v29h487v-29h-348q-62 -39 -62 -117q0 -64 46 -101.5t128 -37.5q61 0 103 24t56 65q-37 10 -37 41q0 37 38 37q40 0 40 -47z" />
    <glyph glyph-name="uni20B5" unicode="&#x20b5;" horiz-adv-x="629" 
d="M510 66q-56 -69 -159 -75v-103h-32v102q-88 4 -150.5 57.5t-90 130.5t-27.5 168q0 141 71.5 244.5t196.5 109.5v100h32v-101q98 -5 156 -70l21 70h28v-217h-35q0 91 -51 138.5t-136 47.5q-98 0 -161 -83t-63 -239q0 -155 62 -239.5t168 -84.5q78 0 131.5 48.5t53.5 141.5
h34v-222h-27z" />
    <glyph glyph-name="uni20B8" unicode="&#x20b8;" horiz-adv-x="649" 
d="M55 661v29h539v-29h-539zM203 0v29h94v518h-123q-52 0 -68.5 -16.5t-16.5 -69.5v-86h-34v201h539v-201h-34v86q0 54 -16.5 70t-68.5 16h-122v-518h95v-29h-245z" />
    <glyph glyph-name="uni20B9" unicode="&#x20b9;" horiz-adv-x="587" 
d="M547 144q0 -79 -20 -116.5t-73 -37.5q-54 0 -78 36.5t-48 132.5q-21 86 -52.5 119t-93.5 33h-109v29h111q99 0 146.5 42t52.5 105h-310v29h310q-4 67 -53 106t-144 39h-113v29h439v-29h-182q104 -38 110 -145h72v-29h-72q-6 -63 -53 -108.5t-131 -54.5q56 -15 82 -45.5
t48 -115.5q23 -88 36.5 -114.5t41.5 -26.5q31 0 42.5 30.5t11.5 91.5h29z" />
    <glyph glyph-name="uni20BA" unicode="&#x20ba;" horiz-adv-x="590" 
d="M279 0h-210v29h90v198l-98 -71v39l98 71v98l-98 -71v39l98 71v258h-90v29h240v-29h-94v-218l136 98v-39l-136 -98v-98l136 98v-39l-136 -98v-238h64q114 0 165.5 69.5t51.5 224.5h58q0 -323 -275 -323z" />
    <glyph glyph-name="uni20BC" unicode="&#x20bc;" horiz-adv-x="621" 
d="M123 324v-324h-56v331q0 128 53 195.5t171 73.5v100h39v-100q224 -11 224 -270v-330h-56v328q0 115 -38.5 174.5t-129.5 64.5v-457h-39v457q-90 -6 -129 -67.5t-39 -175.5z" />
    <glyph glyph-name="uni20BD" unicode="&#x20bd;" horiz-adv-x="605" 
d="M302 661h-92v-337h94q208 0 208 169q0 78 -51.5 123t-158.5 45zM306 29v-29h-241v29h89v151h-89v29h89v86h-89v29h89v337h-89v29h233q134 0 203.5 -53t69.5 -144q0 -88 -69.5 -143t-200.5 -55h-91v-86h224v-29h-224v-151h96z" />
    <glyph glyph-name="uni2113" unicode="&#x2113;" horiz-adv-x="414" 
d="M247 -10q-137 0 -137 174v185l-75 -50v34l75 49v189q0 85 35 137t115 52q63 0 96.5 -35.5t33.5 -81.5q0 -39 -13 -71t-45.5 -63.5t-61 -52.5t-84.5 -58l-23 -15v-212q0 -151 98 -151q49 0 72 36.5t23 121.5h26q0 -188 -135 -188zM163 594v-177l23 15q86 56 117 99t31 110
q0 90 -79 90q-92 0 -92 -137z" />
    <glyph glyph-name="uni2116" unicode="&#x2116;" horiz-adv-x="1150" 
d="M920 334q-75 0 -126 52.5t-51 130.5q0 79 51 131t126 52t126 -52t51 -131t-51 -131t-126 -52zM270 29v-29h-219v29h90v632h-90v29h143l372 -592v563h-90v29h219v-29h-90v-666h-32l-393 625v-591h90zM920 361q59 0 93 44t34 112t-34 112t-93 44t-93 -44t-34 -112t34 -112
t93 -44zM752 226v28h335v-28h-335z" />
    <glyph glyph-name="uni2117" unicode="&#x2117;" horiz-adv-x="800" 
d="M400 -10q-149 0 -247.5 104.5t-98.5 256.5q0 150 99 249.5t247 99.5q149 0 248 -99.5t99 -249.5q0 -151 -99.5 -256t-247.5 -105zM400 17q135 0 226.5 95t91.5 239q0 142 -91 232t-227 90t-226.5 -90t-90.5 -232q0 -145 90 -239.5t227 -94.5zM261 141v25h51v362h-51v25
h150q79 0 121 -32.5t42 -86.5q0 -53 -41.5 -87.5t-119.5 -34.5h-61v-146h58v-25h-149zM407 528h-55v-191h57q122 0 122 97q0 94 -124 94z" />
    <glyph glyph-name="uni2120" unicode="&#x2120;" horiz-adv-x="638" 
d="M358 555v-15h-74v15h26v190h-26v15h70l75 -147l73 147h69v-15h-26v-190h26v-15h-87v15h26v180l-78 -155h-23l-77 153v-178h26zM166 539q-50 0 -73 25l-7 -25h-15v74h18q0 -26 20.5 -42.5t51.5 -16.5q52 0 52 36q0 18 -15 29t-47 19q-42 10 -59.5 26.5t-17.5 42.5
q0 27 20 43t55 16q41 0 63 -22l5 22h15v-73h-18q0 57 -64 57q-22 0 -36 -10t-14 -25q0 -32 66 -49q39 -11 56.5 -26.5t17.5 -42.5q0 -25 -18 -41.5t-56 -16.5z" />
    <glyph glyph-name="uni2122" unicode="&#x2122;" horiz-adv-x="650" 
d="M113 540v15h30v190h-38q-19 0 -26.5 -9t-7.5 -31v-31h-17v86h214v-86h-17v31q0 22 -7.5 31t-26.5 9h-39v-190h30v-15h-95zM369 555v-15h-73v15h26v190h-26v15h70l74 -147l74 147h68v-15h-26v-190h26v-15h-87v15h26v180l-77 -155h-24l-77 153v-178h26z" />
    <glyph glyph-name="uni212E" unicode="&#x212e;" horiz-adv-x="654" 
d="M336 -10q-120 0 -201 69t-81 183q0 117 74.5 192.5t201.5 75.5q131 0 203 -70t72 -181v-28h-431v-101q0 -41 50.5 -73t122.5 -32q139 0 211 97l28 -18q-36 -57 -102.5 -85.5t-147.5 -28.5zM174 266h311v69q0 61 -41.5 100.5t-113.5 39.5q-79 0 -117.5 -37.5t-38.5 -98.5
v-73z" />
    <glyph glyph-name="uni2153" unicode="&#x2153;" horiz-adv-x="905" 
d="M280 249h-229v24h90v341h-90v24q50 0 73.5 6.5t31 16.5t16.5 39h19v-427h89v-24zM203 0h-35l459 690h35zM699 -10q-75 0 -116 32.5t-41 75.5q0 44 38 44q34 0 34 -34q0 -29 -37 -39q13 -27 46 -41t71 -14q53 0 84.5 24.5t31.5 73.5q0 46 -33.5 72.5t-91.5 26.5h-52v24h41
q113 0 113 102q0 40 -26.5 65t-73.5 25q-35 0 -65 -14.5t-40 -39.5q41 -4 41 -37q0 -35 -36 -35q-37 0 -37 39q0 45 41.5 78t109.5 33q65 0 102 -30t37 -77q0 -94 -99 -117q62 -9 92.5 -39.5t30.5 -75.5q0 -49 -41.5 -85.5t-123.5 -36.5z" />
    <glyph glyph-name="uni2154" unicode="&#x2154;" horiz-adv-x="1020" 
d="M385 247h-330v28l92 73q94 73 127 120t33 103q0 105 -113 105q-32 0 -62.5 -16t-45.5 -49q39 -5 39 -38q0 -15 -9 -25.5t-26 -10.5q-37 0 -37 40q0 48 44.5 85.5t116.5 37.5q77 0 111.5 -35.5t34.5 -85.5q0 -59 -34 -102t-131 -120l-92 -73h193q39 0 52 10t13 41v45h24
v-133zM323 0h-35l459 690h35zM813 -10q-75 0 -116 32.5t-41 75.5q0 44 38 44q34 0 34 -34q0 -29 -37 -39q13 -27 46 -41t71 -14q53 0 84.5 24.5t31.5 73.5q0 46 -33.5 72.5t-91.5 26.5h-52v24h41q113 0 113 102q0 40 -26.5 65t-73.5 25q-35 0 -65 -14.5t-40 -39.5
q41 -4 41 -37q0 -35 -36 -35q-37 0 -37 39q0 45 41.5 78t109.5 33q65 0 102 -30t37 -77q0 -94 -99 -117q62 -9 92.5 -39.5t30.5 -75.5q0 -49 -41.5 -85.5t-123.5 -36.5z" />
    <glyph glyph-name="uni215B" unicode="&#x215b;" horiz-adv-x="914" 
d="M280 249h-229v24h90v341h-90v24q50 0 73.5 6.5t31 16.5t16.5 39h20v-427h88v-24zM203 0h-35l459 690h35zM700 -10q-88 0 -131.5 36t-43.5 92q0 104 128 123q-99 23 -99 99q0 47 39 79t106 32q69 0 108 -31.5t39 -79.5q0 -33 -23 -60t-73 -39q66 -10 95.5 -44t29.5 -79
q0 -56 -44 -92t-131 -36zM700 252q41 0 67 24.5t26 63.5t-25 63t-69 24q-45 0 -68.5 -24t-23.5 -64q0 -39 25.5 -63t67.5 -24zM700 14q54 0 88.5 27.5t33.5 76.5q-1 51 -34 80.5t-88 29.5q-54 0 -87.5 -29t-34.5 -81q-1 -49 33.5 -76.5t88.5 -27.5z" />
    <glyph glyph-name="uni215C" unicode="&#x215c;" horiz-adv-x="989" 
d="M279 0h-35l459 690h35zM775 -10q-88 0 -131.5 36t-43.5 92q0 104 128 123q-99 23 -99 99q0 47 39 79t106 32q69 0 108 -31.5t39 -79.5q0 -33 -23 -60t-73 -39q66 -10 95.5 -44t29.5 -79q0 -56 -44 -92t-131 -36zM775 252q41 0 67 24.5t26 63.5t-25 63t-69 24
q-45 0 -68.5 -24t-23.5 -64q0 -39 25.5 -63t67.5 -24zM202 239q-75 0 -116 32.5t-41 75.5q0 44 38 44q34 0 34 -34q0 -29 -37 -39q13 -27 46 -41t71 -14q53 0 84.5 24.5t31.5 73.5q0 46 -33.5 72.5t-91.5 26.5h-52v24h41q113 0 113 102q0 40 -26.5 65t-73.5 25
q-35 0 -65 -14.5t-40 -39.5q41 -4 41 -37q0 -35 -36 -35q-37 0 -37 39q0 45 41.5 78t109.5 33q65 0 102 -30t37 -77q0 -94 -99 -117q62 -9 92.5 -39.5t30.5 -75.5q0 -49 -41.5 -85.5t-123.5 -36.5zM775 14q54 0 88.5 27.5t33.5 76.5q-1 51 -34 80.5t-88 29.5
q-54 0 -87.5 -29t-34.5 -81q-1 -49 33 -76.5t89 -27.5z" />
    <glyph glyph-name="uni215D" unicode="&#x215d;" horiz-adv-x="969" 
d="M263 0h-35l459 690h35zM755 -10q-88 0 -131.5 36t-43.5 92q0 104 128 123q-99 23 -99 99q0 47 39 79t106 32q69 0 108 -31.5t39 -79.5q0 -33 -23 -60t-73 -39q66 -10 95.5 -44t29.5 -79q0 -56 -44 -92t-131 -36zM755 252q41 0 67 24.5t26 63.5t-25 63t-69 24
q-45 0 -68.5 -24t-23.5 -64q0 -39 25.5 -63t67.5 -24zM197 234q-81 0 -119.5 38.5t-38.5 79.5q0 38 35 38q32 0 32 -33q0 -25 -34 -35q24 -62 112 -62q54 0 87 32.5t33 95.5q0 61 -33 93.5t-84 32.5q-72 0 -106 -60h-23l32 236h242v-42h-222l-22 -155q38 47 109 47
q79 0 120 -43.5t41 -107.5q0 -63 -44 -109t-117 -46zM755 14q54 0 88.5 27.5t33.5 76.5q-1 51 -34 80.5t-88 29.5q-54 0 -87.5 -29t-34.5 -81q-1 -49 33 -76.5t89 -27.5z" />
    <glyph glyph-name="uni215E" unicode="&#x215e;" horiz-adv-x="879" 
d="M177 0h-35l459 690h35zM178 234q-14 0 -23 9t-9 23q0 122 125 310l52 77h-196q-38 0 -49.5 -12.5t-11.5 -41.5v-55h-29v146h325v-28l-50 -74q-49 -72 -73.5 -137t-28 -98t-3.5 -87q0 -32 -29 -32zM665 -10q-88 0 -131.5 36t-43.5 92q0 104 128 123q-99 23 -99 99
q0 47 39 79t106 32q69 0 108 -31.5t39 -79.5q0 -33 -23 -60t-73 -39q66 -10 95.5 -44t29.5 -79q0 -56 -44 -92t-131 -36zM665 252q41 0 67 24.5t26 63.5t-25 63t-69 24q-45 0 -68.5 -24t-23.5 -64q0 -39 25.5 -63t67.5 -24zM665 14q54 0 88.5 27.5t33.5 76.5q-1 51 -34 80.5
t-88 29.5q-54 0 -87.5 -29t-34.5 -81q-1 -49 33 -76.5t89 -27.5z" />
    </font>
</defs>
</svg>
